%TF.GenerationSoftware,KiCad,Pcbnew,(6.0.11)*%
%TF.CreationDate,2024-01-05T15:28:55+00:00*%
%TF.ProjectId,RJ21_RJ45_PRIMARY_BREAKOUT,524a3231-5f52-44a3-9435-5f5052494d41,rev?*%
%TF.SameCoordinates,Original*%
%TF.FileFunction,Copper,L1,Top*%
%TF.FilePolarity,Positive*%
%FSLAX46Y46*%
G04 Gerber Fmt 4.6, Leading zero omitted, Abs format (unit mm)*
G04 Created by KiCad (PCBNEW (6.0.11)) date 2024-01-05 15:28:55*
%MOMM*%
%LPD*%
G01*
G04 APERTURE LIST*
%TA.AperFunction,ComponentPad*%
%ADD10C,4.500000*%
%TD*%
%TA.AperFunction,ComponentPad*%
%ADD11C,1.500000*%
%TD*%
%TA.AperFunction,ComponentPad*%
%ADD12C,1.600000*%
%TD*%
%TA.AperFunction,ViaPad*%
%ADD13C,0.800000*%
%TD*%
%TA.AperFunction,Conductor*%
%ADD14C,0.250000*%
%TD*%
%TA.AperFunction,Conductor*%
%ADD15C,0.200000*%
%TD*%
G04 APERTURE END LIST*
D10*
%TO.P,J17,*%
%TO.N,*%
X121514994Y-60954995D03*
X196364994Y-60954995D03*
D11*
%TO.P,J17,1,Pin_1*%
%TO.N,/L1-*%
X184860036Y-63100000D03*
%TO.P,J17,2,Pin_2*%
%TO.N,/L2-*%
X182700032Y-63100000D03*
%TO.P,J17,3,Pin_3*%
%TO.N,/L3-*%
X180540029Y-63100000D03*
%TO.P,J17,4,Pin_4*%
%TO.N,/L4-*%
X178380033Y-63100000D03*
%TO.P,J17,5,Pin_5*%
%TO.N,/L5-*%
X176220029Y-63100000D03*
%TO.P,J17,6,Pin_6*%
%TO.N,/L6-*%
X174060025Y-63100000D03*
%TO.P,J17,7,Pin_7*%
%TO.N,/L7-*%
X171900022Y-63100000D03*
%TO.P,J17,8,Pin_8*%
%TO.N,/L8-*%
X169740018Y-63100000D03*
%TO.P,J17,9,Pin_9*%
%TO.N,/L9-*%
X167580026Y-63100000D03*
%TO.P,J17,10,Pin_10*%
%TO.N,/L10-*%
X165420015Y-63100000D03*
%TO.P,J17,11,Pin_11*%
%TO.N,/L11-*%
X163260019Y-63100000D03*
%TO.P,J17,12,Pin_12*%
%TO.N,/L12-*%
X161100000Y-63100000D03*
%TO.P,J17,13,Pin_13*%
%TO.N,/L13-*%
X158939996Y-63100000D03*
%TO.P,J17,14,Pin_14*%
%TO.N,/L14-*%
X156779992Y-63100000D03*
%TO.P,J17,15,Pin_15*%
%TO.N,/L15-*%
X154619989Y-63100000D03*
%TO.P,J17,16,Pin_16*%
%TO.N,/L16-*%
X152459985Y-63100000D03*
%TO.P,J17,17,Pin_17*%
%TO.N,/L17-*%
X150299981Y-63100000D03*
%TO.P,J17,18,Pin_18*%
%TO.N,/L18-*%
X148139978Y-63100000D03*
%TO.P,J17,19,Pin_19*%
%TO.N,/L19-*%
X145979974Y-63100000D03*
%TO.P,J17,20,Pin_20*%
%TO.N,/L20-*%
X143819970Y-63100000D03*
%TO.P,J17,21,Pin_21*%
%TO.N,/L21-*%
X141659963Y-63100000D03*
%TO.P,J17,22,Pin_22*%
%TO.N,/L22-*%
X139499959Y-63100000D03*
%TO.P,J17,23,Pin_23*%
%TO.N,/L23-*%
X137339955Y-63100000D03*
%TO.P,J17,24,Pin_24*%
%TO.N,/L24-*%
X135179952Y-63100000D03*
%TO.P,J17,25,Pin_25*%
%TO.N,unconnected-(J17-Pad25)*%
X133019948Y-63100000D03*
%TO.P,J17,26,Pin_26*%
%TO.N,/L1+*%
X184860036Y-58809999D03*
%TO.P,J17,27,Pin_27*%
%TO.N,/L2+*%
X182700032Y-58809999D03*
%TO.P,J17,28,Pin_28*%
%TO.N,/L3+*%
X180540029Y-58809999D03*
%TO.P,J17,29,Pin_29*%
%TO.N,/L4+*%
X178380033Y-58809999D03*
%TO.P,J17,30,Pin_30*%
%TO.N,/L5+*%
X176220029Y-58809999D03*
%TO.P,J17,31,Pin_31*%
%TO.N,/L6+*%
X174060025Y-58809999D03*
%TO.P,J17,32,Pin_32*%
%TO.N,/L7+*%
X171900022Y-58809999D03*
%TO.P,J17,33,Pin_33*%
%TO.N,/L8+*%
X169740018Y-58809999D03*
%TO.P,J17,34,Pin_34*%
%TO.N,/L9+*%
X167580026Y-58809999D03*
%TO.P,J17,35,Pin_35*%
%TO.N,/L10+*%
X165420015Y-58809999D03*
%TO.P,J17,36,Pin_36*%
%TO.N,/L11+*%
X163260019Y-58809999D03*
%TO.P,J17,37,Pin_37*%
%TO.N,/L12+*%
X161100000Y-58809999D03*
%TO.P,J17,38,Pin_38*%
%TO.N,/L13+*%
X158939996Y-58809999D03*
%TO.P,J17,39,Pin_39*%
%TO.N,/L14+*%
X156779992Y-58809999D03*
%TO.P,J17,40,Pin_40*%
%TO.N,/L15+*%
X154619989Y-58809999D03*
%TO.P,J17,41,Pin_41*%
%TO.N,/L16+*%
X152459985Y-58809999D03*
%TO.P,J17,42,Pin_42*%
%TO.N,/L17+*%
X150299981Y-58809999D03*
%TO.P,J17,43,Pin_43*%
%TO.N,/L18+*%
X148139978Y-58809999D03*
%TO.P,J17,44,Pin_44*%
%TO.N,/L19+*%
X145979974Y-58809999D03*
%TO.P,J17,45,Pin_45*%
%TO.N,/L20+*%
X143819970Y-58809999D03*
%TO.P,J17,46,Pin_46*%
%TO.N,/L21+*%
X141659963Y-58809999D03*
%TO.P,J17,47,Pin_47*%
%TO.N,/L22+*%
X139499959Y-58809999D03*
%TO.P,J17,48,Pin_48*%
%TO.N,/L23+*%
X137339955Y-58809999D03*
%TO.P,J17,49,Pin_49*%
%TO.N,/L24+*%
X135179952Y-58809999D03*
%TO.P,J17,50,Pin_50*%
%TO.N,unconnected-(J17-Pad50)*%
X133019948Y-58809999D03*
%TD*%
D12*
%TO.P,J8,1*%
%TO.N,unconnected-(J8-Pad1)*%
X170150002Y-141660004D03*
%TO.P,J8,2*%
%TO.N,unconnected-(J8-Pad2)*%
X167610009Y-140390007D03*
%TO.P,J8,3*%
%TO.N,unconnected-(J8-Pad3)*%
X170150002Y-139120003D03*
%TO.P,J8,4*%
%TO.N,/L8-*%
X167610009Y-137850006D03*
%TO.P,J8,5*%
%TO.N,/L8+*%
X170150002Y-136580002D03*
%TO.P,J8,6*%
%TO.N,unconnected-(J8-Pad6)*%
X167610009Y-135310005D03*
%TO.P,J8,7*%
%TO.N,unconnected-(J8-Pad7)*%
X170150002Y-134040001D03*
%TO.P,J8,8*%
%TO.N,unconnected-(J8-Pad8)*%
X167610009Y-132770000D03*
%TD*%
%TO.P,J11,1*%
%TO.N,unconnected-(J11-Pad1)*%
X151150002Y-123660004D03*
%TO.P,J11,2*%
%TO.N,unconnected-(J11-Pad2)*%
X148610009Y-122390007D03*
%TO.P,J11,3*%
%TO.N,unconnected-(J11-Pad3)*%
X151150002Y-121120003D03*
%TO.P,J11,4*%
%TO.N,/L11-*%
X148610009Y-119850006D03*
%TO.P,J11,5*%
%TO.N,/L11+*%
X151150002Y-118580002D03*
%TO.P,J11,6*%
%TO.N,unconnected-(J11-Pad6)*%
X148610009Y-117310005D03*
%TO.P,J11,7*%
%TO.N,unconnected-(J11-Pad7)*%
X151150002Y-116040001D03*
%TO.P,J11,8*%
%TO.N,unconnected-(J11-Pad8)*%
X148610009Y-114770000D03*
%TD*%
%TO.P,J5,1*%
%TO.N,unconnected-(J5-Pad1)*%
X170150002Y-87730004D03*
%TO.P,J5,2*%
%TO.N,unconnected-(J5-Pad2)*%
X167610009Y-86460007D03*
%TO.P,J5,3*%
%TO.N,unconnected-(J5-Pad3)*%
X170150002Y-85190003D03*
%TO.P,J5,4*%
%TO.N,/L5-*%
X167610009Y-83920006D03*
%TO.P,J5,5*%
%TO.N,/L5+*%
X170150002Y-82650002D03*
%TO.P,J5,6*%
%TO.N,unconnected-(J5-Pad6)*%
X167610009Y-81380005D03*
%TO.P,J5,7*%
%TO.N,unconnected-(J5-Pad7)*%
X170150002Y-80110001D03*
%TO.P,J5,8*%
%TO.N,unconnected-(J5-Pad8)*%
X167610009Y-78840000D03*
%TD*%
%TO.P,J1,1*%
%TO.N,unconnected-(J1-Pad1)*%
X189150002Y-87660004D03*
%TO.P,J1,2*%
%TO.N,unconnected-(J1-Pad2)*%
X186610009Y-86390007D03*
%TO.P,J1,3*%
%TO.N,unconnected-(J1-Pad3)*%
X189150002Y-85120003D03*
%TO.P,J1,4*%
%TO.N,/L1-*%
X186610009Y-83850006D03*
%TO.P,J1,5*%
%TO.N,/L1+*%
X189150002Y-82580002D03*
%TO.P,J1,6*%
%TO.N,unconnected-(J1-Pad6)*%
X186610009Y-81310005D03*
%TO.P,J1,7*%
%TO.N,unconnected-(J1-Pad7)*%
X189150002Y-80040001D03*
%TO.P,J1,8*%
%TO.N,unconnected-(J1-Pad8)*%
X186610009Y-78770000D03*
%TD*%
%TO.P,J7,1*%
%TO.N,unconnected-(J7-Pad1)*%
X170150002Y-123660004D03*
%TO.P,J7,2*%
%TO.N,unconnected-(J7-Pad2)*%
X167610009Y-122390007D03*
%TO.P,J7,3*%
%TO.N,unconnected-(J7-Pad3)*%
X170150002Y-121120003D03*
%TO.P,J7,4*%
%TO.N,/L7-*%
X167610009Y-119850006D03*
%TO.P,J7,5*%
%TO.N,/L7+*%
X170150002Y-118580002D03*
%TO.P,J7,6*%
%TO.N,unconnected-(J7-Pad6)*%
X167610009Y-117310005D03*
%TO.P,J7,7*%
%TO.N,unconnected-(J7-Pad7)*%
X170150002Y-116040001D03*
%TO.P,J7,8*%
%TO.N,unconnected-(J7-Pad8)*%
X167610009Y-114770000D03*
%TD*%
%TO.P,J4,1*%
%TO.N,unconnected-(J4-Pad1)*%
X189150002Y-141660004D03*
%TO.P,J4,2*%
%TO.N,unconnected-(J4-Pad2)*%
X186610009Y-140390007D03*
%TO.P,J4,3*%
%TO.N,unconnected-(J4-Pad3)*%
X189150002Y-139120003D03*
%TO.P,J4,4*%
%TO.N,/L4-*%
X186610009Y-137850006D03*
%TO.P,J4,5*%
%TO.N,/L4+*%
X189150002Y-136580002D03*
%TO.P,J4,6*%
%TO.N,unconnected-(J4-Pad6)*%
X186610009Y-135310005D03*
%TO.P,J4,7*%
%TO.N,unconnected-(J4-Pad7)*%
X189150002Y-134040001D03*
%TO.P,J4,8*%
%TO.N,unconnected-(J4-Pad8)*%
X186610009Y-132770000D03*
%TD*%
%TO.P,J14,1*%
%TO.N,/L19+*%
X130349998Y-96722698D03*
%TO.P,J14,2*%
%TO.N,/L19-*%
X132889991Y-97992695D03*
%TO.P,J14,3*%
%TO.N,/L18+*%
X130349998Y-99262699D03*
%TO.P,J14,4*%
%TO.N,/L17-*%
X132889991Y-100532696D03*
%TO.P,J14,5*%
%TO.N,/L17+*%
X130349998Y-101802700D03*
%TO.P,J14,6*%
%TO.N,/L18-*%
X132889991Y-103072697D03*
%TO.P,J14,7*%
%TO.N,/L20+*%
X130349998Y-104342701D03*
%TO.P,J14,8*%
%TO.N,/L20-*%
X132889991Y-105612702D03*
%TD*%
%TO.P,J13,1*%
%TO.N,/L15+*%
X130349998Y-114722698D03*
%TO.P,J13,2*%
%TO.N,/L15-*%
X132889991Y-115992695D03*
%TO.P,J13,3*%
%TO.N,/L14+*%
X130349998Y-117262699D03*
%TO.P,J13,4*%
%TO.N,/L13-*%
X132889991Y-118532696D03*
%TO.P,J13,5*%
%TO.N,/L13+*%
X130349998Y-119802700D03*
%TO.P,J13,6*%
%TO.N,/L14-*%
X132889991Y-121072697D03*
%TO.P,J13,7*%
%TO.N,/L16+*%
X130349998Y-122342701D03*
%TO.P,J13,8*%
%TO.N,/L16-*%
X132889991Y-123612702D03*
%TD*%
%TO.P,J10,1*%
%TO.N,unconnected-(J10-Pad1)*%
X151150002Y-105660004D03*
%TO.P,J10,2*%
%TO.N,unconnected-(J10-Pad2)*%
X148610009Y-104390007D03*
%TO.P,J10,3*%
%TO.N,unconnected-(J10-Pad3)*%
X151150002Y-103120003D03*
%TO.P,J10,4*%
%TO.N,/L10-*%
X148610009Y-101850006D03*
%TO.P,J10,5*%
%TO.N,/L10+*%
X151150002Y-100580002D03*
%TO.P,J10,6*%
%TO.N,unconnected-(J10-Pad6)*%
X148610009Y-99310005D03*
%TO.P,J10,7*%
%TO.N,unconnected-(J10-Pad7)*%
X151150002Y-98040001D03*
%TO.P,J10,8*%
%TO.N,unconnected-(J10-Pad8)*%
X148610009Y-96770000D03*
%TD*%
%TO.P,J12,1*%
%TO.N,unconnected-(J12-Pad1)*%
X151150002Y-141660004D03*
%TO.P,J12,2*%
%TO.N,unconnected-(J12-Pad2)*%
X148610009Y-140390007D03*
%TO.P,J12,3*%
%TO.N,unconnected-(J12-Pad3)*%
X151150002Y-139120003D03*
%TO.P,J12,4*%
%TO.N,/L12-*%
X148610009Y-137850006D03*
%TO.P,J12,5*%
%TO.N,/L12+*%
X151150002Y-136580002D03*
%TO.P,J12,6*%
%TO.N,unconnected-(J12-Pad6)*%
X148610009Y-135310005D03*
%TO.P,J12,7*%
%TO.N,unconnected-(J12-Pad7)*%
X151150002Y-134040001D03*
%TO.P,J12,8*%
%TO.N,unconnected-(J12-Pad8)*%
X148610009Y-132770000D03*
%TD*%
%TO.P,J15,1*%
%TO.N,/L23+*%
X130349998Y-78792698D03*
%TO.P,J15,2*%
%TO.N,/L23-*%
X132889991Y-80062695D03*
%TO.P,J15,3*%
%TO.N,/L22+*%
X130349998Y-81332699D03*
%TO.P,J15,4*%
%TO.N,/L21-*%
X132889991Y-82602696D03*
%TO.P,J15,5*%
%TO.N,/L21+*%
X130349998Y-83872700D03*
%TO.P,J15,6*%
%TO.N,/L22-*%
X132889991Y-85142697D03*
%TO.P,J15,7*%
%TO.N,/L24+*%
X130349998Y-86412701D03*
%TO.P,J15,8*%
%TO.N,/L24-*%
X132889991Y-87682702D03*
%TD*%
%TO.P,J9,1*%
%TO.N,unconnected-(J9-Pad1)*%
X151150002Y-88288653D03*
%TO.P,J9,2*%
%TO.N,unconnected-(J9-Pad2)*%
X148610009Y-87018656D03*
%TO.P,J9,3*%
%TO.N,unconnected-(J9-Pad3)*%
X151150002Y-85748652D03*
%TO.P,J9,4*%
%TO.N,/L9-*%
X148610009Y-84478655D03*
%TO.P,J9,5*%
%TO.N,/L9+*%
X151150002Y-83208651D03*
%TO.P,J9,6*%
%TO.N,unconnected-(J9-Pad6)*%
X148610009Y-81938654D03*
%TO.P,J9,7*%
%TO.N,unconnected-(J9-Pad7)*%
X151150002Y-80668650D03*
%TO.P,J9,8*%
%TO.N,unconnected-(J9-Pad8)*%
X148610009Y-79398649D03*
%TD*%
%TO.P,J2,1*%
%TO.N,unconnected-(J2-Pad1)*%
X189150002Y-105660004D03*
%TO.P,J2,2*%
%TO.N,unconnected-(J2-Pad2)*%
X186610009Y-104390007D03*
%TO.P,J2,3*%
%TO.N,unconnected-(J2-Pad3)*%
X189150002Y-103120003D03*
%TO.P,J2,4*%
%TO.N,/L2-*%
X186610009Y-101850006D03*
%TO.P,J2,5*%
%TO.N,/L2+*%
X189150002Y-100580002D03*
%TO.P,J2,6*%
%TO.N,unconnected-(J2-Pad6)*%
X186610009Y-99310005D03*
%TO.P,J2,7*%
%TO.N,unconnected-(J2-Pad7)*%
X189150002Y-98040001D03*
%TO.P,J2,8*%
%TO.N,unconnected-(J2-Pad8)*%
X186610009Y-96770000D03*
%TD*%
%TO.P,J6,1*%
%TO.N,unconnected-(J6-Pad1)*%
X170150002Y-105660004D03*
%TO.P,J6,2*%
%TO.N,unconnected-(J6-Pad2)*%
X167610009Y-104390007D03*
%TO.P,J6,3*%
%TO.N,unconnected-(J6-Pad3)*%
X170150002Y-103120003D03*
%TO.P,J6,4*%
%TO.N,/L6-*%
X167610009Y-101850006D03*
%TO.P,J6,5*%
%TO.N,/L6+*%
X170150002Y-100580002D03*
%TO.P,J6,6*%
%TO.N,unconnected-(J6-Pad6)*%
X167610009Y-99310005D03*
%TO.P,J6,7*%
%TO.N,unconnected-(J6-Pad7)*%
X170150002Y-98040001D03*
%TO.P,J6,8*%
%TO.N,unconnected-(J6-Pad8)*%
X167610009Y-96770000D03*
%TD*%
%TO.P,J3,1*%
%TO.N,unconnected-(J3-Pad1)*%
X189150002Y-123660004D03*
%TO.P,J3,2*%
%TO.N,unconnected-(J3-Pad2)*%
X186610009Y-122390007D03*
%TO.P,J3,3*%
%TO.N,unconnected-(J3-Pad3)*%
X189150002Y-121120003D03*
%TO.P,J3,4*%
%TO.N,/L3-*%
X186610009Y-119850006D03*
%TO.P,J3,5*%
%TO.N,/L3+*%
X189150002Y-118580002D03*
%TO.P,J3,6*%
%TO.N,unconnected-(J3-Pad6)*%
X186610009Y-117310005D03*
%TO.P,J3,7*%
%TO.N,unconnected-(J3-Pad7)*%
X189150002Y-116040001D03*
%TO.P,J3,8*%
%TO.N,unconnected-(J3-Pad8)*%
X186610009Y-114770000D03*
%TD*%
D13*
%TO.N,/L9-*%
X179399990Y-80700000D03*
X182500000Y-77500000D03*
X163000000Y-89500000D03*
%TO.N,/L10-*%
X183049988Y-78558871D03*
X163300000Y-98300000D03*
X179199996Y-82400000D03*
%TO.N,/L11-*%
X163300002Y-116200000D03*
X183774990Y-79707115D03*
X169000000Y-110500000D03*
%TO.N,/L12-*%
X184500000Y-81000000D03*
%TD*%
D14*
%TO.N,/L1+*%
X197375001Y-70575001D02*
X197375001Y-78400001D01*
X185609999Y-58809999D02*
X197375001Y-70575001D01*
X197375001Y-78400001D02*
X193195000Y-82580002D01*
X184860036Y-58809999D02*
X185609999Y-58809999D01*
X193195000Y-82580002D02*
X189150002Y-82580002D01*
%TO.N,/L2+*%
X197950009Y-70308970D02*
X197950009Y-95824993D01*
X185376037Y-57734998D02*
X197950009Y-70308970D01*
X193195000Y-100580002D02*
X189150002Y-100580002D01*
X182700032Y-58809999D02*
X183775033Y-57734998D01*
X197950009Y-95824993D02*
X193195000Y-100580002D01*
X183775033Y-57734998D02*
X185376037Y-57734998D01*
%TO.N,/L3+*%
X189150002Y-118580002D02*
X195864722Y-118580002D01*
X195864722Y-118580002D02*
X198400020Y-116044704D01*
X182350028Y-57000000D02*
X180540029Y-58809999D01*
X198400020Y-70100020D02*
X185300000Y-57000000D01*
X185300000Y-57000000D02*
X182350028Y-57000000D01*
X198400020Y-116044704D02*
X198400020Y-70100020D01*
%TO.N,/L4+*%
X178380033Y-58809999D02*
X180690032Y-56500000D01*
X193195000Y-136580002D02*
X189150002Y-136580002D01*
X198850031Y-130924971D02*
X193195000Y-136580002D01*
X185500000Y-56500000D02*
X198850031Y-69850031D01*
X198850031Y-69850031D02*
X198850031Y-130924971D01*
X180690032Y-56500000D02*
X185500000Y-56500000D01*
%TO.N,/L5+*%
X177295030Y-59885000D02*
X183236038Y-59885000D01*
X183236038Y-59885000D02*
X185935037Y-62583999D01*
X176220029Y-58809999D02*
X177295030Y-59885000D01*
X175804875Y-82650002D02*
X170150002Y-82650002D01*
X185935037Y-72519840D02*
X175804875Y-82650002D01*
X185935037Y-62583999D02*
X185935037Y-72519840D01*
%TO.N,/L6+*%
X183775033Y-67956567D02*
X183800066Y-67981600D01*
X183800066Y-67981600D02*
X183800066Y-74018400D01*
X174060025Y-58809999D02*
X175800015Y-60549989D01*
X183800066Y-74018400D02*
X182123467Y-75694999D01*
X175800015Y-60549989D02*
X181741023Y-60549989D01*
X167215004Y-100580002D02*
X170150002Y-100580002D01*
X183775033Y-62583999D02*
X183775033Y-67956567D01*
X181741023Y-60549989D02*
X183775033Y-62583999D01*
X182123467Y-75694999D02*
X168453597Y-75694999D01*
X166034997Y-99399995D02*
X167215004Y-100580002D01*
X166034997Y-78113599D02*
X166034997Y-99399995D01*
X168453597Y-75694999D02*
X166034997Y-78113599D01*
%TO.N,/L7+*%
X181615030Y-62583999D02*
X181615030Y-66432975D01*
X181937067Y-75244988D02*
X167482190Y-75244988D01*
X171900022Y-58809999D02*
X172082864Y-58809999D01*
X165584986Y-116949984D02*
X167215004Y-118580002D01*
X181615030Y-66432975D02*
X183350055Y-68168000D01*
X167215004Y-118580002D02*
X170150002Y-118580002D01*
X165584986Y-77142192D02*
X165584986Y-116949984D01*
X172082864Y-58809999D02*
X173947831Y-60674966D01*
X167482190Y-75244988D02*
X165584986Y-77142192D01*
X183350055Y-73832000D02*
X181937067Y-75244988D01*
X173947831Y-60674966D02*
X175288581Y-60674966D01*
X183350055Y-68168000D02*
X183350055Y-73832000D01*
X180031031Y-61000000D02*
X181615030Y-62583999D01*
X175613615Y-61000000D02*
X180031031Y-61000000D01*
X175288581Y-60674966D02*
X175613615Y-61000000D01*
%TO.N,/L8+*%
X181750667Y-74794977D02*
X167295790Y-74794977D01*
X182900044Y-73645600D02*
X181750667Y-74794977D01*
X169740018Y-58809999D02*
X170980007Y-60049988D01*
X167295790Y-74794977D02*
X165134975Y-76955792D01*
X175273860Y-61450011D02*
X178321046Y-61450011D01*
X167215004Y-136580002D02*
X170150002Y-136580002D01*
X170980007Y-60049988D02*
X172686443Y-60049989D01*
X179465028Y-62593993D02*
X179465028Y-64919384D01*
X174948826Y-61124977D02*
X175273860Y-61450011D01*
X165134975Y-76955792D02*
X165134975Y-134499973D01*
X173761431Y-61124977D02*
X174948826Y-61124977D01*
X179465028Y-64919384D02*
X182900044Y-68354400D01*
X182900044Y-68354400D02*
X182900044Y-73645600D01*
X178321046Y-61450011D02*
X179465028Y-62593993D01*
X165134975Y-134499973D02*
X167215004Y-136580002D01*
X172686443Y-60049989D02*
X173761431Y-61124977D01*
%TO.N,/L9-*%
X182500000Y-77500000D02*
X179399990Y-80600010D01*
D15*
X148610009Y-84478655D02*
X148610009Y-84764294D01*
X160348652Y-86848652D02*
X163000000Y-89500000D01*
X148610009Y-84764294D02*
X150694367Y-86848652D01*
X150694367Y-86848652D02*
X160348652Y-86848652D01*
D14*
X179399990Y-80600010D02*
X179399990Y-80700000D01*
%TO.N,/L9+*%
X175087460Y-61900022D02*
X176611053Y-61900022D01*
X176611053Y-61900022D02*
X177295030Y-62583999D01*
X148289015Y-83208651D02*
X151150002Y-83208651D01*
X147485009Y-82404645D02*
X148289015Y-83208651D01*
X181564267Y-74344966D02*
X151440041Y-74344966D01*
X167580026Y-58809999D02*
X169270026Y-60499999D01*
X182450033Y-73459200D02*
X181564267Y-74344966D01*
X169270026Y-60499999D02*
X172282635Y-60499999D01*
X178059200Y-64149967D02*
X182450033Y-68540800D01*
X182450033Y-68540800D02*
X182450033Y-73459200D01*
X174762426Y-61574988D02*
X175087460Y-61900022D01*
X172282635Y-60499999D02*
X173357624Y-61574988D01*
X147485008Y-78299999D02*
X147485009Y-82404645D01*
X177295030Y-62583999D02*
X177295030Y-63885797D01*
X151440041Y-74344966D02*
X147485008Y-78299999D01*
X177295030Y-63885797D02*
X177559200Y-64149967D01*
X173357624Y-61574988D02*
X174762426Y-61574988D01*
X177559200Y-64149967D02*
X178059200Y-64149967D01*
%TO.N,/L10+*%
X182000022Y-73272800D02*
X181377867Y-73894955D01*
X174576026Y-62024999D02*
X175135026Y-62583999D01*
X167709996Y-61099980D02*
X172127415Y-61099980D01*
X182000022Y-68727200D02*
X182000022Y-73272800D01*
X148215004Y-100580002D02*
X151150002Y-100580002D01*
X151253641Y-73894955D02*
X147034997Y-78113599D01*
X177872800Y-64599978D02*
X182000022Y-68727200D01*
X147034997Y-78113599D02*
X147034997Y-99399995D01*
X176125023Y-64599978D02*
X177872800Y-64599978D01*
X175135026Y-62583999D02*
X175135026Y-63609981D01*
X181377867Y-73894955D02*
X151253641Y-73894955D01*
X175135026Y-63609981D02*
X176125023Y-64599978D01*
X165420015Y-58809999D02*
X167709996Y-61099980D01*
X147034997Y-99399995D02*
X148215004Y-100580002D01*
X172127415Y-61099980D02*
X173052433Y-62024999D01*
X173052433Y-62024999D02*
X174576026Y-62024999D01*
%TO.N,/L10-*%
X159749994Y-101850006D02*
X163300000Y-98300000D01*
X148610009Y-101850006D02*
X159749994Y-101850006D01*
X179208859Y-82400000D02*
X179199996Y-82400000D01*
X183049988Y-78558871D02*
X179208859Y-82400000D01*
%TO.N,/L11-*%
X181200000Y-110500000D02*
X183774990Y-107925010D01*
X159649996Y-119850006D02*
X163300002Y-116200000D01*
X183774990Y-107925010D02*
X183774990Y-79707115D01*
X148610009Y-119850006D02*
X159649996Y-119850006D01*
X169000000Y-110500000D02*
X181200000Y-110500000D01*
%TO.N,/L11+*%
X172985024Y-62594000D02*
X172985024Y-63616001D01*
X181550011Y-73086400D02*
X181286400Y-73350011D01*
X181286400Y-73350011D02*
X151162174Y-73350011D01*
X146584986Y-77927199D02*
X146584986Y-116949984D01*
X181550011Y-68913600D02*
X181550011Y-73086400D01*
X148215004Y-118580002D02*
X151150002Y-118580002D01*
X172985024Y-63616001D02*
X174419012Y-65049989D01*
X166000011Y-61549991D02*
X171941015Y-61549991D01*
X177686400Y-65049989D02*
X181550011Y-68913600D01*
X146584986Y-116949984D02*
X148215004Y-118580002D01*
X151162174Y-73350011D02*
X146584986Y-77927199D01*
X174419012Y-65049989D02*
X177686400Y-65049989D01*
X171941015Y-61549991D02*
X172985024Y-62594000D01*
X163260019Y-58809999D02*
X166000011Y-61549991D01*
%TO.N,/L12+*%
X148215004Y-136580002D02*
X151150002Y-136580002D01*
X170825021Y-63616001D02*
X172709020Y-65500000D01*
X170825021Y-62594001D02*
X170825021Y-63616001D01*
X161100000Y-58809999D02*
X164315000Y-62024999D01*
X146134975Y-77740799D02*
X146134975Y-134499973D01*
X146134975Y-134499973D02*
X148215004Y-136580002D01*
X164315000Y-62024999D02*
X170256019Y-62024999D01*
X150975774Y-72900000D02*
X146134975Y-77740799D01*
X181100000Y-72900000D02*
X150975774Y-72900000D01*
X170256019Y-62024999D02*
X170825021Y-62594001D01*
X172709020Y-65500000D02*
X177500000Y-65500000D01*
X181100000Y-69100000D02*
X181100000Y-72900000D01*
X177500000Y-65500000D02*
X181100000Y-69100000D01*
%TO.N,/L12-*%
X184500000Y-81000000D02*
X184500000Y-131300000D01*
X184500000Y-131300000D02*
X171600000Y-144200000D01*
X161545002Y-144200000D02*
X155195008Y-137850006D01*
X171600000Y-144200000D02*
X161545002Y-144200000D01*
X155195008Y-137850006D02*
X148610009Y-137850006D01*
%TO.N,/L15+*%
X152309990Y-56500000D02*
X133136410Y-56500000D01*
X127149967Y-62486443D02*
X127149967Y-111522667D01*
X133136410Y-56500000D02*
X127149967Y-62486443D01*
X127149967Y-111522667D02*
X130349998Y-114722698D01*
X154619989Y-58809999D02*
X152309990Y-56500000D01*
%TO.N,/L14+*%
X126699956Y-62300043D02*
X126699956Y-113612657D01*
X132950010Y-56049989D02*
X126699956Y-62300043D01*
X126699956Y-113612657D02*
X130349998Y-117262699D01*
X154019982Y-56049989D02*
X132950010Y-56049989D01*
X156779992Y-58809999D02*
X154019982Y-56049989D01*
%TO.N,/L13+*%
X132863589Y-55500000D02*
X126249945Y-62113644D01*
X126249945Y-115702647D02*
X130349998Y-119802700D01*
X158939996Y-58809999D02*
X155629997Y-55500000D01*
X155629997Y-55500000D02*
X132863589Y-55500000D01*
X126249945Y-62113644D02*
X126249945Y-115702647D01*
%TO.N,/L16+*%
X152459985Y-58809999D02*
X150934973Y-57284987D01*
X132987833Y-57284987D02*
X127599978Y-62672842D01*
X150934973Y-57284987D02*
X132987833Y-57284987D01*
X131474999Y-114182697D02*
X131474999Y-121217700D01*
X131474999Y-121217700D02*
X130349998Y-122342701D01*
X127599978Y-110307676D02*
X131474999Y-114182697D01*
X127599978Y-62672842D02*
X127599978Y-110307676D01*
%TO.N,/L20+*%
X138874969Y-85988621D02*
X129224997Y-95638593D01*
X140584962Y-64105805D02*
X138874969Y-65815798D01*
X143819970Y-58809999D02*
X140584962Y-62045007D01*
X140584962Y-62045007D02*
X140584962Y-64105805D01*
X129224997Y-95638593D02*
X129224997Y-103217700D01*
X138874969Y-65815798D02*
X138874969Y-85988621D01*
X129224997Y-103217700D02*
X130349998Y-104342701D01*
%TO.N,/L17+*%
X130349998Y-101407687D02*
X130349998Y-101802700D01*
X140225002Y-66674998D02*
X140225002Y-92322686D01*
X146495975Y-64175001D02*
X144972381Y-64175001D01*
X144972381Y-64175001D02*
X144047383Y-65099999D01*
X150299981Y-58809999D02*
X147054975Y-62055005D01*
X140225002Y-92322686D02*
X133429992Y-99117696D01*
X147054975Y-62055005D02*
X147054975Y-63616001D01*
X133429992Y-99117696D02*
X132639989Y-99117696D01*
X144047383Y-65099999D02*
X141800001Y-65099999D01*
X141800001Y-65099999D02*
X140225002Y-66674998D01*
X132639989Y-99117696D02*
X130349998Y-101407687D01*
X147054975Y-63616001D02*
X146495975Y-64175001D01*
%TO.N,/L18+*%
X130349998Y-98867686D02*
X130349998Y-99262699D01*
X148139978Y-58809999D02*
X144894971Y-62055006D01*
X143860983Y-64649989D02*
X141313600Y-64649989D01*
X144894971Y-63616001D02*
X143860983Y-64649989D01*
X139774991Y-66188598D02*
X139774991Y-89442693D01*
X139774991Y-89442693D02*
X130349998Y-98867686D01*
X144894971Y-62055006D02*
X144894971Y-63616001D01*
X141313600Y-64649989D02*
X139774991Y-66188598D01*
%TO.N,/L19+*%
X142734964Y-63578604D02*
X142113589Y-64199978D01*
X139324980Y-66002198D02*
X139324980Y-87747716D01*
X141127200Y-64199978D02*
X139324980Y-66002198D01*
X139324980Y-87747716D02*
X130349998Y-96722698D01*
X142113589Y-64199978D02*
X141127200Y-64199978D01*
X145979974Y-58809999D02*
X142734964Y-62055009D01*
X142734964Y-62055009D02*
X142734964Y-63578604D01*
%TO.N,/L23+*%
X131200000Y-60600000D02*
X128500000Y-63300000D01*
X136264954Y-59885000D02*
X134663951Y-59885000D01*
X128500000Y-76942700D02*
X130349998Y-78792698D01*
X137339955Y-58809999D02*
X136264954Y-59885000D01*
X134663951Y-59885000D02*
X133948951Y-60600000D01*
X133948951Y-60600000D02*
X131200000Y-60600000D01*
X128500000Y-63300000D02*
X128500000Y-76942700D01*
%TO.N,/L22+*%
X133284989Y-81332699D02*
X130349998Y-81332699D01*
X136264954Y-62045004D02*
X136264954Y-78352734D01*
X136264954Y-78352734D02*
X133284989Y-81332699D01*
X139499959Y-58809999D02*
X136264954Y-62045004D01*
%TO.N,/L21+*%
X138424958Y-62045004D02*
X138424958Y-78732731D01*
X138424958Y-78732731D02*
X133284989Y-83872700D01*
X133284989Y-83872700D02*
X130349998Y-83872700D01*
X141659963Y-58809999D02*
X138424958Y-62045004D01*
%TO.N,/L24+*%
X128049989Y-84112692D02*
X130349998Y-86412701D01*
X134610950Y-58809999D02*
X133535949Y-59885000D01*
X135179952Y-58809999D02*
X134610950Y-58809999D01*
X133535949Y-59885000D02*
X131278589Y-59885000D01*
X128049989Y-63113600D02*
X128049989Y-84112692D01*
X131278589Y-59885000D02*
X128049989Y-63113600D01*
%TD*%
M02*
