M48
; DRILL file {KiCad (5.1.10-1-10_14)} date Wednesday, February 09, 2022 at 09:22:45 PM
; FORMAT={-:-/ absolute / metric / decimal}
; #@! TF.CreationDate,2022-02-09T21:22:45+00:00
; #@! TF.GenerationSoftware,Kicad,Pcbnew,(5.1.10-1-10_14)
; #@! TF.FileFunction,Plated,1,2,PTH
FMAT,2
METRIC
T1C0.400
T2C0.800
T3C0.900
T4C2.800
%
G90
G05
T1
X163.0Y-89.5
X163.3Y-98.3
X163.3Y-116.2
X169.0Y-110.5
X179.2Y-82.4
X179.4Y-80.7
X182.5Y-77.5
X183.05Y-78.559
X183.775Y-79.707
X184.5Y-81.0
T2
X133.02Y-58.81
X133.02Y-63.1
X135.18Y-58.81
X135.18Y-63.1
X137.34Y-58.81
X137.34Y-63.1
X139.5Y-58.81
X139.5Y-63.1
X141.66Y-58.81
X141.66Y-63.1
X143.82Y-58.81
X143.82Y-63.1
X145.98Y-58.81
X145.98Y-63.1
X148.14Y-58.81
X148.14Y-63.1
X150.3Y-58.81
X150.3Y-63.1
X152.46Y-58.81
X152.46Y-63.1
X154.62Y-58.81
X154.62Y-63.1
X156.78Y-58.81
X156.78Y-63.1
X158.94Y-58.81
X158.94Y-63.1
X161.1Y-58.81
X161.1Y-63.1
X163.26Y-58.81
X163.26Y-63.1
X165.42Y-58.81
X165.42Y-63.1
X167.58Y-58.81
X167.58Y-63.1
X169.74Y-58.81
X169.74Y-63.1
X171.9Y-58.81
X171.9Y-63.1
X174.06Y-58.81
X174.06Y-63.1
X176.22Y-58.81
X176.22Y-63.1
X178.38Y-58.81
X178.38Y-63.1
X180.54Y-58.81
X180.54Y-63.1
X182.7Y-58.81
X182.7Y-63.1
X184.86Y-58.81
X184.86Y-63.1
T3
X130.35Y-78.793
X130.35Y-81.333
X130.35Y-83.873
X130.35Y-86.413
X130.35Y-96.723
X130.35Y-99.263
X130.35Y-101.803
X130.35Y-104.343
X130.35Y-114.723
X130.35Y-117.263
X130.35Y-119.803
X130.35Y-122.343
X130.35Y-132.723
X130.35Y-135.263
X130.35Y-137.803
X130.35Y-140.343
X132.89Y-80.063
X132.89Y-82.603
X132.89Y-85.143
X132.89Y-87.683
X132.89Y-97.993
X132.89Y-100.533
X132.89Y-103.073
X132.89Y-105.613
X132.89Y-115.993
X132.89Y-118.533
X132.89Y-121.073
X132.89Y-123.613
X132.89Y-133.993
X132.89Y-136.533
X132.89Y-139.073
X132.89Y-141.613
X148.61Y-78.84
X148.61Y-81.38
X148.61Y-83.92
X148.61Y-86.46
X148.61Y-96.77
X148.61Y-99.31
X148.61Y-101.85
X148.61Y-104.39
X148.61Y-114.77
X148.61Y-117.31
X148.61Y-119.85
X148.61Y-122.39
X148.61Y-132.77
X148.61Y-135.31
X148.61Y-137.85
X148.61Y-140.39
X151.15Y-80.11
X151.15Y-82.65
X151.15Y-85.19
X151.15Y-87.73
X151.15Y-98.04
X151.15Y-100.58
X151.15Y-103.12
X151.15Y-105.66
X151.15Y-116.04
X151.15Y-118.58
X151.15Y-121.12
X151.15Y-123.66
X151.15Y-134.04
X151.15Y-136.58
X151.15Y-139.12
X151.15Y-141.66
X167.61Y-78.84
X167.61Y-81.38
X167.61Y-83.92
X167.61Y-86.46
X167.61Y-96.77
X167.61Y-99.31
X167.61Y-101.85
X167.61Y-104.39
X167.61Y-114.77
X167.61Y-117.31
X167.61Y-119.85
X167.61Y-122.39
X167.61Y-132.77
X167.61Y-135.31
X167.61Y-137.85
X167.61Y-140.39
X170.15Y-80.11
X170.15Y-82.65
X170.15Y-85.19
X170.15Y-87.73
X170.15Y-98.04
X170.15Y-100.58
X170.15Y-103.12
X170.15Y-105.66
X170.15Y-116.04
X170.15Y-118.58
X170.15Y-121.12
X170.15Y-123.66
X170.15Y-134.04
X170.15Y-136.58
X170.15Y-139.12
X170.15Y-141.66
X186.61Y-78.77
X186.61Y-81.31
X186.61Y-83.85
X186.61Y-86.39
X186.61Y-96.77
X186.61Y-99.31
X186.61Y-101.85
X186.61Y-104.39
X186.61Y-114.77
X186.61Y-117.31
X186.61Y-119.85
X186.61Y-122.39
X186.61Y-132.77
X186.61Y-135.31
X186.61Y-137.85
X186.61Y-140.39
X189.15Y-80.04
X189.15Y-82.58
X189.15Y-85.12
X189.15Y-87.66
X189.15Y-98.04
X189.15Y-100.58
X189.15Y-103.12
X189.15Y-105.66
X189.15Y-116.04
X189.15Y-118.58
X189.15Y-121.12
X189.15Y-123.66
X189.15Y-134.04
X189.15Y-136.58
X189.15Y-139.12
X189.15Y-141.66
T4
X121.515Y-60.955
X196.365Y-60.955
T0
M30
