%TF.GenerationSoftware,KiCad,Pcbnew,(5.1.10-1-10_14)*%
%TF.CreationDate,2022-02-09T21:11:09+00:00*%
%TF.ProjectId,RJ21_RJ45_PRIMARY_BREAKOUT,524a3231-5f52-44a3-9435-5f5052494d41,rev?*%
%TF.SameCoordinates,Original*%
%TF.FileFunction,Legend,Bot*%
%TF.FilePolarity,Positive*%
%FSLAX46Y46*%
G04 Gerber Fmt 4.6, Leading zero omitted, Abs format (unit mm)*
G04 Created by KiCad (PCBNEW (5.1.10-1-10_14)) date 2022-02-09 21:11:09*
%MOMM*%
%LPD*%
G01*
G04 APERTURE LIST*
%ADD10C,0.010000*%
%ADD11C,3.200000*%
%ADD12C,3.100000*%
%ADD13C,1.600000*%
%ADD14C,4.500000*%
%ADD15C,1.500000*%
G04 APERTURE END LIST*
D10*
%TO.C,J1*%
G36*
X201745674Y-75402017D02*
G01*
X201745674Y-90938351D01*
X185532007Y-90938351D01*
X185532007Y-90811351D01*
X201639841Y-90811351D01*
X201639841Y-75507851D01*
X185532007Y-75507851D01*
X185532007Y-90811351D01*
X185532007Y-90938351D01*
X185405007Y-90938351D01*
X185405007Y-75402017D01*
X201745674Y-75402017D01*
G37*
X201745674Y-75402017D02*
X201745674Y-90938351D01*
X185532007Y-90938351D01*
X185532007Y-90811351D01*
X201639841Y-90811351D01*
X201639841Y-75507851D01*
X185532007Y-75507851D01*
X185532007Y-90811351D01*
X185532007Y-90938351D01*
X185405007Y-90938351D01*
X185405007Y-75402017D01*
X201745674Y-75402017D01*
%TO.C,J2*%
G36*
X201745674Y-93402017D02*
G01*
X201745674Y-108938351D01*
X185532007Y-108938351D01*
X185532007Y-108811351D01*
X201639841Y-108811351D01*
X201639841Y-93507851D01*
X185532007Y-93507851D01*
X185532007Y-108811351D01*
X185532007Y-108938351D01*
X185405007Y-108938351D01*
X185405007Y-93402017D01*
X201745674Y-93402017D01*
G37*
X201745674Y-93402017D02*
X201745674Y-108938351D01*
X185532007Y-108938351D01*
X185532007Y-108811351D01*
X201639841Y-108811351D01*
X201639841Y-93507851D01*
X185532007Y-93507851D01*
X185532007Y-108811351D01*
X185532007Y-108938351D01*
X185405007Y-108938351D01*
X185405007Y-93402017D01*
X201745674Y-93402017D01*
%TO.C,J3*%
G36*
X201745674Y-111402017D02*
G01*
X201745674Y-126938351D01*
X185532007Y-126938351D01*
X185532007Y-126811351D01*
X201639841Y-126811351D01*
X201639841Y-111507851D01*
X185532007Y-111507851D01*
X185532007Y-126811351D01*
X185532007Y-126938351D01*
X185405007Y-126938351D01*
X185405007Y-111402017D01*
X201745674Y-111402017D01*
G37*
X201745674Y-111402017D02*
X201745674Y-126938351D01*
X185532007Y-126938351D01*
X185532007Y-126811351D01*
X201639841Y-126811351D01*
X201639841Y-111507851D01*
X185532007Y-111507851D01*
X185532007Y-126811351D01*
X185532007Y-126938351D01*
X185405007Y-126938351D01*
X185405007Y-111402017D01*
X201745674Y-111402017D01*
%TO.C,J4*%
G36*
X201745674Y-129402017D02*
G01*
X201745674Y-144938351D01*
X185532007Y-144938351D01*
X185532007Y-144811351D01*
X201639841Y-144811351D01*
X201639841Y-129507851D01*
X185532007Y-129507851D01*
X185532007Y-144811351D01*
X185532007Y-144938351D01*
X185405007Y-144938351D01*
X185405007Y-129402017D01*
X201745674Y-129402017D01*
G37*
X201745674Y-129402017D02*
X201745674Y-144938351D01*
X185532007Y-144938351D01*
X185532007Y-144811351D01*
X201639841Y-144811351D01*
X201639841Y-129507851D01*
X185532007Y-129507851D01*
X185532007Y-144811351D01*
X185532007Y-144938351D01*
X185405007Y-144938351D01*
X185405007Y-129402017D01*
X201745674Y-129402017D01*
%TO.C,J5*%
G36*
X182745674Y-75472017D02*
G01*
X182745674Y-91008351D01*
X166532007Y-91008351D01*
X166532007Y-90881351D01*
X182639841Y-90881351D01*
X182639841Y-75577851D01*
X166532007Y-75577851D01*
X166532007Y-90881351D01*
X166532007Y-91008351D01*
X166405007Y-91008351D01*
X166405007Y-75472017D01*
X182745674Y-75472017D01*
G37*
X182745674Y-75472017D02*
X182745674Y-91008351D01*
X166532007Y-91008351D01*
X166532007Y-90881351D01*
X182639841Y-90881351D01*
X182639841Y-75577851D01*
X166532007Y-75577851D01*
X166532007Y-90881351D01*
X166532007Y-91008351D01*
X166405007Y-91008351D01*
X166405007Y-75472017D01*
X182745674Y-75472017D01*
%TO.C,J6*%
G36*
X182745674Y-93402017D02*
G01*
X182745674Y-108938351D01*
X166532007Y-108938351D01*
X166532007Y-108811351D01*
X182639841Y-108811351D01*
X182639841Y-93507851D01*
X166532007Y-93507851D01*
X166532007Y-108811351D01*
X166532007Y-108938351D01*
X166405007Y-108938351D01*
X166405007Y-93402017D01*
X182745674Y-93402017D01*
G37*
X182745674Y-93402017D02*
X182745674Y-108938351D01*
X166532007Y-108938351D01*
X166532007Y-108811351D01*
X182639841Y-108811351D01*
X182639841Y-93507851D01*
X166532007Y-93507851D01*
X166532007Y-108811351D01*
X166532007Y-108938351D01*
X166405007Y-108938351D01*
X166405007Y-93402017D01*
X182745674Y-93402017D01*
%TO.C,J7*%
G36*
X182745674Y-111402017D02*
G01*
X182745674Y-126938351D01*
X166532007Y-126938351D01*
X166532007Y-126811351D01*
X182639841Y-126811351D01*
X182639841Y-111507851D01*
X166532007Y-111507851D01*
X166532007Y-126811351D01*
X166532007Y-126938351D01*
X166405007Y-126938351D01*
X166405007Y-111402017D01*
X182745674Y-111402017D01*
G37*
X182745674Y-111402017D02*
X182745674Y-126938351D01*
X166532007Y-126938351D01*
X166532007Y-126811351D01*
X182639841Y-126811351D01*
X182639841Y-111507851D01*
X166532007Y-111507851D01*
X166532007Y-126811351D01*
X166532007Y-126938351D01*
X166405007Y-126938351D01*
X166405007Y-111402017D01*
X182745674Y-111402017D01*
%TO.C,J8*%
G36*
X182745674Y-129402017D02*
G01*
X182745674Y-144938351D01*
X166532007Y-144938351D01*
X166532007Y-144811351D01*
X182639841Y-144811351D01*
X182639841Y-129507851D01*
X166532007Y-129507851D01*
X166532007Y-144811351D01*
X166532007Y-144938351D01*
X166405007Y-144938351D01*
X166405007Y-129402017D01*
X182745674Y-129402017D01*
G37*
X182745674Y-129402017D02*
X182745674Y-144938351D01*
X166532007Y-144938351D01*
X166532007Y-144811351D01*
X182639841Y-144811351D01*
X182639841Y-129507851D01*
X166532007Y-129507851D01*
X166532007Y-144811351D01*
X166532007Y-144938351D01*
X166405007Y-144938351D01*
X166405007Y-129402017D01*
X182745674Y-129402017D01*
%TO.C,J9*%
G36*
X163745674Y-75472017D02*
G01*
X163745674Y-91008351D01*
X147532007Y-91008351D01*
X147532007Y-90881351D01*
X163639841Y-90881351D01*
X163639841Y-75577851D01*
X147532007Y-75577851D01*
X147532007Y-90881351D01*
X147532007Y-91008351D01*
X147405007Y-91008351D01*
X147405007Y-75472017D01*
X163745674Y-75472017D01*
G37*
X163745674Y-75472017D02*
X163745674Y-91008351D01*
X147532007Y-91008351D01*
X147532007Y-90881351D01*
X163639841Y-90881351D01*
X163639841Y-75577851D01*
X147532007Y-75577851D01*
X147532007Y-90881351D01*
X147532007Y-91008351D01*
X147405007Y-91008351D01*
X147405007Y-75472017D01*
X163745674Y-75472017D01*
%TO.C,J10*%
G36*
X163745674Y-93402017D02*
G01*
X163745674Y-108938351D01*
X147532007Y-108938351D01*
X147532007Y-108811351D01*
X163639841Y-108811351D01*
X163639841Y-93507851D01*
X147532007Y-93507851D01*
X147532007Y-108811351D01*
X147532007Y-108938351D01*
X147405007Y-108938351D01*
X147405007Y-93402017D01*
X163745674Y-93402017D01*
G37*
X163745674Y-93402017D02*
X163745674Y-108938351D01*
X147532007Y-108938351D01*
X147532007Y-108811351D01*
X163639841Y-108811351D01*
X163639841Y-93507851D01*
X147532007Y-93507851D01*
X147532007Y-108811351D01*
X147532007Y-108938351D01*
X147405007Y-108938351D01*
X147405007Y-93402017D01*
X163745674Y-93402017D01*
%TO.C,J11*%
G36*
X163745674Y-111402017D02*
G01*
X163745674Y-126938351D01*
X147532007Y-126938351D01*
X147532007Y-126811351D01*
X163639841Y-126811351D01*
X163639841Y-111507851D01*
X147532007Y-111507851D01*
X147532007Y-126811351D01*
X147532007Y-126938351D01*
X147405007Y-126938351D01*
X147405007Y-111402017D01*
X163745674Y-111402017D01*
G37*
X163745674Y-111402017D02*
X163745674Y-126938351D01*
X147532007Y-126938351D01*
X147532007Y-126811351D01*
X163639841Y-126811351D01*
X163639841Y-111507851D01*
X147532007Y-111507851D01*
X147532007Y-126811351D01*
X147532007Y-126938351D01*
X147405007Y-126938351D01*
X147405007Y-111402017D01*
X163745674Y-111402017D01*
%TO.C,J12*%
G36*
X163745674Y-129402017D02*
G01*
X163745674Y-144938351D01*
X147532007Y-144938351D01*
X147532007Y-144811351D01*
X163639841Y-144811351D01*
X163639841Y-129507851D01*
X147532007Y-129507851D01*
X147532007Y-144811351D01*
X147532007Y-144938351D01*
X147405007Y-144938351D01*
X147405007Y-129402017D01*
X163745674Y-129402017D01*
G37*
X163745674Y-129402017D02*
X163745674Y-144938351D01*
X147532007Y-144938351D01*
X147532007Y-144811351D01*
X163639841Y-144811351D01*
X163639841Y-129507851D01*
X147532007Y-129507851D01*
X147532007Y-144811351D01*
X147532007Y-144938351D01*
X147405007Y-144938351D01*
X147405007Y-129402017D01*
X163745674Y-129402017D01*
%TO.C,J13*%
G36*
X117754326Y-126980685D02*
G01*
X117754326Y-111444351D01*
X133967993Y-111444351D01*
X133967993Y-111571351D01*
X117860159Y-111571351D01*
X117860159Y-126874851D01*
X133967993Y-126874851D01*
X133967993Y-111571351D01*
X133967993Y-111444351D01*
X134094993Y-111444351D01*
X134094993Y-126980685D01*
X117754326Y-126980685D01*
G37*
X117754326Y-126980685D02*
X117754326Y-111444351D01*
X133967993Y-111444351D01*
X133967993Y-111571351D01*
X117860159Y-111571351D01*
X117860159Y-126874851D01*
X133967993Y-126874851D01*
X133967993Y-111571351D01*
X133967993Y-111444351D01*
X134094993Y-111444351D01*
X134094993Y-126980685D01*
X117754326Y-126980685D01*
%TO.C,J14*%
G36*
X117754326Y-108980685D02*
G01*
X117754326Y-93444351D01*
X133967993Y-93444351D01*
X133967993Y-93571351D01*
X117860159Y-93571351D01*
X117860159Y-108874851D01*
X133967993Y-108874851D01*
X133967993Y-93571351D01*
X133967993Y-93444351D01*
X134094993Y-93444351D01*
X134094993Y-108980685D01*
X117754326Y-108980685D01*
G37*
X117754326Y-108980685D02*
X117754326Y-93444351D01*
X133967993Y-93444351D01*
X133967993Y-93571351D01*
X117860159Y-93571351D01*
X117860159Y-108874851D01*
X133967993Y-108874851D01*
X133967993Y-93571351D01*
X133967993Y-93444351D01*
X134094993Y-93444351D01*
X134094993Y-108980685D01*
X117754326Y-108980685D01*
%TO.C,J15*%
G36*
X117754326Y-91050685D02*
G01*
X117754326Y-75514351D01*
X133967993Y-75514351D01*
X133967993Y-75641351D01*
X117860159Y-75641351D01*
X117860159Y-90944851D01*
X133967993Y-90944851D01*
X133967993Y-75641351D01*
X133967993Y-75514351D01*
X134094993Y-75514351D01*
X134094993Y-91050685D01*
X117754326Y-91050685D01*
G37*
X117754326Y-91050685D02*
X117754326Y-75514351D01*
X133967993Y-75514351D01*
X133967993Y-75641351D01*
X117860159Y-75641351D01*
X117860159Y-90944851D01*
X133967993Y-90944851D01*
X133967993Y-75641351D01*
X133967993Y-75514351D01*
X134094993Y-75514351D01*
X134094993Y-91050685D01*
X117754326Y-91050685D01*
%TO.C,J17*%
G36*
X200450164Y-65420160D02*
G01*
X117434497Y-65420160D01*
X117434497Y-50307160D01*
X117646164Y-50307160D01*
X117646164Y-65187327D01*
X200217331Y-65187327D01*
X200217331Y-50307160D01*
X117646164Y-50307160D01*
X117434497Y-50307160D01*
X117434497Y-50095493D01*
X200450164Y-50095493D01*
X200450164Y-65420160D01*
G37*
X200450164Y-65420160D02*
X117434497Y-65420160D01*
X117434497Y-50307160D01*
X117646164Y-50307160D01*
X117646164Y-65187327D01*
X200217331Y-65187327D01*
X200217331Y-50307160D01*
X117646164Y-50307160D01*
X117434497Y-50307160D01*
X117434497Y-50095493D01*
X200450164Y-50095493D01*
X200450164Y-65420160D01*
%TO.C,J16*%
G36*
X117754326Y-144980685D02*
G01*
X117754326Y-129444351D01*
X133967993Y-129444351D01*
X133967993Y-129571351D01*
X117860159Y-129571351D01*
X117860159Y-144874851D01*
X133967993Y-144874851D01*
X133967993Y-129571351D01*
X133967993Y-129444351D01*
X134094993Y-129444351D01*
X134094993Y-144980685D01*
X117754326Y-144980685D01*
G37*
X117754326Y-144980685D02*
X117754326Y-129444351D01*
X133967993Y-129444351D01*
X133967993Y-129571351D01*
X117860159Y-129571351D01*
X117860159Y-144874851D01*
X133967993Y-144874851D01*
X133967993Y-129571351D01*
X133967993Y-129444351D01*
X134094993Y-129444351D01*
X134094993Y-144980685D01*
X117754326Y-144980685D01*
%TD*%
%LPC*%
D11*
%TO.C,REF\u002A\u002A*%
X110000000Y-160000000D03*
%TD*%
%TO.C,REF\u002A\u002A*%
X210000000Y-160000000D03*
%TD*%
%TO.C,REF\u002A\u002A*%
X210000000Y-60000000D03*
%TD*%
%TO.C,REF\u002A\u002A*%
X110000000Y-60000000D03*
%TD*%
D12*
%TO.C,J1*%
X195500000Y-88930000D03*
X195500000Y-77500000D03*
D13*
X189150002Y-80040001D03*
X189150002Y-82580002D03*
X189150002Y-85120003D03*
X189150002Y-87660004D03*
X186610009Y-86390007D03*
X186610009Y-83850006D03*
X186610009Y-81310005D03*
X186610009Y-78770000D03*
%TD*%
D12*
%TO.C,J2*%
X195500000Y-106930000D03*
X195500000Y-95500000D03*
D13*
X189150002Y-98040001D03*
X189150002Y-100580002D03*
X189150002Y-103120003D03*
X189150002Y-105660004D03*
X186610009Y-104390007D03*
X186610009Y-101850006D03*
X186610009Y-99310005D03*
X186610009Y-96770000D03*
%TD*%
%TO.C,J3*%
X186610009Y-114770000D03*
X186610009Y-117310005D03*
X186610009Y-119850006D03*
X186610009Y-122390007D03*
X189150002Y-123660004D03*
X189150002Y-121120003D03*
X189150002Y-118580002D03*
X189150002Y-116040001D03*
D12*
X195000000Y-113000000D03*
X195500000Y-124930000D03*
%TD*%
%TO.C,J4*%
X195500000Y-142930000D03*
X195500000Y-131500000D03*
D13*
X189150002Y-134040001D03*
X189150002Y-136580002D03*
X189150002Y-139120003D03*
X189150002Y-141660004D03*
X186610009Y-140390007D03*
X186610009Y-137850006D03*
X186610009Y-135310005D03*
X186610009Y-132770000D03*
%TD*%
%TO.C,J5*%
X167610009Y-78840000D03*
X167610009Y-81380005D03*
X167610009Y-83920006D03*
X167610009Y-86460007D03*
X170150002Y-87730004D03*
X170150002Y-85190003D03*
X170150002Y-82650002D03*
X170150002Y-80110001D03*
D12*
X176500000Y-77570000D03*
X176500000Y-89000000D03*
%TD*%
%TO.C,J6*%
X176500000Y-106930000D03*
X176500000Y-95500000D03*
D13*
X170150002Y-98040001D03*
X170150002Y-100580002D03*
X170150002Y-103120003D03*
X170150002Y-105660004D03*
X167610009Y-104390007D03*
X167610009Y-101850006D03*
X167610009Y-99310005D03*
X167610009Y-96770000D03*
%TD*%
%TO.C,J7*%
X167610009Y-114770000D03*
X167610009Y-117310005D03*
X167610009Y-119850006D03*
X167610009Y-122390007D03*
X170150002Y-123660004D03*
X170150002Y-121120003D03*
X170150002Y-118580002D03*
X170150002Y-116040001D03*
D12*
X176500000Y-113500000D03*
X176500000Y-124930000D03*
%TD*%
%TO.C,J8*%
X176500000Y-142930000D03*
X176500000Y-131500000D03*
D13*
X170150002Y-134040001D03*
X170150002Y-136580002D03*
X170150002Y-139120003D03*
X170150002Y-141660004D03*
X167610009Y-140390007D03*
X167610009Y-137850006D03*
X167610009Y-135310005D03*
X167610009Y-132770000D03*
%TD*%
%TO.C,J9*%
X148610009Y-78840000D03*
X148610009Y-81380005D03*
X148610009Y-83920006D03*
X148610009Y-86460007D03*
X151150002Y-87730004D03*
X151150002Y-85190003D03*
X151150002Y-82650002D03*
X151150002Y-80110001D03*
D12*
X157500000Y-77570000D03*
X157500000Y-89000000D03*
%TD*%
%TO.C,J10*%
X157500000Y-106930000D03*
X157500000Y-95500000D03*
D13*
X151150002Y-98040001D03*
X151150002Y-100580002D03*
X151150002Y-103120003D03*
X151150002Y-105660004D03*
X148610009Y-104390007D03*
X148610009Y-101850006D03*
X148610009Y-99310005D03*
X148610009Y-96770000D03*
%TD*%
%TO.C,J11*%
X148610009Y-114770000D03*
X148610009Y-117310005D03*
X148610009Y-119850006D03*
X148610009Y-122390007D03*
X151150002Y-123660004D03*
X151150002Y-121120003D03*
X151150002Y-118580002D03*
X151150002Y-116040001D03*
D12*
X157500000Y-113500000D03*
X157500000Y-124930000D03*
%TD*%
%TO.C,J12*%
X157500000Y-142930000D03*
X157500000Y-131500000D03*
D13*
X151150002Y-134040001D03*
X151150002Y-136580002D03*
X151150002Y-139120003D03*
X151150002Y-141660004D03*
X148610009Y-140390007D03*
X148610009Y-137850006D03*
X148610009Y-135310005D03*
X148610009Y-132770000D03*
%TD*%
%TO.C,J13*%
X132889991Y-123612702D03*
X132889991Y-121072697D03*
X132889991Y-118532696D03*
X132889991Y-115992695D03*
X130349998Y-114722698D03*
X130349998Y-117262699D03*
X130349998Y-119802700D03*
X130349998Y-122342701D03*
D12*
X124000000Y-124882702D03*
X124000000Y-113452702D03*
%TD*%
%TO.C,J14*%
X124000000Y-95452702D03*
X124000000Y-106882702D03*
D13*
X130349998Y-104342701D03*
X130349998Y-101802700D03*
X130349998Y-99262699D03*
X130349998Y-96722698D03*
X132889991Y-97992695D03*
X132889991Y-100532696D03*
X132889991Y-103072697D03*
X132889991Y-105612702D03*
%TD*%
%TO.C,J15*%
X132889991Y-87682702D03*
X132889991Y-85142697D03*
X132889991Y-82602696D03*
X132889991Y-80062695D03*
X130349998Y-78792698D03*
X130349998Y-81332699D03*
X130349998Y-83872700D03*
X130349998Y-86412701D03*
D12*
X124000000Y-88952702D03*
X124000000Y-77522702D03*
%TD*%
D14*
%TO.C,J17*%
X121514994Y-60954995D03*
X196364994Y-60954995D03*
D15*
X133019948Y-58809999D03*
X135179952Y-58809999D03*
X133019948Y-63100000D03*
X135179952Y-63100000D03*
X137339955Y-58809999D03*
X139499959Y-58809999D03*
X137339955Y-63100000D03*
X139499959Y-63100000D03*
X141659963Y-58809999D03*
X143819970Y-58809999D03*
X141659963Y-63100000D03*
X143819970Y-63100000D03*
X145979974Y-58809999D03*
X148139978Y-58809999D03*
X145979974Y-63100000D03*
X148139978Y-63100000D03*
X150299981Y-58809999D03*
X152459985Y-58809999D03*
X150299981Y-63100000D03*
X152459985Y-63100000D03*
X154619989Y-58809999D03*
X156779992Y-58809999D03*
X154619989Y-63100000D03*
X156779992Y-63100000D03*
X158939996Y-58809999D03*
X161100000Y-58809999D03*
X158939996Y-63100000D03*
X161100000Y-63100000D03*
X163260019Y-58809999D03*
X165420015Y-58809999D03*
X163260019Y-63100000D03*
X165420015Y-63100000D03*
X167580026Y-58809999D03*
X169740018Y-58809999D03*
X167580026Y-63100000D03*
X169740018Y-63100000D03*
X171900022Y-58809999D03*
X174060025Y-58809999D03*
X171900022Y-63100000D03*
X174060025Y-63100000D03*
X176220029Y-58809999D03*
X178380033Y-58809999D03*
X176220029Y-63100000D03*
X178380033Y-63100000D03*
X180540029Y-58809999D03*
X182700032Y-58809999D03*
X180540029Y-63100000D03*
X182700032Y-63100000D03*
X184860036Y-58809999D03*
X184860036Y-63100000D03*
%TD*%
D12*
%TO.C,J16*%
X124000000Y-131452702D03*
X124000000Y-142882702D03*
D13*
X130349998Y-140342701D03*
X130349998Y-137802700D03*
X130349998Y-135262699D03*
X130349998Y-132722698D03*
X132889991Y-133992695D03*
X132889991Y-136532696D03*
X132889991Y-139072697D03*
X132889991Y-141612702D03*
%TD*%
M02*
