%TF.GenerationSoftware,KiCad,Pcbnew,(6.0.7)*%
%TF.CreationDate,2022-11-27T22:31:22+00:00*%
%TF.ProjectId,RJ21_RJ45_PRIMARY_BREAKOUT,524a3231-5f52-44a3-9435-5f5052494d41,rev?*%
%TF.SameCoordinates,Original*%
%TF.FileFunction,Drillmap*%
%TF.FilePolarity,Positive*%
%FSLAX45Y45*%
G04 Gerber Fmt 4.5, Leading zero omitted, Abs format (unit mm)*
G04 Created by KiCad (PCBNEW (6.0.7)) date 2022-11-27 22:31:22*
%MOMM*%
%LPD*%
G01*
G04 APERTURE LIST*
%ADD10C,0.500000*%
%ADD11C,0.150000*%
%ADD12C,0.200000*%
%ADD13C,0.310000*%
%ADD14C,0.320000*%
G04 APERTURE END LIST*
D10*
X11000000Y-5000000D02*
X21000000Y-5000000D01*
X10000000Y-6000000D02*
X10000000Y-16000000D01*
X22000000Y-6000000D02*
X22000000Y-16000000D01*
X21000000Y-17000000D02*
X11000000Y-17000000D01*
X10000000Y-16000000D02*
G75*
G03*
X11000000Y-17000000I1000000J0D01*
G01*
X21000000Y-17000000D02*
G75*
G03*
X22000000Y-16000000I0J1000000D01*
G01*
X22000000Y-6000000D02*
G75*
G03*
X21000000Y-5000000I-1000000J0D01*
G01*
D11*
X14550000Y-7150000D02*
X17550000Y-7150000D01*
X17550000Y-7150000D02*
G75*
G03*
X17550000Y-6650000I0J250000D01*
G01*
D10*
X11000000Y-5000000D02*
G75*
G03*
X10000000Y-6000000I0J-1000000D01*
G01*
D11*
X14550000Y-6650000D02*
G75*
G03*
X14550000Y-7150000I0J-250000D01*
G01*
X14550000Y-6650000D02*
X17550000Y-6650000D01*
D12*
D13*
X12245000Y-7597270D02*
X12555000Y-7907270D01*
X12555000Y-7597270D02*
X12245000Y-7907270D01*
X12245000Y-8740270D02*
X12555000Y-9050270D01*
X12555000Y-8740270D02*
X12245000Y-9050270D01*
X12245000Y-9390270D02*
X12555000Y-9700270D01*
X12555000Y-9390270D02*
X12245000Y-9700270D01*
X12245000Y-10533270D02*
X12555000Y-10843270D01*
X12555000Y-10533270D02*
X12245000Y-10843270D01*
X12245000Y-11190270D02*
X12555000Y-11500270D01*
X12555000Y-11190270D02*
X12245000Y-11500270D01*
X12245000Y-12333270D02*
X12555000Y-12643270D01*
X12555000Y-12333270D02*
X12245000Y-12643270D01*
X15595000Y-7657865D02*
X15905000Y-7967865D01*
X15905000Y-7657865D02*
X15595000Y-7967865D01*
X15595000Y-8800865D02*
X15905000Y-9110865D01*
X15905000Y-8800865D02*
X15595000Y-9110865D01*
X15595000Y-9395000D02*
X15905000Y-9705000D01*
X15905000Y-9395000D02*
X15595000Y-9705000D01*
X15595000Y-10538000D02*
X15905000Y-10848000D01*
X15905000Y-10538000D02*
X15595000Y-10848000D01*
X15595000Y-11195000D02*
X15905000Y-11505000D01*
X15905000Y-11195000D02*
X15595000Y-11505000D01*
X15595000Y-12338000D02*
X15905000Y-12648000D01*
X15905000Y-12338000D02*
X15595000Y-12648000D01*
X15595000Y-12995000D02*
X15905000Y-13305000D01*
X15905000Y-12995000D02*
X15595000Y-13305000D01*
X15595000Y-14138000D02*
X15905000Y-14448000D01*
X15905000Y-14138000D02*
X15595000Y-14448000D01*
X17495000Y-7602000D02*
X17805000Y-7912000D01*
X17805000Y-7602000D02*
X17495000Y-7912000D01*
X17495000Y-8745000D02*
X17805000Y-9055000D01*
X17805000Y-8745000D02*
X17495000Y-9055000D01*
X17495000Y-9395000D02*
X17805000Y-9705000D01*
X17805000Y-9395000D02*
X17495000Y-9705000D01*
X17495000Y-10538000D02*
X17805000Y-10848000D01*
X17805000Y-10538000D02*
X17495000Y-10848000D01*
X17495000Y-11195000D02*
X17805000Y-11505000D01*
X17805000Y-11195000D02*
X17495000Y-11505000D01*
X17495000Y-12338000D02*
X17805000Y-12648000D01*
X17805000Y-12338000D02*
X17495000Y-12648000D01*
X17495000Y-12995000D02*
X17805000Y-13305000D01*
X17805000Y-12995000D02*
X17495000Y-13305000D01*
X17495000Y-14138000D02*
X17805000Y-14448000D01*
X17805000Y-14138000D02*
X17495000Y-14448000D01*
X19395000Y-7595000D02*
X19705000Y-7905000D01*
X19705000Y-7595000D02*
X19395000Y-7905000D01*
X19395000Y-8738000D02*
X19705000Y-9048000D01*
X19705000Y-8738000D02*
X19395000Y-9048000D01*
X19395000Y-9395000D02*
X19705000Y-9705000D01*
X19705000Y-9395000D02*
X19395000Y-9705000D01*
X19395000Y-10538000D02*
X19705000Y-10848000D01*
X19705000Y-10538000D02*
X19395000Y-10848000D01*
X19395000Y-11195000D02*
X19705000Y-11505000D01*
X19705000Y-11195000D02*
X19395000Y-11505000D01*
X19395000Y-12338000D02*
X19705000Y-12648000D01*
X19705000Y-12338000D02*
X19395000Y-12648000D01*
X19395000Y-12995000D02*
X19705000Y-13305000D01*
X19705000Y-12995000D02*
X19395000Y-13305000D01*
X19395000Y-14138000D02*
X19705000Y-14448000D01*
X19705000Y-14138000D02*
X19395000Y-14448000D01*
D14*
X11160000Y-6000000D02*
G75*
G03*
X11160000Y-6000000I-160000J0D01*
G01*
X11160000Y-16000000D02*
G75*
G03*
X11160000Y-16000000I-160000J0D01*
G01*
X21160000Y-6000000D02*
G75*
G03*
X21160000Y-6000000I-160000J0D01*
G01*
X21160000Y-16000000D02*
G75*
G03*
X21160000Y-16000000I-160000J0D01*
G01*
D12*
X10232619Y-17335476D02*
X10232619Y-17135476D01*
X10280238Y-17135476D01*
X10308810Y-17145000D01*
X10327857Y-17164048D01*
X10337381Y-17183095D01*
X10346905Y-17221190D01*
X10346905Y-17249762D01*
X10337381Y-17287857D01*
X10327857Y-17306905D01*
X10308810Y-17325952D01*
X10280238Y-17335476D01*
X10232619Y-17335476D01*
X10432619Y-17335476D02*
X10432619Y-17202143D01*
X10432619Y-17240238D02*
X10442143Y-17221190D01*
X10451667Y-17211667D01*
X10470714Y-17202143D01*
X10489762Y-17202143D01*
X10556429Y-17335476D02*
X10556429Y-17202143D01*
X10556429Y-17135476D02*
X10546905Y-17145000D01*
X10556429Y-17154524D01*
X10565952Y-17145000D01*
X10556429Y-17135476D01*
X10556429Y-17154524D01*
X10680238Y-17335476D02*
X10661190Y-17325952D01*
X10651667Y-17306905D01*
X10651667Y-17135476D01*
X10785000Y-17335476D02*
X10765952Y-17325952D01*
X10756429Y-17306905D01*
X10756429Y-17135476D01*
X11013571Y-17335476D02*
X11013571Y-17135476D01*
X11080238Y-17278333D01*
X11146905Y-17135476D01*
X11146905Y-17335476D01*
X11327857Y-17335476D02*
X11327857Y-17230714D01*
X11318333Y-17211667D01*
X11299286Y-17202143D01*
X11261190Y-17202143D01*
X11242143Y-17211667D01*
X11327857Y-17325952D02*
X11308809Y-17335476D01*
X11261190Y-17335476D01*
X11242143Y-17325952D01*
X11232619Y-17306905D01*
X11232619Y-17287857D01*
X11242143Y-17268810D01*
X11261190Y-17259286D01*
X11308809Y-17259286D01*
X11327857Y-17249762D01*
X11423095Y-17202143D02*
X11423095Y-17402143D01*
X11423095Y-17211667D02*
X11442143Y-17202143D01*
X11480238Y-17202143D01*
X11499286Y-17211667D01*
X11508809Y-17221190D01*
X11518333Y-17240238D01*
X11518333Y-17297381D01*
X11508809Y-17316429D01*
X11499286Y-17325952D01*
X11480238Y-17335476D01*
X11442143Y-17335476D01*
X11423095Y-17325952D01*
X11604048Y-17316429D02*
X11613571Y-17325952D01*
X11604048Y-17335476D01*
X11594524Y-17325952D01*
X11604048Y-17316429D01*
X11604048Y-17335476D01*
X11604048Y-17211667D02*
X11613571Y-17221190D01*
X11604048Y-17230714D01*
X11594524Y-17221190D01*
X11604048Y-17211667D01*
X11604048Y-17230714D01*
X9775000Y-17565000D02*
X9975000Y-17765000D01*
X9975000Y-17565000D02*
X9775000Y-17765000D01*
X10213571Y-17555476D02*
X10337381Y-17555476D01*
X10270714Y-17631667D01*
X10299286Y-17631667D01*
X10318333Y-17641190D01*
X10327857Y-17650714D01*
X10337381Y-17669762D01*
X10337381Y-17717381D01*
X10327857Y-17736429D01*
X10318333Y-17745952D01*
X10299286Y-17755476D01*
X10242143Y-17755476D01*
X10223095Y-17745952D01*
X10213571Y-17736429D01*
X10423095Y-17736429D02*
X10432619Y-17745952D01*
X10423095Y-17755476D01*
X10413571Y-17745952D01*
X10423095Y-17736429D01*
X10423095Y-17755476D01*
X10623095Y-17755476D02*
X10508810Y-17755476D01*
X10565952Y-17755476D02*
X10565952Y-17555476D01*
X10546905Y-17584048D01*
X10527857Y-17603095D01*
X10508810Y-17612619D01*
X10746905Y-17555476D02*
X10765952Y-17555476D01*
X10785000Y-17565000D01*
X10794524Y-17574524D01*
X10804048Y-17593571D01*
X10813571Y-17631667D01*
X10813571Y-17679286D01*
X10804048Y-17717381D01*
X10794524Y-17736429D01*
X10785000Y-17745952D01*
X10765952Y-17755476D01*
X10746905Y-17755476D01*
X10727857Y-17745952D01*
X10718333Y-17736429D01*
X10708810Y-17717381D01*
X10699286Y-17679286D01*
X10699286Y-17631667D01*
X10708810Y-17593571D01*
X10718333Y-17574524D01*
X10727857Y-17565000D01*
X10746905Y-17555476D01*
X10937381Y-17555476D02*
X10956429Y-17555476D01*
X10975476Y-17565000D01*
X10985000Y-17574524D01*
X10994524Y-17593571D01*
X11004048Y-17631667D01*
X11004048Y-17679286D01*
X10994524Y-17717381D01*
X10985000Y-17736429D01*
X10975476Y-17745952D01*
X10956429Y-17755476D01*
X10937381Y-17755476D01*
X10918333Y-17745952D01*
X10908810Y-17736429D01*
X10899286Y-17717381D01*
X10889762Y-17679286D01*
X10889762Y-17631667D01*
X10899286Y-17593571D01*
X10908810Y-17574524D01*
X10918333Y-17565000D01*
X10937381Y-17555476D01*
X11089762Y-17755476D02*
X11089762Y-17622143D01*
X11089762Y-17641190D02*
X11099286Y-17631667D01*
X11118333Y-17622143D01*
X11146905Y-17622143D01*
X11165952Y-17631667D01*
X11175476Y-17650714D01*
X11175476Y-17755476D01*
X11175476Y-17650714D02*
X11185000Y-17631667D01*
X11204048Y-17622143D01*
X11232619Y-17622143D01*
X11251667Y-17631667D01*
X11261190Y-17650714D01*
X11261190Y-17755476D01*
X11356428Y-17755476D02*
X11356428Y-17622143D01*
X11356428Y-17641190D02*
X11365952Y-17631667D01*
X11385000Y-17622143D01*
X11413571Y-17622143D01*
X11432619Y-17631667D01*
X11442143Y-17650714D01*
X11442143Y-17755476D01*
X11442143Y-17650714D02*
X11451667Y-17631667D01*
X11470714Y-17622143D01*
X11499286Y-17622143D01*
X11518333Y-17631667D01*
X11527857Y-17650714D01*
X11527857Y-17755476D01*
X11918333Y-17545952D02*
X11746905Y-17803095D01*
X12175476Y-17555476D02*
X12194524Y-17555476D01*
X12213571Y-17565000D01*
X12223095Y-17574524D01*
X12232619Y-17593571D01*
X12242143Y-17631667D01*
X12242143Y-17679286D01*
X12232619Y-17717381D01*
X12223095Y-17736429D01*
X12213571Y-17745952D01*
X12194524Y-17755476D01*
X12175476Y-17755476D01*
X12156428Y-17745952D01*
X12146905Y-17736429D01*
X12137381Y-17717381D01*
X12127857Y-17679286D01*
X12127857Y-17631667D01*
X12137381Y-17593571D01*
X12146905Y-17574524D01*
X12156428Y-17565000D01*
X12175476Y-17555476D01*
X12327857Y-17736429D02*
X12337381Y-17745952D01*
X12327857Y-17755476D01*
X12318333Y-17745952D01*
X12327857Y-17736429D01*
X12327857Y-17755476D01*
X12527857Y-17755476D02*
X12413571Y-17755476D01*
X12470714Y-17755476D02*
X12470714Y-17555476D01*
X12451667Y-17584048D01*
X12432619Y-17603095D01*
X12413571Y-17612619D01*
X12604048Y-17574524D02*
X12613571Y-17565000D01*
X12632619Y-17555476D01*
X12680238Y-17555476D01*
X12699286Y-17565000D01*
X12708809Y-17574524D01*
X12718333Y-17593571D01*
X12718333Y-17612619D01*
X12708809Y-17641190D01*
X12594524Y-17755476D01*
X12718333Y-17755476D01*
X12794524Y-17574524D02*
X12804048Y-17565000D01*
X12823095Y-17555476D01*
X12870714Y-17555476D01*
X12889762Y-17565000D01*
X12899286Y-17574524D01*
X12908809Y-17593571D01*
X12908809Y-17612619D01*
X12899286Y-17641190D01*
X12785000Y-17755476D01*
X12908809Y-17755476D01*
X13032619Y-17555476D02*
X13051667Y-17555476D01*
X13070714Y-17565000D01*
X13080238Y-17574524D01*
X13089762Y-17593571D01*
X13099286Y-17631667D01*
X13099286Y-17679286D01*
X13089762Y-17717381D01*
X13080238Y-17736429D01*
X13070714Y-17745952D01*
X13051667Y-17755476D01*
X13032619Y-17755476D01*
X13013571Y-17745952D01*
X13004048Y-17736429D01*
X12994524Y-17717381D01*
X12985000Y-17679286D01*
X12985000Y-17631667D01*
X12994524Y-17593571D01*
X13004048Y-17574524D01*
X13013571Y-17565000D01*
X13032619Y-17555476D01*
X13175476Y-17555476D02*
X13175476Y-17593571D01*
X13251667Y-17555476D02*
X13251667Y-17593571D01*
X13546905Y-17831667D02*
X13537381Y-17822143D01*
X13518333Y-17793571D01*
X13508809Y-17774524D01*
X13499286Y-17745952D01*
X13489762Y-17698333D01*
X13489762Y-17660238D01*
X13499286Y-17612619D01*
X13508809Y-17584048D01*
X13518333Y-17565000D01*
X13537381Y-17536429D01*
X13546905Y-17526905D01*
X13604048Y-17555476D02*
X13727857Y-17555476D01*
X13661190Y-17631667D01*
X13689762Y-17631667D01*
X13708809Y-17641190D01*
X13718333Y-17650714D01*
X13727857Y-17669762D01*
X13727857Y-17717381D01*
X13718333Y-17736429D01*
X13708809Y-17745952D01*
X13689762Y-17755476D01*
X13632619Y-17755476D01*
X13613571Y-17745952D01*
X13604048Y-17736429D01*
X13851667Y-17555476D02*
X13870714Y-17555476D01*
X13889762Y-17565000D01*
X13899286Y-17574524D01*
X13908809Y-17593571D01*
X13918333Y-17631667D01*
X13918333Y-17679286D01*
X13908809Y-17717381D01*
X13899286Y-17736429D01*
X13889762Y-17745952D01*
X13870714Y-17755476D01*
X13851667Y-17755476D01*
X13832619Y-17745952D01*
X13823095Y-17736429D01*
X13813571Y-17717381D01*
X13804048Y-17679286D01*
X13804048Y-17631667D01*
X13813571Y-17593571D01*
X13823095Y-17574524D01*
X13832619Y-17565000D01*
X13851667Y-17555476D01*
X14156428Y-17755476D02*
X14156428Y-17555476D01*
X14242143Y-17755476D02*
X14242143Y-17650714D01*
X14232619Y-17631667D01*
X14213571Y-17622143D01*
X14185000Y-17622143D01*
X14165952Y-17631667D01*
X14156428Y-17641190D01*
X14365952Y-17755476D02*
X14346905Y-17745952D01*
X14337381Y-17736429D01*
X14327857Y-17717381D01*
X14327857Y-17660238D01*
X14337381Y-17641190D01*
X14346905Y-17631667D01*
X14365952Y-17622143D01*
X14394524Y-17622143D01*
X14413571Y-17631667D01*
X14423095Y-17641190D01*
X14432619Y-17660238D01*
X14432619Y-17717381D01*
X14423095Y-17736429D01*
X14413571Y-17745952D01*
X14394524Y-17755476D01*
X14365952Y-17755476D01*
X14546905Y-17755476D02*
X14527857Y-17745952D01*
X14518333Y-17726905D01*
X14518333Y-17555476D01*
X14699286Y-17745952D02*
X14680238Y-17755476D01*
X14642143Y-17755476D01*
X14623095Y-17745952D01*
X14613571Y-17726905D01*
X14613571Y-17650714D01*
X14623095Y-17631667D01*
X14642143Y-17622143D01*
X14680238Y-17622143D01*
X14699286Y-17631667D01*
X14708809Y-17650714D01*
X14708809Y-17669762D01*
X14613571Y-17688810D01*
X14785000Y-17745952D02*
X14804048Y-17755476D01*
X14842143Y-17755476D01*
X14861190Y-17745952D01*
X14870714Y-17726905D01*
X14870714Y-17717381D01*
X14861190Y-17698333D01*
X14842143Y-17688810D01*
X14813571Y-17688810D01*
X14794524Y-17679286D01*
X14785000Y-17660238D01*
X14785000Y-17650714D01*
X14794524Y-17631667D01*
X14813571Y-17622143D01*
X14842143Y-17622143D01*
X14861190Y-17631667D01*
X14937381Y-17831667D02*
X14946905Y-17822143D01*
X14965952Y-17793571D01*
X14975476Y-17774524D01*
X14985000Y-17745952D01*
X14994524Y-17698333D01*
X14994524Y-17660238D01*
X14985000Y-17612619D01*
X14975476Y-17584048D01*
X14965952Y-17565000D01*
X14946905Y-17536429D01*
X14937381Y-17526905D01*
X15299286Y-17831667D02*
X15289762Y-17822143D01*
X15270714Y-17793571D01*
X15261190Y-17774524D01*
X15251667Y-17745952D01*
X15242143Y-17698333D01*
X15242143Y-17660238D01*
X15251667Y-17612619D01*
X15261190Y-17584048D01*
X15270714Y-17565000D01*
X15289762Y-17536429D01*
X15299286Y-17526905D01*
X15375476Y-17622143D02*
X15375476Y-17755476D01*
X15375476Y-17641190D02*
X15385000Y-17631667D01*
X15404048Y-17622143D01*
X15432619Y-17622143D01*
X15451667Y-17631667D01*
X15461190Y-17650714D01*
X15461190Y-17755476D01*
X15585000Y-17755476D02*
X15565952Y-17745952D01*
X15556428Y-17736429D01*
X15546905Y-17717381D01*
X15546905Y-17660238D01*
X15556428Y-17641190D01*
X15565952Y-17631667D01*
X15585000Y-17622143D01*
X15613571Y-17622143D01*
X15632619Y-17631667D01*
X15642143Y-17641190D01*
X15651667Y-17660238D01*
X15651667Y-17717381D01*
X15642143Y-17736429D01*
X15632619Y-17745952D01*
X15613571Y-17755476D01*
X15585000Y-17755476D01*
X15708809Y-17622143D02*
X15785000Y-17622143D01*
X15737381Y-17555476D02*
X15737381Y-17726905D01*
X15746905Y-17745952D01*
X15765952Y-17755476D01*
X15785000Y-17755476D01*
X16004048Y-17622143D02*
X16004048Y-17822143D01*
X16004048Y-17631667D02*
X16023095Y-17622143D01*
X16061190Y-17622143D01*
X16080238Y-17631667D01*
X16089762Y-17641190D01*
X16099286Y-17660238D01*
X16099286Y-17717381D01*
X16089762Y-17736429D01*
X16080238Y-17745952D01*
X16061190Y-17755476D01*
X16023095Y-17755476D01*
X16004048Y-17745952D01*
X16213571Y-17755476D02*
X16194524Y-17745952D01*
X16185000Y-17726905D01*
X16185000Y-17555476D01*
X16375476Y-17755476D02*
X16375476Y-17650714D01*
X16365952Y-17631667D01*
X16346905Y-17622143D01*
X16308809Y-17622143D01*
X16289762Y-17631667D01*
X16375476Y-17745952D02*
X16356428Y-17755476D01*
X16308809Y-17755476D01*
X16289762Y-17745952D01*
X16280238Y-17726905D01*
X16280238Y-17707857D01*
X16289762Y-17688810D01*
X16308809Y-17679286D01*
X16356428Y-17679286D01*
X16375476Y-17669762D01*
X16442143Y-17622143D02*
X16518333Y-17622143D01*
X16470714Y-17555476D02*
X16470714Y-17726905D01*
X16480238Y-17745952D01*
X16499286Y-17755476D01*
X16518333Y-17755476D01*
X16661190Y-17745952D02*
X16642143Y-17755476D01*
X16604048Y-17755476D01*
X16585000Y-17745952D01*
X16575476Y-17726905D01*
X16575476Y-17650714D01*
X16585000Y-17631667D01*
X16604048Y-17622143D01*
X16642143Y-17622143D01*
X16661190Y-17631667D01*
X16670714Y-17650714D01*
X16670714Y-17669762D01*
X16575476Y-17688810D01*
X16842143Y-17755476D02*
X16842143Y-17555476D01*
X16842143Y-17745952D02*
X16823095Y-17755476D01*
X16785000Y-17755476D01*
X16765952Y-17745952D01*
X16756428Y-17736429D01*
X16746905Y-17717381D01*
X16746905Y-17660238D01*
X16756428Y-17641190D01*
X16765952Y-17631667D01*
X16785000Y-17622143D01*
X16823095Y-17622143D01*
X16842143Y-17631667D01*
X16918333Y-17831667D02*
X16927857Y-17822143D01*
X16946905Y-17793571D01*
X16956429Y-17774524D01*
X16965952Y-17745952D01*
X16975476Y-17698333D01*
X16975476Y-17660238D01*
X16965952Y-17612619D01*
X16956429Y-17584048D01*
X16946905Y-17565000D01*
X16927857Y-17536429D01*
X16918333Y-17526905D01*
X9975000Y-17985000D02*
G75*
G03*
X9975000Y-17985000I-100000J0D01*
G01*
X10213571Y-17875476D02*
X10337381Y-17875476D01*
X10270714Y-17951667D01*
X10299286Y-17951667D01*
X10318333Y-17961190D01*
X10327857Y-17970714D01*
X10337381Y-17989762D01*
X10337381Y-18037381D01*
X10327857Y-18056429D01*
X10318333Y-18065952D01*
X10299286Y-18075476D01*
X10242143Y-18075476D01*
X10223095Y-18065952D01*
X10213571Y-18056429D01*
X10423095Y-18056429D02*
X10432619Y-18065952D01*
X10423095Y-18075476D01*
X10413571Y-18065952D01*
X10423095Y-18056429D01*
X10423095Y-18075476D01*
X10508810Y-17894524D02*
X10518333Y-17885000D01*
X10537381Y-17875476D01*
X10585000Y-17875476D01*
X10604048Y-17885000D01*
X10613571Y-17894524D01*
X10623095Y-17913571D01*
X10623095Y-17932619D01*
X10613571Y-17961190D01*
X10499286Y-18075476D01*
X10623095Y-18075476D01*
X10746905Y-17875476D02*
X10765952Y-17875476D01*
X10785000Y-17885000D01*
X10794524Y-17894524D01*
X10804048Y-17913571D01*
X10813571Y-17951667D01*
X10813571Y-17999286D01*
X10804048Y-18037381D01*
X10794524Y-18056429D01*
X10785000Y-18065952D01*
X10765952Y-18075476D01*
X10746905Y-18075476D01*
X10727857Y-18065952D01*
X10718333Y-18056429D01*
X10708810Y-18037381D01*
X10699286Y-17999286D01*
X10699286Y-17951667D01*
X10708810Y-17913571D01*
X10718333Y-17894524D01*
X10727857Y-17885000D01*
X10746905Y-17875476D01*
X10937381Y-17875476D02*
X10956429Y-17875476D01*
X10975476Y-17885000D01*
X10985000Y-17894524D01*
X10994524Y-17913571D01*
X11004048Y-17951667D01*
X11004048Y-17999286D01*
X10994524Y-18037381D01*
X10985000Y-18056429D01*
X10975476Y-18065952D01*
X10956429Y-18075476D01*
X10937381Y-18075476D01*
X10918333Y-18065952D01*
X10908810Y-18056429D01*
X10899286Y-18037381D01*
X10889762Y-17999286D01*
X10889762Y-17951667D01*
X10899286Y-17913571D01*
X10908810Y-17894524D01*
X10918333Y-17885000D01*
X10937381Y-17875476D01*
X11089762Y-18075476D02*
X11089762Y-17942143D01*
X11089762Y-17961190D02*
X11099286Y-17951667D01*
X11118333Y-17942143D01*
X11146905Y-17942143D01*
X11165952Y-17951667D01*
X11175476Y-17970714D01*
X11175476Y-18075476D01*
X11175476Y-17970714D02*
X11185000Y-17951667D01*
X11204048Y-17942143D01*
X11232619Y-17942143D01*
X11251667Y-17951667D01*
X11261190Y-17970714D01*
X11261190Y-18075476D01*
X11356428Y-18075476D02*
X11356428Y-17942143D01*
X11356428Y-17961190D02*
X11365952Y-17951667D01*
X11385000Y-17942143D01*
X11413571Y-17942143D01*
X11432619Y-17951667D01*
X11442143Y-17970714D01*
X11442143Y-18075476D01*
X11442143Y-17970714D02*
X11451667Y-17951667D01*
X11470714Y-17942143D01*
X11499286Y-17942143D01*
X11518333Y-17951667D01*
X11527857Y-17970714D01*
X11527857Y-18075476D01*
X11918333Y-17865952D02*
X11746905Y-18123095D01*
X12175476Y-17875476D02*
X12194524Y-17875476D01*
X12213571Y-17885000D01*
X12223095Y-17894524D01*
X12232619Y-17913571D01*
X12242143Y-17951667D01*
X12242143Y-17999286D01*
X12232619Y-18037381D01*
X12223095Y-18056429D01*
X12213571Y-18065952D01*
X12194524Y-18075476D01*
X12175476Y-18075476D01*
X12156428Y-18065952D01*
X12146905Y-18056429D01*
X12137381Y-18037381D01*
X12127857Y-17999286D01*
X12127857Y-17951667D01*
X12137381Y-17913571D01*
X12146905Y-17894524D01*
X12156428Y-17885000D01*
X12175476Y-17875476D01*
X12327857Y-18056429D02*
X12337381Y-18065952D01*
X12327857Y-18075476D01*
X12318333Y-18065952D01*
X12327857Y-18056429D01*
X12327857Y-18075476D01*
X12527857Y-18075476D02*
X12413571Y-18075476D01*
X12470714Y-18075476D02*
X12470714Y-17875476D01*
X12451667Y-17904048D01*
X12432619Y-17923095D01*
X12413571Y-17932619D01*
X12604048Y-17894524D02*
X12613571Y-17885000D01*
X12632619Y-17875476D01*
X12680238Y-17875476D01*
X12699286Y-17885000D01*
X12708809Y-17894524D01*
X12718333Y-17913571D01*
X12718333Y-17932619D01*
X12708809Y-17961190D01*
X12594524Y-18075476D01*
X12718333Y-18075476D01*
X12889762Y-17875476D02*
X12851667Y-17875476D01*
X12832619Y-17885000D01*
X12823095Y-17894524D01*
X12804048Y-17923095D01*
X12794524Y-17961190D01*
X12794524Y-18037381D01*
X12804048Y-18056429D01*
X12813571Y-18065952D01*
X12832619Y-18075476D01*
X12870714Y-18075476D01*
X12889762Y-18065952D01*
X12899286Y-18056429D01*
X12908809Y-18037381D01*
X12908809Y-17989762D01*
X12899286Y-17970714D01*
X12889762Y-17961190D01*
X12870714Y-17951667D01*
X12832619Y-17951667D01*
X12813571Y-17961190D01*
X12804048Y-17970714D01*
X12794524Y-17989762D01*
X13032619Y-17875476D02*
X13051667Y-17875476D01*
X13070714Y-17885000D01*
X13080238Y-17894524D01*
X13089762Y-17913571D01*
X13099286Y-17951667D01*
X13099286Y-17999286D01*
X13089762Y-18037381D01*
X13080238Y-18056429D01*
X13070714Y-18065952D01*
X13051667Y-18075476D01*
X13032619Y-18075476D01*
X13013571Y-18065952D01*
X13004048Y-18056429D01*
X12994524Y-18037381D01*
X12985000Y-17999286D01*
X12985000Y-17951667D01*
X12994524Y-17913571D01*
X13004048Y-17894524D01*
X13013571Y-17885000D01*
X13032619Y-17875476D01*
X13175476Y-17875476D02*
X13175476Y-17913571D01*
X13251667Y-17875476D02*
X13251667Y-17913571D01*
X13546905Y-18151667D02*
X13537381Y-18142143D01*
X13518333Y-18113571D01*
X13508809Y-18094524D01*
X13499286Y-18065952D01*
X13489762Y-18018333D01*
X13489762Y-17980238D01*
X13499286Y-17932619D01*
X13508809Y-17904048D01*
X13518333Y-17885000D01*
X13537381Y-17856429D01*
X13546905Y-17846905D01*
X13708809Y-17942143D02*
X13708809Y-18075476D01*
X13661190Y-17865952D02*
X13613571Y-18008810D01*
X13737381Y-18008810D01*
X13965952Y-18075476D02*
X13965952Y-17875476D01*
X14051667Y-18075476D02*
X14051667Y-17970714D01*
X14042143Y-17951667D01*
X14023095Y-17942143D01*
X13994524Y-17942143D01*
X13975476Y-17951667D01*
X13965952Y-17961190D01*
X14175476Y-18075476D02*
X14156428Y-18065952D01*
X14146905Y-18056429D01*
X14137381Y-18037381D01*
X14137381Y-17980238D01*
X14146905Y-17961190D01*
X14156428Y-17951667D01*
X14175476Y-17942143D01*
X14204048Y-17942143D01*
X14223095Y-17951667D01*
X14232619Y-17961190D01*
X14242143Y-17980238D01*
X14242143Y-18037381D01*
X14232619Y-18056429D01*
X14223095Y-18065952D01*
X14204048Y-18075476D01*
X14175476Y-18075476D01*
X14356428Y-18075476D02*
X14337381Y-18065952D01*
X14327857Y-18046905D01*
X14327857Y-17875476D01*
X14508809Y-18065952D02*
X14489762Y-18075476D01*
X14451667Y-18075476D01*
X14432619Y-18065952D01*
X14423095Y-18046905D01*
X14423095Y-17970714D01*
X14432619Y-17951667D01*
X14451667Y-17942143D01*
X14489762Y-17942143D01*
X14508809Y-17951667D01*
X14518333Y-17970714D01*
X14518333Y-17989762D01*
X14423095Y-18008810D01*
X14594524Y-18065952D02*
X14613571Y-18075476D01*
X14651667Y-18075476D01*
X14670714Y-18065952D01*
X14680238Y-18046905D01*
X14680238Y-18037381D01*
X14670714Y-18018333D01*
X14651667Y-18008810D01*
X14623095Y-18008810D01*
X14604048Y-17999286D01*
X14594524Y-17980238D01*
X14594524Y-17970714D01*
X14604048Y-17951667D01*
X14623095Y-17942143D01*
X14651667Y-17942143D01*
X14670714Y-17951667D01*
X14746905Y-18151667D02*
X14756428Y-18142143D01*
X14775476Y-18113571D01*
X14785000Y-18094524D01*
X14794524Y-18065952D01*
X14804048Y-18018333D01*
X14804048Y-17980238D01*
X14794524Y-17932619D01*
X14785000Y-17904048D01*
X14775476Y-17885000D01*
X14756428Y-17856429D01*
X14746905Y-17846905D01*
X15108809Y-18151667D02*
X15099286Y-18142143D01*
X15080238Y-18113571D01*
X15070714Y-18094524D01*
X15061190Y-18065952D01*
X15051667Y-18018333D01*
X15051667Y-17980238D01*
X15061190Y-17932619D01*
X15070714Y-17904048D01*
X15080238Y-17885000D01*
X15099286Y-17856429D01*
X15108809Y-17846905D01*
X15185000Y-17942143D02*
X15185000Y-18075476D01*
X15185000Y-17961190D02*
X15194524Y-17951667D01*
X15213571Y-17942143D01*
X15242143Y-17942143D01*
X15261190Y-17951667D01*
X15270714Y-17970714D01*
X15270714Y-18075476D01*
X15394524Y-18075476D02*
X15375476Y-18065952D01*
X15365952Y-18056429D01*
X15356428Y-18037381D01*
X15356428Y-17980238D01*
X15365952Y-17961190D01*
X15375476Y-17951667D01*
X15394524Y-17942143D01*
X15423095Y-17942143D01*
X15442143Y-17951667D01*
X15451667Y-17961190D01*
X15461190Y-17980238D01*
X15461190Y-18037381D01*
X15451667Y-18056429D01*
X15442143Y-18065952D01*
X15423095Y-18075476D01*
X15394524Y-18075476D01*
X15518333Y-17942143D02*
X15594524Y-17942143D01*
X15546905Y-17875476D02*
X15546905Y-18046905D01*
X15556428Y-18065952D01*
X15575476Y-18075476D01*
X15594524Y-18075476D01*
X15813571Y-17942143D02*
X15813571Y-18142143D01*
X15813571Y-17951667D02*
X15832619Y-17942143D01*
X15870714Y-17942143D01*
X15889762Y-17951667D01*
X15899286Y-17961190D01*
X15908809Y-17980238D01*
X15908809Y-18037381D01*
X15899286Y-18056429D01*
X15889762Y-18065952D01*
X15870714Y-18075476D01*
X15832619Y-18075476D01*
X15813571Y-18065952D01*
X16023095Y-18075476D02*
X16004048Y-18065952D01*
X15994524Y-18046905D01*
X15994524Y-17875476D01*
X16185000Y-18075476D02*
X16185000Y-17970714D01*
X16175476Y-17951667D01*
X16156428Y-17942143D01*
X16118333Y-17942143D01*
X16099286Y-17951667D01*
X16185000Y-18065952D02*
X16165952Y-18075476D01*
X16118333Y-18075476D01*
X16099286Y-18065952D01*
X16089762Y-18046905D01*
X16089762Y-18027857D01*
X16099286Y-18008810D01*
X16118333Y-17999286D01*
X16165952Y-17999286D01*
X16185000Y-17989762D01*
X16251667Y-17942143D02*
X16327857Y-17942143D01*
X16280238Y-17875476D02*
X16280238Y-18046905D01*
X16289762Y-18065952D01*
X16308809Y-18075476D01*
X16327857Y-18075476D01*
X16470714Y-18065952D02*
X16451667Y-18075476D01*
X16413571Y-18075476D01*
X16394524Y-18065952D01*
X16385000Y-18046905D01*
X16385000Y-17970714D01*
X16394524Y-17951667D01*
X16413571Y-17942143D01*
X16451667Y-17942143D01*
X16470714Y-17951667D01*
X16480238Y-17970714D01*
X16480238Y-17989762D01*
X16385000Y-18008810D01*
X16651667Y-18075476D02*
X16651667Y-17875476D01*
X16651667Y-18065952D02*
X16632619Y-18075476D01*
X16594524Y-18075476D01*
X16575476Y-18065952D01*
X16565952Y-18056429D01*
X16556428Y-18037381D01*
X16556428Y-17980238D01*
X16565952Y-17961190D01*
X16575476Y-17951667D01*
X16594524Y-17942143D01*
X16632619Y-17942143D01*
X16651667Y-17951667D01*
X16727857Y-18151667D02*
X16737381Y-18142143D01*
X16756428Y-18113571D01*
X16765952Y-18094524D01*
X16775476Y-18065952D01*
X16785000Y-18018333D01*
X16785000Y-17980238D01*
X16775476Y-17932619D01*
X16765952Y-17904048D01*
X16756428Y-17885000D01*
X16737381Y-17856429D01*
X16727857Y-17846905D01*
M02*
