%TF.GenerationSoftware,KiCad,Pcbnew,(5.1.10-1-10_14)*%
%TF.CreationDate,2022-02-09T21:11:09+00:00*%
%TF.ProjectId,RJ21_RJ45_PRIMARY_BREAKOUT,524a3231-5f52-44a3-9435-5f5052494d41,rev?*%
%TF.SameCoordinates,Original*%
%TF.FileFunction,Legend,Top*%
%TF.FilePolarity,Positive*%
%FSLAX46Y46*%
G04 Gerber Fmt 4.6, Leading zero omitted, Abs format (unit mm)*
G04 Created by KiCad (PCBNEW (5.1.10-1-10_14)) date 2022-02-09 21:11:09*
%MOMM*%
%LPD*%
G01*
G04 APERTURE LIST*
%ADD10C,0.500000*%
%ADD11C,0.600000*%
%ADD12C,0.700000*%
%ADD13C,2.000000*%
%ADD14C,0.010000*%
%ADD15C,0.400000*%
%ADD16C,3.200000*%
%ADD17C,3.100000*%
%ADD18C,1.600000*%
%ADD19C,4.500000*%
%ADD20C,1.500000*%
G04 APERTURE END LIST*
D10*
X111309523Y-153404761D02*
X111309523Y-151404761D01*
X111785714Y-151404761D01*
X112071428Y-151500000D01*
X112261904Y-151690476D01*
X112357142Y-151880952D01*
X112452380Y-152261904D01*
X112452380Y-152547619D01*
X112357142Y-152928571D01*
X112261904Y-153119047D01*
X112071428Y-153309523D01*
X111785714Y-153404761D01*
X111309523Y-153404761D01*
X113309523Y-151404761D02*
X113309523Y-153023809D01*
X113404761Y-153214285D01*
X113500000Y-153309523D01*
X113690476Y-153404761D01*
X114071428Y-153404761D01*
X114261904Y-153309523D01*
X114357142Y-153214285D01*
X114452380Y-153023809D01*
X114452380Y-151404761D01*
X116547619Y-153214285D02*
X116452380Y-153309523D01*
X116166666Y-153404761D01*
X115976190Y-153404761D01*
X115690476Y-153309523D01*
X115500000Y-153119047D01*
X115404761Y-152928571D01*
X115309523Y-152547619D01*
X115309523Y-152261904D01*
X115404761Y-151880952D01*
X115500000Y-151690476D01*
X115690476Y-151500000D01*
X115976190Y-151404761D01*
X116166666Y-151404761D01*
X116452380Y-151500000D01*
X116547619Y-151595238D01*
X117404761Y-153404761D02*
X117404761Y-151404761D01*
X118547619Y-153404761D02*
X117690476Y-152261904D01*
X118547619Y-151404761D02*
X117404761Y-152547619D01*
X119119047Y-151404761D02*
X120261904Y-151404761D01*
X119690476Y-153404761D02*
X119690476Y-151404761D01*
X120928571Y-152357142D02*
X121595238Y-152357142D01*
X121880952Y-153404761D02*
X120928571Y-153404761D01*
X120928571Y-151404761D01*
X121880952Y-151404761D01*
X123690476Y-153404761D02*
X122738095Y-153404761D01*
X122738095Y-151404761D01*
X124357142Y-152357142D02*
X125023809Y-152357142D01*
X125309523Y-153404761D02*
X124357142Y-153404761D01*
X124357142Y-151404761D01*
X125309523Y-151404761D01*
X127309523Y-153214285D02*
X127214285Y-153309523D01*
X126928571Y-153404761D01*
X126738095Y-153404761D01*
X126452380Y-153309523D01*
X126261904Y-153119047D01*
X126166666Y-152928571D01*
X126071428Y-152547619D01*
X126071428Y-152261904D01*
X126166666Y-151880952D01*
X126261904Y-151690476D01*
X126452380Y-151500000D01*
X126738095Y-151404761D01*
X126928571Y-151404761D01*
X127214285Y-151500000D01*
X127309523Y-151595238D01*
X128547619Y-151404761D02*
X128928571Y-151404761D01*
X129119047Y-151500000D01*
X129309523Y-151690476D01*
X129404761Y-152071428D01*
X129404761Y-152738095D01*
X129309523Y-153119047D01*
X129119047Y-153309523D01*
X128928571Y-153404761D01*
X128547619Y-153404761D01*
X128357142Y-153309523D01*
X128166666Y-153119047D01*
X128071428Y-152738095D01*
X128071428Y-152071428D01*
X128166666Y-151690476D01*
X128357142Y-151500000D01*
X128547619Y-151404761D01*
X130261904Y-153404761D02*
X130261904Y-151404761D01*
X130928571Y-152833333D01*
X131595238Y-151404761D01*
X131595238Y-153404761D01*
X132547619Y-153214285D02*
X132642857Y-153309523D01*
X132547619Y-153404761D01*
X132452380Y-153309523D01*
X132547619Y-153214285D01*
X132547619Y-153404761D01*
X134642857Y-153214285D02*
X134547619Y-153309523D01*
X134261904Y-153404761D01*
X134071428Y-153404761D01*
X133785714Y-153309523D01*
X133595238Y-153119047D01*
X133500000Y-152928571D01*
X133404761Y-152547619D01*
X133404761Y-152261904D01*
X133500000Y-151880952D01*
X133595238Y-151690476D01*
X133785714Y-151500000D01*
X134071428Y-151404761D01*
X134261904Y-151404761D01*
X134547619Y-151500000D01*
X134642857Y-151595238D01*
X135880952Y-151404761D02*
X136261904Y-151404761D01*
X136452380Y-151500000D01*
X136642857Y-151690476D01*
X136738095Y-152071428D01*
X136738095Y-152738095D01*
X136642857Y-153119047D01*
X136452380Y-153309523D01*
X136261904Y-153404761D01*
X135880952Y-153404761D01*
X135690476Y-153309523D01*
X135500000Y-153119047D01*
X135404761Y-152738095D01*
X135404761Y-152071428D01*
X135500000Y-151690476D01*
X135690476Y-151500000D01*
X135880952Y-151404761D01*
X137595238Y-153214285D02*
X137690476Y-153309523D01*
X137595238Y-153404761D01*
X137500000Y-153309523D01*
X137595238Y-153214285D01*
X137595238Y-153404761D01*
X138547619Y-151404761D02*
X138547619Y-153023809D01*
X138642857Y-153214285D01*
X138738095Y-153309523D01*
X138928571Y-153404761D01*
X139309523Y-153404761D01*
X139500000Y-153309523D01*
X139595238Y-153214285D01*
X139690476Y-153023809D01*
X139690476Y-151404761D01*
X140642857Y-153404761D02*
X140642857Y-151404761D01*
X141785714Y-153404761D02*
X140928571Y-152261904D01*
X141785714Y-151404761D02*
X140642857Y-152547619D01*
X124142857Y-155571428D02*
X124619047Y-156904761D01*
X125095238Y-155571428D01*
X126238095Y-154904761D02*
X126428571Y-154904761D01*
X126619047Y-155000000D01*
X126714285Y-155095238D01*
X126809523Y-155285714D01*
X126904761Y-155666666D01*
X126904761Y-156142857D01*
X126809523Y-156523809D01*
X126714285Y-156714285D01*
X126619047Y-156809523D01*
X126428571Y-156904761D01*
X126238095Y-156904761D01*
X126047619Y-156809523D01*
X125952380Y-156714285D01*
X125857142Y-156523809D01*
X125761904Y-156142857D01*
X125761904Y-155666666D01*
X125857142Y-155285714D01*
X125952380Y-155095238D01*
X126047619Y-155000000D01*
X126238095Y-154904761D01*
X127761904Y-156714285D02*
X127857142Y-156809523D01*
X127761904Y-156904761D01*
X127666666Y-156809523D01*
X127761904Y-156714285D01*
X127761904Y-156904761D01*
X129761904Y-156904761D02*
X128619047Y-156904761D01*
X129190476Y-156904761D02*
X129190476Y-154904761D01*
X129000000Y-155190476D01*
X128809523Y-155380952D01*
X128619047Y-155476190D01*
X112928571Y-149404761D02*
X112261904Y-148452380D01*
X111785714Y-149404761D02*
X111785714Y-147404761D01*
X112547619Y-147404761D01*
X112738095Y-147500000D01*
X112833333Y-147595238D01*
X112928571Y-147785714D01*
X112928571Y-148071428D01*
X112833333Y-148261904D01*
X112738095Y-148357142D01*
X112547619Y-148452380D01*
X111785714Y-148452380D01*
X114357142Y-147404761D02*
X114357142Y-148833333D01*
X114261904Y-149119047D01*
X114071428Y-149309523D01*
X113785714Y-149404761D01*
X113595238Y-149404761D01*
X115214285Y-147595238D02*
X115309523Y-147500000D01*
X115500000Y-147404761D01*
X115976190Y-147404761D01*
X116166666Y-147500000D01*
X116261904Y-147595238D01*
X116357142Y-147785714D01*
X116357142Y-147976190D01*
X116261904Y-148261904D01*
X115119047Y-149404761D01*
X116357142Y-149404761D01*
X118261904Y-149404761D02*
X117119047Y-149404761D01*
X117690476Y-149404761D02*
X117690476Y-147404761D01*
X117500000Y-147690476D01*
X117309523Y-147880952D01*
X117119047Y-147976190D01*
X118642857Y-149595238D02*
X120166666Y-149595238D01*
X121785714Y-149404761D02*
X121119047Y-148452380D01*
X120642857Y-149404761D02*
X120642857Y-147404761D01*
X121404761Y-147404761D01*
X121595238Y-147500000D01*
X121690476Y-147595238D01*
X121785714Y-147785714D01*
X121785714Y-148071428D01*
X121690476Y-148261904D01*
X121595238Y-148357142D01*
X121404761Y-148452380D01*
X120642857Y-148452380D01*
X123214285Y-147404761D02*
X123214285Y-148833333D01*
X123119047Y-149119047D01*
X122928571Y-149309523D01*
X122642857Y-149404761D01*
X122452380Y-149404761D01*
X125023809Y-148071428D02*
X125023809Y-149404761D01*
X124547619Y-147309523D02*
X124071428Y-148738095D01*
X125309523Y-148738095D01*
X127023809Y-147404761D02*
X126071428Y-147404761D01*
X125976190Y-148357142D01*
X126071428Y-148261904D01*
X126261904Y-148166666D01*
X126738095Y-148166666D01*
X126928571Y-148261904D01*
X127023809Y-148357142D01*
X127119047Y-148547619D01*
X127119047Y-149023809D01*
X127023809Y-149214285D01*
X126928571Y-149309523D01*
X126738095Y-149404761D01*
X126261904Y-149404761D01*
X126071428Y-149309523D01*
X125976190Y-149214285D01*
X127500000Y-149595238D02*
X129023809Y-149595238D01*
X129500000Y-149404761D02*
X129500000Y-147404761D01*
X130261904Y-147404761D01*
X130452380Y-147500000D01*
X130547619Y-147595238D01*
X130642857Y-147785714D01*
X130642857Y-148071428D01*
X130547619Y-148261904D01*
X130452380Y-148357142D01*
X130261904Y-148452380D01*
X129500000Y-148452380D01*
X132642857Y-149404761D02*
X131976190Y-148452380D01*
X131500000Y-149404761D02*
X131500000Y-147404761D01*
X132261904Y-147404761D01*
X132452380Y-147500000D01*
X132547619Y-147595238D01*
X132642857Y-147785714D01*
X132642857Y-148071428D01*
X132547619Y-148261904D01*
X132452380Y-148357142D01*
X132261904Y-148452380D01*
X131500000Y-148452380D01*
X133500000Y-149404761D02*
X133500000Y-147404761D01*
X134452380Y-149404761D02*
X134452380Y-147404761D01*
X135119047Y-148833333D01*
X135785714Y-147404761D01*
X135785714Y-149404761D01*
X136642857Y-148833333D02*
X137595238Y-148833333D01*
X136452380Y-149404761D02*
X137119047Y-147404761D01*
X137785714Y-149404761D01*
X139595238Y-149404761D02*
X138928571Y-148452380D01*
X138452380Y-149404761D02*
X138452380Y-147404761D01*
X139214285Y-147404761D01*
X139404761Y-147500000D01*
X139500000Y-147595238D01*
X139595238Y-147785714D01*
X139595238Y-148071428D01*
X139500000Y-148261904D01*
X139404761Y-148357142D01*
X139214285Y-148452380D01*
X138452380Y-148452380D01*
X140833333Y-148452380D02*
X140833333Y-149404761D01*
X140166666Y-147404761D02*
X140833333Y-148452380D01*
X141500000Y-147404761D01*
D11*
X110217040Y-114786589D02*
X110217040Y-113358017D01*
X110217040Y-114072303D02*
X112717040Y-114072303D01*
X112359897Y-113834208D01*
X112121802Y-113596112D01*
X112002754Y-113358017D01*
X112717040Y-115619922D02*
X112717040Y-117167541D01*
X111764659Y-116334208D01*
X111764659Y-116691351D01*
X111645612Y-116929446D01*
X111526564Y-117048493D01*
X111288469Y-117167541D01*
X110693231Y-117167541D01*
X110455135Y-117048493D01*
X110336088Y-116929446D01*
X110217040Y-116691351D01*
X110217040Y-115977065D01*
X110336088Y-115738970D01*
X110455135Y-115619922D01*
X111169421Y-118238970D02*
X111169421Y-120143731D01*
X110217040Y-122643731D02*
X110217040Y-121215160D01*
X110217040Y-121929446D02*
X112717040Y-121929446D01*
X112359897Y-121691351D01*
X112121802Y-121453255D01*
X112002754Y-121215160D01*
X112717040Y-124786589D02*
X112717040Y-124310398D01*
X112597993Y-124072303D01*
X112478945Y-123953255D01*
X112121802Y-123715160D01*
X111645612Y-123596112D01*
X110693231Y-123596112D01*
X110455135Y-123715160D01*
X110336088Y-123834208D01*
X110217040Y-124072303D01*
X110217040Y-124548493D01*
X110336088Y-124786589D01*
X110455135Y-124905636D01*
X110693231Y-125024684D01*
X111288469Y-125024684D01*
X111526564Y-124905636D01*
X111645612Y-124786589D01*
X111764659Y-124548493D01*
X111764659Y-124072303D01*
X111645612Y-123834208D01*
X111526564Y-123715160D01*
X111288469Y-123596112D01*
X110217040Y-96786589D02*
X110217040Y-95358017D01*
X110217040Y-96072303D02*
X112717040Y-96072303D01*
X112359897Y-95834208D01*
X112121802Y-95596112D01*
X112002754Y-95358017D01*
X112717040Y-97619922D02*
X112717040Y-99286589D01*
X110217040Y-98215160D01*
X111169421Y-100238970D02*
X111169421Y-102143731D01*
X112478945Y-103215160D02*
X112597993Y-103334208D01*
X112717040Y-103572303D01*
X112717040Y-104167541D01*
X112597993Y-104405636D01*
X112478945Y-104524684D01*
X112240850Y-104643731D01*
X112002754Y-104643731D01*
X111645612Y-104524684D01*
X110217040Y-103096112D01*
X110217040Y-104643731D01*
X112717040Y-106191351D02*
X112717040Y-106429446D01*
X112597993Y-106667541D01*
X112478945Y-106786589D01*
X112240850Y-106905636D01*
X111764659Y-107024684D01*
X111169421Y-107024684D01*
X110693231Y-106905636D01*
X110455135Y-106786589D01*
X110336088Y-106667541D01*
X110217040Y-106429446D01*
X110217040Y-106191351D01*
X110336088Y-105953255D01*
X110455135Y-105834208D01*
X110693231Y-105715160D01*
X111169421Y-105596112D01*
X111764659Y-105596112D01*
X112240850Y-105715160D01*
X112478945Y-105834208D01*
X112597993Y-105953255D01*
X112717040Y-106191351D01*
X112478945Y-77428017D02*
X112597993Y-77547065D01*
X112717040Y-77785160D01*
X112717040Y-78380398D01*
X112597993Y-78618493D01*
X112478945Y-78737541D01*
X112240850Y-78856589D01*
X112002754Y-78856589D01*
X111645612Y-78737541D01*
X110217040Y-77308970D01*
X110217040Y-78856589D01*
X110217040Y-81237541D02*
X110217040Y-79808970D01*
X110217040Y-80523255D02*
X112717040Y-80523255D01*
X112359897Y-80285160D01*
X112121802Y-80047065D01*
X112002754Y-79808970D01*
X111169421Y-82308970D02*
X111169421Y-84213731D01*
X112478945Y-85285160D02*
X112597993Y-85404208D01*
X112717040Y-85642303D01*
X112717040Y-86237541D01*
X112597993Y-86475636D01*
X112478945Y-86594684D01*
X112240850Y-86713731D01*
X112002754Y-86713731D01*
X111645612Y-86594684D01*
X110217040Y-85166112D01*
X110217040Y-86713731D01*
X111883707Y-88856589D02*
X110217040Y-88856589D01*
X112836088Y-88261351D02*
X111050373Y-87666112D01*
X111050373Y-89213731D01*
X157521054Y-151953255D02*
X157521054Y-152191351D01*
X157402007Y-152429446D01*
X157282959Y-152548493D01*
X157044864Y-152667541D01*
X156568673Y-152786589D01*
X155973435Y-152786589D01*
X155497245Y-152667541D01*
X155259149Y-152548493D01*
X155140102Y-152429446D01*
X155021054Y-152191351D01*
X155021054Y-151953255D01*
X155140102Y-151715160D01*
X155259149Y-151596112D01*
X155497245Y-151477065D01*
X155973435Y-151358017D01*
X156568673Y-151358017D01*
X157044864Y-151477065D01*
X157282959Y-151596112D01*
X157402007Y-151715160D01*
X157521054Y-151953255D01*
X156449626Y-154215160D02*
X156568673Y-153977065D01*
X156687721Y-153858017D01*
X156925816Y-153738970D01*
X157044864Y-153738970D01*
X157282959Y-153858017D01*
X157402007Y-153977065D01*
X157521054Y-154215160D01*
X157521054Y-154691351D01*
X157402007Y-154929446D01*
X157282959Y-155048493D01*
X157044864Y-155167541D01*
X156925816Y-155167541D01*
X156687721Y-155048493D01*
X156568673Y-154929446D01*
X156449626Y-154691351D01*
X156449626Y-154215160D01*
X156330578Y-153977065D01*
X156211530Y-153858017D01*
X155973435Y-153738970D01*
X155497245Y-153738970D01*
X155259149Y-153858017D01*
X155140102Y-153977065D01*
X155021054Y-154215160D01*
X155021054Y-154691351D01*
X155140102Y-154929446D01*
X155259149Y-155048493D01*
X155497245Y-155167541D01*
X155973435Y-155167541D01*
X156211530Y-155048493D01*
X156330578Y-154929446D01*
X156449626Y-154691351D01*
X155973435Y-156238970D02*
X155973435Y-158143731D01*
X155021054Y-160643731D02*
X155021054Y-159215160D01*
X155021054Y-159929446D02*
X157521054Y-159929446D01*
X157163911Y-159691351D01*
X156925816Y-159453255D01*
X156806768Y-159215160D01*
X157282959Y-161596112D02*
X157402007Y-161715160D01*
X157521054Y-161953255D01*
X157521054Y-162548493D01*
X157402007Y-162786589D01*
X157282959Y-162905636D01*
X157044864Y-163024684D01*
X156806768Y-163024684D01*
X156449626Y-162905636D01*
X155021054Y-161477065D01*
X155021054Y-163024684D01*
X176521054Y-151953255D02*
X176521054Y-152191351D01*
X176402007Y-152429446D01*
X176282959Y-152548493D01*
X176044864Y-152667541D01*
X175568673Y-152786589D01*
X174973435Y-152786589D01*
X174497245Y-152667541D01*
X174259149Y-152548493D01*
X174140102Y-152429446D01*
X174021054Y-152191351D01*
X174021054Y-151953255D01*
X174140102Y-151715160D01*
X174259149Y-151596112D01*
X174497245Y-151477065D01*
X174973435Y-151358017D01*
X175568673Y-151358017D01*
X176044864Y-151477065D01*
X176282959Y-151596112D01*
X176402007Y-151715160D01*
X176521054Y-151953255D01*
X176521054Y-155048493D02*
X176521054Y-153858017D01*
X175330578Y-153738970D01*
X175449626Y-153858017D01*
X175568673Y-154096112D01*
X175568673Y-154691351D01*
X175449626Y-154929446D01*
X175330578Y-155048493D01*
X175092483Y-155167541D01*
X174497245Y-155167541D01*
X174259149Y-155048493D01*
X174140102Y-154929446D01*
X174021054Y-154691351D01*
X174021054Y-154096112D01*
X174140102Y-153858017D01*
X174259149Y-153738970D01*
X174973435Y-156238970D02*
X174973435Y-158143731D01*
X176521054Y-159810398D02*
X176521054Y-160048493D01*
X176402007Y-160286589D01*
X176282959Y-160405636D01*
X176044864Y-160524684D01*
X175568673Y-160643731D01*
X174973435Y-160643731D01*
X174497245Y-160524684D01*
X174259149Y-160405636D01*
X174140102Y-160286589D01*
X174021054Y-160048493D01*
X174021054Y-159810398D01*
X174140102Y-159572303D01*
X174259149Y-159453255D01*
X174497245Y-159334208D01*
X174973435Y-159215160D01*
X175568673Y-159215160D01*
X176044864Y-159334208D01*
X176282959Y-159453255D01*
X176402007Y-159572303D01*
X176521054Y-159810398D01*
X175449626Y-162072303D02*
X175568673Y-161834208D01*
X175687721Y-161715160D01*
X175925816Y-161596112D01*
X176044864Y-161596112D01*
X176282959Y-161715160D01*
X176402007Y-161834208D01*
X176521054Y-162072303D01*
X176521054Y-162548493D01*
X176402007Y-162786589D01*
X176282959Y-162905636D01*
X176044864Y-163024684D01*
X175925816Y-163024684D01*
X175687721Y-162905636D01*
X175568673Y-162786589D01*
X175449626Y-162548493D01*
X175449626Y-162072303D01*
X175330578Y-161834208D01*
X175211530Y-161715160D01*
X174973435Y-161596112D01*
X174497245Y-161596112D01*
X174259149Y-161715160D01*
X174140102Y-161834208D01*
X174021054Y-162072303D01*
X174021054Y-162548493D01*
X174140102Y-162786589D01*
X174259149Y-162905636D01*
X174497245Y-163024684D01*
X174973435Y-163024684D01*
X175211530Y-162905636D01*
X175330578Y-162786589D01*
X175449626Y-162548493D01*
D12*
X141990850Y-92762779D02*
X141990850Y-94477065D01*
X138990850Y-93619922D02*
X141990850Y-93619922D01*
X138990850Y-97191351D02*
X140419421Y-96191351D01*
X138990850Y-95477065D02*
X141990850Y-95477065D01*
X141990850Y-96619922D01*
X141847993Y-96905636D01*
X141705135Y-97048493D01*
X141419421Y-97191351D01*
X140990850Y-97191351D01*
X140705135Y-97048493D01*
X140562278Y-96905636D01*
X140419421Y-96619922D01*
X140419421Y-95477065D01*
X141990850Y-98477065D02*
X139562278Y-98477065D01*
X139276564Y-98619922D01*
X139133707Y-98762779D01*
X138990850Y-99048493D01*
X138990850Y-99619922D01*
X139133707Y-99905636D01*
X139276564Y-100048493D01*
X139562278Y-100191351D01*
X141990850Y-100191351D01*
X138990850Y-101619922D02*
X141990850Y-101619922D01*
X138990850Y-103334208D01*
X141990850Y-103334208D01*
X138990850Y-104762779D02*
X141990850Y-104762779D01*
X138990850Y-106477065D02*
X140705135Y-105191351D01*
X141990850Y-106477065D02*
X140276564Y-104762779D01*
X139133707Y-107619922D02*
X138990850Y-108048493D01*
X138990850Y-108762779D01*
X139133707Y-109048493D01*
X139276564Y-109191351D01*
X139562278Y-109334208D01*
X139847993Y-109334208D01*
X140133707Y-109191351D01*
X140276564Y-109048493D01*
X140419421Y-108762779D01*
X140562278Y-108191351D01*
X140705135Y-107905636D01*
X140847993Y-107762779D01*
X141133707Y-107619922D01*
X141419421Y-107619922D01*
X141705135Y-107762779D01*
X141847993Y-107905636D01*
X141990850Y-108191351D01*
X141990850Y-108905636D01*
X141847993Y-109334208D01*
X207142857Y-107357142D02*
X207142857Y-105928571D01*
X210142857Y-105928571D01*
X207142857Y-108357142D02*
X210142857Y-108357142D01*
X207142857Y-109785714D02*
X210142857Y-109785714D01*
X207142857Y-111500000D01*
X210142857Y-111500000D01*
X208714285Y-112928571D02*
X208714285Y-113928571D01*
X207142857Y-114357142D02*
X207142857Y-112928571D01*
X210142857Y-112928571D01*
X210142857Y-114357142D01*
X207285714Y-115500000D02*
X207142857Y-115928571D01*
X207142857Y-116642857D01*
X207285714Y-116928571D01*
X207428571Y-117071428D01*
X207714285Y-117214285D01*
X208000000Y-117214285D01*
X208285714Y-117071428D01*
X208428571Y-116928571D01*
X208571428Y-116642857D01*
X208714285Y-116071428D01*
X208857142Y-115785714D01*
X209000000Y-115642857D01*
X209285714Y-115500000D01*
X209571428Y-115500000D01*
X209857142Y-115642857D01*
X210000000Y-115785714D01*
X210142857Y-116071428D01*
X210142857Y-116785714D01*
X210000000Y-117214285D01*
D13*
X136000000Y-128000000D02*
X115500000Y-128000000D01*
X136000000Y-73500000D02*
X115500000Y-73500000D01*
X115500000Y-128000000D02*
X115500000Y-73500000D01*
X136000000Y-128000000D02*
X136000000Y-73500000D01*
X145500000Y-148000000D02*
X145500000Y-73500000D01*
X204000000Y-148000000D02*
X204000000Y-73500000D01*
X145500000Y-148000000D02*
X204000000Y-148000000D01*
X145500000Y-73500000D02*
X204000000Y-73500000D01*
D11*
X195521054Y-151953255D02*
X195521054Y-152191351D01*
X195402007Y-152429446D01*
X195282959Y-152548493D01*
X195044864Y-152667541D01*
X194568673Y-152786589D01*
X193973435Y-152786589D01*
X193497245Y-152667541D01*
X193259149Y-152548493D01*
X193140102Y-152429446D01*
X193021054Y-152191351D01*
X193021054Y-151953255D01*
X193140102Y-151715160D01*
X193259149Y-151596112D01*
X193497245Y-151477065D01*
X193973435Y-151358017D01*
X194568673Y-151358017D01*
X195044864Y-151477065D01*
X195282959Y-151596112D01*
X195402007Y-151715160D01*
X195521054Y-151953255D01*
X193021054Y-155167541D02*
X193021054Y-153738970D01*
X193021054Y-154453255D02*
X195521054Y-154453255D01*
X195163911Y-154215160D01*
X194925816Y-153977065D01*
X194806768Y-153738970D01*
X193973435Y-156238970D02*
X193973435Y-158143731D01*
X195521054Y-159810398D02*
X195521054Y-160048493D01*
X195402007Y-160286589D01*
X195282959Y-160405636D01*
X195044864Y-160524684D01*
X194568673Y-160643731D01*
X193973435Y-160643731D01*
X193497245Y-160524684D01*
X193259149Y-160405636D01*
X193140102Y-160286589D01*
X193021054Y-160048493D01*
X193021054Y-159810398D01*
X193140102Y-159572303D01*
X193259149Y-159453255D01*
X193497245Y-159334208D01*
X193973435Y-159215160D01*
X194568673Y-159215160D01*
X195044864Y-159334208D01*
X195282959Y-159453255D01*
X195402007Y-159572303D01*
X195521054Y-159810398D01*
X194687721Y-162786589D02*
X193021054Y-162786589D01*
X195640102Y-162191351D02*
X193854387Y-161596112D01*
X193854387Y-163143731D01*
D14*
%TO.C,J1*%
G36*
X201745674Y-75402017D02*
G01*
X201745674Y-90938351D01*
X185532007Y-90938351D01*
X185532007Y-90811351D01*
X201639841Y-90811351D01*
X201639841Y-75507851D01*
X185532007Y-75507851D01*
X185532007Y-90811351D01*
X185532007Y-90938351D01*
X185405007Y-90938351D01*
X185405007Y-75402017D01*
X201745674Y-75402017D01*
G37*
X201745674Y-75402017D02*
X201745674Y-90938351D01*
X185532007Y-90938351D01*
X185532007Y-90811351D01*
X201639841Y-90811351D01*
X201639841Y-75507851D01*
X185532007Y-75507851D01*
X185532007Y-90811351D01*
X185532007Y-90938351D01*
X185405007Y-90938351D01*
X185405007Y-75402017D01*
X201745674Y-75402017D01*
%TO.C,J2*%
G36*
X201745674Y-93402017D02*
G01*
X201745674Y-108938351D01*
X185532007Y-108938351D01*
X185532007Y-108811351D01*
X201639841Y-108811351D01*
X201639841Y-93507851D01*
X185532007Y-93507851D01*
X185532007Y-108811351D01*
X185532007Y-108938351D01*
X185405007Y-108938351D01*
X185405007Y-93402017D01*
X201745674Y-93402017D01*
G37*
X201745674Y-93402017D02*
X201745674Y-108938351D01*
X185532007Y-108938351D01*
X185532007Y-108811351D01*
X201639841Y-108811351D01*
X201639841Y-93507851D01*
X185532007Y-93507851D01*
X185532007Y-108811351D01*
X185532007Y-108938351D01*
X185405007Y-108938351D01*
X185405007Y-93402017D01*
X201745674Y-93402017D01*
%TO.C,J3*%
G36*
X201745674Y-111402017D02*
G01*
X201745674Y-126938351D01*
X185532007Y-126938351D01*
X185532007Y-126811351D01*
X201639841Y-126811351D01*
X201639841Y-111507851D01*
X185532007Y-111507851D01*
X185532007Y-126811351D01*
X185532007Y-126938351D01*
X185405007Y-126938351D01*
X185405007Y-111402017D01*
X201745674Y-111402017D01*
G37*
X201745674Y-111402017D02*
X201745674Y-126938351D01*
X185532007Y-126938351D01*
X185532007Y-126811351D01*
X201639841Y-126811351D01*
X201639841Y-111507851D01*
X185532007Y-111507851D01*
X185532007Y-126811351D01*
X185532007Y-126938351D01*
X185405007Y-126938351D01*
X185405007Y-111402017D01*
X201745674Y-111402017D01*
%TO.C,J4*%
G36*
X201745674Y-129402017D02*
G01*
X201745674Y-144938351D01*
X185532007Y-144938351D01*
X185532007Y-144811351D01*
X201639841Y-144811351D01*
X201639841Y-129507851D01*
X185532007Y-129507851D01*
X185532007Y-144811351D01*
X185532007Y-144938351D01*
X185405007Y-144938351D01*
X185405007Y-129402017D01*
X201745674Y-129402017D01*
G37*
X201745674Y-129402017D02*
X201745674Y-144938351D01*
X185532007Y-144938351D01*
X185532007Y-144811351D01*
X201639841Y-144811351D01*
X201639841Y-129507851D01*
X185532007Y-129507851D01*
X185532007Y-144811351D01*
X185532007Y-144938351D01*
X185405007Y-144938351D01*
X185405007Y-129402017D01*
X201745674Y-129402017D01*
%TO.C,J5*%
G36*
X182745674Y-75472017D02*
G01*
X182745674Y-91008351D01*
X166532007Y-91008351D01*
X166532007Y-90881351D01*
X182639841Y-90881351D01*
X182639841Y-75577851D01*
X166532007Y-75577851D01*
X166532007Y-90881351D01*
X166532007Y-91008351D01*
X166405007Y-91008351D01*
X166405007Y-75472017D01*
X182745674Y-75472017D01*
G37*
X182745674Y-75472017D02*
X182745674Y-91008351D01*
X166532007Y-91008351D01*
X166532007Y-90881351D01*
X182639841Y-90881351D01*
X182639841Y-75577851D01*
X166532007Y-75577851D01*
X166532007Y-90881351D01*
X166532007Y-91008351D01*
X166405007Y-91008351D01*
X166405007Y-75472017D01*
X182745674Y-75472017D01*
%TO.C,J6*%
G36*
X182745674Y-93402017D02*
G01*
X182745674Y-108938351D01*
X166532007Y-108938351D01*
X166532007Y-108811351D01*
X182639841Y-108811351D01*
X182639841Y-93507851D01*
X166532007Y-93507851D01*
X166532007Y-108811351D01*
X166532007Y-108938351D01*
X166405007Y-108938351D01*
X166405007Y-93402017D01*
X182745674Y-93402017D01*
G37*
X182745674Y-93402017D02*
X182745674Y-108938351D01*
X166532007Y-108938351D01*
X166532007Y-108811351D01*
X182639841Y-108811351D01*
X182639841Y-93507851D01*
X166532007Y-93507851D01*
X166532007Y-108811351D01*
X166532007Y-108938351D01*
X166405007Y-108938351D01*
X166405007Y-93402017D01*
X182745674Y-93402017D01*
%TO.C,J7*%
G36*
X182745674Y-111402017D02*
G01*
X182745674Y-126938351D01*
X166532007Y-126938351D01*
X166532007Y-126811351D01*
X182639841Y-126811351D01*
X182639841Y-111507851D01*
X166532007Y-111507851D01*
X166532007Y-126811351D01*
X166532007Y-126938351D01*
X166405007Y-126938351D01*
X166405007Y-111402017D01*
X182745674Y-111402017D01*
G37*
X182745674Y-111402017D02*
X182745674Y-126938351D01*
X166532007Y-126938351D01*
X166532007Y-126811351D01*
X182639841Y-126811351D01*
X182639841Y-111507851D01*
X166532007Y-111507851D01*
X166532007Y-126811351D01*
X166532007Y-126938351D01*
X166405007Y-126938351D01*
X166405007Y-111402017D01*
X182745674Y-111402017D01*
%TO.C,J8*%
G36*
X182745674Y-129402017D02*
G01*
X182745674Y-144938351D01*
X166532007Y-144938351D01*
X166532007Y-144811351D01*
X182639841Y-144811351D01*
X182639841Y-129507851D01*
X166532007Y-129507851D01*
X166532007Y-144811351D01*
X166532007Y-144938351D01*
X166405007Y-144938351D01*
X166405007Y-129402017D01*
X182745674Y-129402017D01*
G37*
X182745674Y-129402017D02*
X182745674Y-144938351D01*
X166532007Y-144938351D01*
X166532007Y-144811351D01*
X182639841Y-144811351D01*
X182639841Y-129507851D01*
X166532007Y-129507851D01*
X166532007Y-144811351D01*
X166532007Y-144938351D01*
X166405007Y-144938351D01*
X166405007Y-129402017D01*
X182745674Y-129402017D01*
%TO.C,J9*%
G36*
X163745674Y-75472017D02*
G01*
X163745674Y-91008351D01*
X147532007Y-91008351D01*
X147532007Y-90881351D01*
X163639841Y-90881351D01*
X163639841Y-75577851D01*
X147532007Y-75577851D01*
X147532007Y-90881351D01*
X147532007Y-91008351D01*
X147405007Y-91008351D01*
X147405007Y-75472017D01*
X163745674Y-75472017D01*
G37*
X163745674Y-75472017D02*
X163745674Y-91008351D01*
X147532007Y-91008351D01*
X147532007Y-90881351D01*
X163639841Y-90881351D01*
X163639841Y-75577851D01*
X147532007Y-75577851D01*
X147532007Y-90881351D01*
X147532007Y-91008351D01*
X147405007Y-91008351D01*
X147405007Y-75472017D01*
X163745674Y-75472017D01*
%TO.C,J10*%
G36*
X163745674Y-93402017D02*
G01*
X163745674Y-108938351D01*
X147532007Y-108938351D01*
X147532007Y-108811351D01*
X163639841Y-108811351D01*
X163639841Y-93507851D01*
X147532007Y-93507851D01*
X147532007Y-108811351D01*
X147532007Y-108938351D01*
X147405007Y-108938351D01*
X147405007Y-93402017D01*
X163745674Y-93402017D01*
G37*
X163745674Y-93402017D02*
X163745674Y-108938351D01*
X147532007Y-108938351D01*
X147532007Y-108811351D01*
X163639841Y-108811351D01*
X163639841Y-93507851D01*
X147532007Y-93507851D01*
X147532007Y-108811351D01*
X147532007Y-108938351D01*
X147405007Y-108938351D01*
X147405007Y-93402017D01*
X163745674Y-93402017D01*
%TO.C,J11*%
G36*
X163745674Y-111402017D02*
G01*
X163745674Y-126938351D01*
X147532007Y-126938351D01*
X147532007Y-126811351D01*
X163639841Y-126811351D01*
X163639841Y-111507851D01*
X147532007Y-111507851D01*
X147532007Y-126811351D01*
X147532007Y-126938351D01*
X147405007Y-126938351D01*
X147405007Y-111402017D01*
X163745674Y-111402017D01*
G37*
X163745674Y-111402017D02*
X163745674Y-126938351D01*
X147532007Y-126938351D01*
X147532007Y-126811351D01*
X163639841Y-126811351D01*
X163639841Y-111507851D01*
X147532007Y-111507851D01*
X147532007Y-126811351D01*
X147532007Y-126938351D01*
X147405007Y-126938351D01*
X147405007Y-111402017D01*
X163745674Y-111402017D01*
%TO.C,J12*%
G36*
X163745674Y-129402017D02*
G01*
X163745674Y-144938351D01*
X147532007Y-144938351D01*
X147532007Y-144811351D01*
X163639841Y-144811351D01*
X163639841Y-129507851D01*
X147532007Y-129507851D01*
X147532007Y-144811351D01*
X147532007Y-144938351D01*
X147405007Y-144938351D01*
X147405007Y-129402017D01*
X163745674Y-129402017D01*
G37*
X163745674Y-129402017D02*
X163745674Y-144938351D01*
X147532007Y-144938351D01*
X147532007Y-144811351D01*
X163639841Y-144811351D01*
X163639841Y-129507851D01*
X147532007Y-129507851D01*
X147532007Y-144811351D01*
X147532007Y-144938351D01*
X147405007Y-144938351D01*
X147405007Y-129402017D01*
X163745674Y-129402017D01*
%TO.C,J13*%
G36*
X117754326Y-126980685D02*
G01*
X117754326Y-111444351D01*
X133967993Y-111444351D01*
X133967993Y-111571351D01*
X117860159Y-111571351D01*
X117860159Y-126874851D01*
X133967993Y-126874851D01*
X133967993Y-111571351D01*
X133967993Y-111444351D01*
X134094993Y-111444351D01*
X134094993Y-126980685D01*
X117754326Y-126980685D01*
G37*
X117754326Y-126980685D02*
X117754326Y-111444351D01*
X133967993Y-111444351D01*
X133967993Y-111571351D01*
X117860159Y-111571351D01*
X117860159Y-126874851D01*
X133967993Y-126874851D01*
X133967993Y-111571351D01*
X133967993Y-111444351D01*
X134094993Y-111444351D01*
X134094993Y-126980685D01*
X117754326Y-126980685D01*
%TO.C,J14*%
G36*
X117754326Y-108980685D02*
G01*
X117754326Y-93444351D01*
X133967993Y-93444351D01*
X133967993Y-93571351D01*
X117860159Y-93571351D01*
X117860159Y-108874851D01*
X133967993Y-108874851D01*
X133967993Y-93571351D01*
X133967993Y-93444351D01*
X134094993Y-93444351D01*
X134094993Y-108980685D01*
X117754326Y-108980685D01*
G37*
X117754326Y-108980685D02*
X117754326Y-93444351D01*
X133967993Y-93444351D01*
X133967993Y-93571351D01*
X117860159Y-93571351D01*
X117860159Y-108874851D01*
X133967993Y-108874851D01*
X133967993Y-93571351D01*
X133967993Y-93444351D01*
X134094993Y-93444351D01*
X134094993Y-108980685D01*
X117754326Y-108980685D01*
%TO.C,J15*%
G36*
X117754326Y-91050685D02*
G01*
X117754326Y-75514351D01*
X133967993Y-75514351D01*
X133967993Y-75641351D01*
X117860159Y-75641351D01*
X117860159Y-90944851D01*
X133967993Y-90944851D01*
X133967993Y-75641351D01*
X133967993Y-75514351D01*
X134094993Y-75514351D01*
X134094993Y-91050685D01*
X117754326Y-91050685D01*
G37*
X117754326Y-91050685D02*
X117754326Y-75514351D01*
X133967993Y-75514351D01*
X133967993Y-75641351D01*
X117860159Y-75641351D01*
X117860159Y-90944851D01*
X133967993Y-90944851D01*
X133967993Y-75641351D01*
X133967993Y-75514351D01*
X134094993Y-75514351D01*
X134094993Y-91050685D01*
X117754326Y-91050685D01*
%TO.C,J17*%
G36*
X200450164Y-65420160D02*
G01*
X117434497Y-65420160D01*
X117434497Y-50307160D01*
X117646164Y-50307160D01*
X117646164Y-65187327D01*
X200217331Y-65187327D01*
X200217331Y-50307160D01*
X117646164Y-50307160D01*
X117434497Y-50307160D01*
X117434497Y-50095493D01*
X200450164Y-50095493D01*
X200450164Y-65420160D01*
G37*
X200450164Y-65420160D02*
X117434497Y-65420160D01*
X117434497Y-50307160D01*
X117646164Y-50307160D01*
X117646164Y-65187327D01*
X200217331Y-65187327D01*
X200217331Y-50307160D01*
X117646164Y-50307160D01*
X117434497Y-50307160D01*
X117434497Y-50095493D01*
X200450164Y-50095493D01*
X200450164Y-65420160D01*
%TO.C,J16*%
G36*
X117754326Y-144980685D02*
G01*
X117754326Y-129444351D01*
X133967993Y-129444351D01*
X133967993Y-129571351D01*
X117860159Y-129571351D01*
X117860159Y-144874851D01*
X133967993Y-144874851D01*
X133967993Y-129571351D01*
X133967993Y-129444351D01*
X134094993Y-129444351D01*
X134094993Y-144980685D01*
X117754326Y-144980685D01*
G37*
X117754326Y-144980685D02*
X117754326Y-129444351D01*
X133967993Y-129444351D01*
X133967993Y-129571351D01*
X117860159Y-129571351D01*
X117860159Y-144874851D01*
X133967993Y-144874851D01*
X133967993Y-129571351D01*
X133967993Y-129444351D01*
X134094993Y-129444351D01*
X134094993Y-144980685D01*
X117754326Y-144980685D01*
%TO.C,J17*%
D15*
X146182857Y-51787142D02*
X146182857Y-53930000D01*
X146040000Y-54358571D01*
X145754285Y-54644285D01*
X145325714Y-54787142D01*
X145040000Y-54787142D01*
X149040000Y-54787142D02*
X147611428Y-54787142D01*
X147611428Y-51787142D01*
X151754285Y-54501428D02*
X151611428Y-54644285D01*
X151182857Y-54787142D01*
X150897142Y-54787142D01*
X150468571Y-54644285D01*
X150182857Y-54358571D01*
X150040000Y-54072857D01*
X149897142Y-53501428D01*
X149897142Y-53072857D01*
X150040000Y-52501428D01*
X150182857Y-52215714D01*
X150468571Y-51930000D01*
X150897142Y-51787142D01*
X151182857Y-51787142D01*
X151611428Y-51930000D01*
X151754285Y-52072857D01*
X153897142Y-51787142D02*
X153897142Y-53930000D01*
X153754285Y-54358571D01*
X153468571Y-54644285D01*
X153040000Y-54787142D01*
X152754285Y-54787142D01*
X156754285Y-54787142D02*
X155325714Y-54787142D01*
X155325714Y-51787142D01*
X159468571Y-54501428D02*
X159325714Y-54644285D01*
X158897142Y-54787142D01*
X158611428Y-54787142D01*
X158182857Y-54644285D01*
X157897142Y-54358571D01*
X157754285Y-54072857D01*
X157611428Y-53501428D01*
X157611428Y-53072857D01*
X157754285Y-52501428D01*
X157897142Y-52215714D01*
X158182857Y-51930000D01*
X158611428Y-51787142D01*
X158897142Y-51787142D01*
X159325714Y-51930000D01*
X159468571Y-52072857D01*
X161611428Y-51787142D02*
X161611428Y-53930000D01*
X161468571Y-54358571D01*
X161182857Y-54644285D01*
X160754285Y-54787142D01*
X160468571Y-54787142D01*
X164468571Y-54787142D02*
X163040000Y-54787142D01*
X163040000Y-51787142D01*
X167182857Y-54501428D02*
X167040000Y-54644285D01*
X166611428Y-54787142D01*
X166325714Y-54787142D01*
X165897142Y-54644285D01*
X165611428Y-54358571D01*
X165468571Y-54072857D01*
X165325714Y-53501428D01*
X165325714Y-53072857D01*
X165468571Y-52501428D01*
X165611428Y-52215714D01*
X165897142Y-51930000D01*
X166325714Y-51787142D01*
X166611428Y-51787142D01*
X167040000Y-51930000D01*
X167182857Y-52072857D01*
X169325714Y-51787142D02*
X169325714Y-53930000D01*
X169182857Y-54358571D01*
X168897142Y-54644285D01*
X168468571Y-54787142D01*
X168182857Y-54787142D01*
X172182857Y-54787142D02*
X170754285Y-54787142D01*
X170754285Y-51787142D01*
X174897142Y-54501428D02*
X174754285Y-54644285D01*
X174325714Y-54787142D01*
X174040000Y-54787142D01*
X173611428Y-54644285D01*
X173325714Y-54358571D01*
X173182857Y-54072857D01*
X173040000Y-53501428D01*
X173040000Y-53072857D01*
X173182857Y-52501428D01*
X173325714Y-52215714D01*
X173611428Y-51930000D01*
X174040000Y-51787142D01*
X174325714Y-51787142D01*
X174754285Y-51930000D01*
X174897142Y-52072857D01*
%TD*%
%LPC*%
D16*
%TO.C,REF\u002A\u002A*%
X110000000Y-160000000D03*
%TD*%
%TO.C,REF\u002A\u002A*%
X210000000Y-160000000D03*
%TD*%
%TO.C,REF\u002A\u002A*%
X210000000Y-60000000D03*
%TD*%
%TO.C,REF\u002A\u002A*%
X110000000Y-60000000D03*
%TD*%
D17*
%TO.C,J1*%
X195500000Y-88930000D03*
X195500000Y-77500000D03*
D18*
X189150002Y-80040001D03*
X189150002Y-82580002D03*
X189150002Y-85120003D03*
X189150002Y-87660004D03*
X186610009Y-86390007D03*
X186610009Y-83850006D03*
X186610009Y-81310005D03*
X186610009Y-78770000D03*
%TD*%
D17*
%TO.C,J2*%
X195500000Y-106930000D03*
X195500000Y-95500000D03*
D18*
X189150002Y-98040001D03*
X189150002Y-100580002D03*
X189150002Y-103120003D03*
X189150002Y-105660004D03*
X186610009Y-104390007D03*
X186610009Y-101850006D03*
X186610009Y-99310005D03*
X186610009Y-96770000D03*
%TD*%
%TO.C,J3*%
X186610009Y-114770000D03*
X186610009Y-117310005D03*
X186610009Y-119850006D03*
X186610009Y-122390007D03*
X189150002Y-123660004D03*
X189150002Y-121120003D03*
X189150002Y-118580002D03*
X189150002Y-116040001D03*
D17*
X195000000Y-113000000D03*
X195500000Y-124930000D03*
%TD*%
%TO.C,J4*%
X195500000Y-142930000D03*
X195500000Y-131500000D03*
D18*
X189150002Y-134040001D03*
X189150002Y-136580002D03*
X189150002Y-139120003D03*
X189150002Y-141660004D03*
X186610009Y-140390007D03*
X186610009Y-137850006D03*
X186610009Y-135310005D03*
X186610009Y-132770000D03*
%TD*%
%TO.C,J5*%
X167610009Y-78840000D03*
X167610009Y-81380005D03*
X167610009Y-83920006D03*
X167610009Y-86460007D03*
X170150002Y-87730004D03*
X170150002Y-85190003D03*
X170150002Y-82650002D03*
X170150002Y-80110001D03*
D17*
X176500000Y-77570000D03*
X176500000Y-89000000D03*
%TD*%
%TO.C,J6*%
X176500000Y-106930000D03*
X176500000Y-95500000D03*
D18*
X170150002Y-98040001D03*
X170150002Y-100580002D03*
X170150002Y-103120003D03*
X170150002Y-105660004D03*
X167610009Y-104390007D03*
X167610009Y-101850006D03*
X167610009Y-99310005D03*
X167610009Y-96770000D03*
%TD*%
%TO.C,J7*%
X167610009Y-114770000D03*
X167610009Y-117310005D03*
X167610009Y-119850006D03*
X167610009Y-122390007D03*
X170150002Y-123660004D03*
X170150002Y-121120003D03*
X170150002Y-118580002D03*
X170150002Y-116040001D03*
D17*
X176500000Y-113500000D03*
X176500000Y-124930000D03*
%TD*%
%TO.C,J8*%
X176500000Y-142930000D03*
X176500000Y-131500000D03*
D18*
X170150002Y-134040001D03*
X170150002Y-136580002D03*
X170150002Y-139120003D03*
X170150002Y-141660004D03*
X167610009Y-140390007D03*
X167610009Y-137850006D03*
X167610009Y-135310005D03*
X167610009Y-132770000D03*
%TD*%
%TO.C,J9*%
X148610009Y-78840000D03*
X148610009Y-81380005D03*
X148610009Y-83920006D03*
X148610009Y-86460007D03*
X151150002Y-87730004D03*
X151150002Y-85190003D03*
X151150002Y-82650002D03*
X151150002Y-80110001D03*
D17*
X157500000Y-77570000D03*
X157500000Y-89000000D03*
%TD*%
%TO.C,J10*%
X157500000Y-106930000D03*
X157500000Y-95500000D03*
D18*
X151150002Y-98040001D03*
X151150002Y-100580002D03*
X151150002Y-103120003D03*
X151150002Y-105660004D03*
X148610009Y-104390007D03*
X148610009Y-101850006D03*
X148610009Y-99310005D03*
X148610009Y-96770000D03*
%TD*%
%TO.C,J11*%
X148610009Y-114770000D03*
X148610009Y-117310005D03*
X148610009Y-119850006D03*
X148610009Y-122390007D03*
X151150002Y-123660004D03*
X151150002Y-121120003D03*
X151150002Y-118580002D03*
X151150002Y-116040001D03*
D17*
X157500000Y-113500000D03*
X157500000Y-124930000D03*
%TD*%
%TO.C,J12*%
X157500000Y-142930000D03*
X157500000Y-131500000D03*
D18*
X151150002Y-134040001D03*
X151150002Y-136580002D03*
X151150002Y-139120003D03*
X151150002Y-141660004D03*
X148610009Y-140390007D03*
X148610009Y-137850006D03*
X148610009Y-135310005D03*
X148610009Y-132770000D03*
%TD*%
%TO.C,J13*%
X132889991Y-123612702D03*
X132889991Y-121072697D03*
X132889991Y-118532696D03*
X132889991Y-115992695D03*
X130349998Y-114722698D03*
X130349998Y-117262699D03*
X130349998Y-119802700D03*
X130349998Y-122342701D03*
D17*
X124000000Y-124882702D03*
X124000000Y-113452702D03*
%TD*%
%TO.C,J14*%
X124000000Y-95452702D03*
X124000000Y-106882702D03*
D18*
X130349998Y-104342701D03*
X130349998Y-101802700D03*
X130349998Y-99262699D03*
X130349998Y-96722698D03*
X132889991Y-97992695D03*
X132889991Y-100532696D03*
X132889991Y-103072697D03*
X132889991Y-105612702D03*
%TD*%
%TO.C,J15*%
X132889991Y-87682702D03*
X132889991Y-85142697D03*
X132889991Y-82602696D03*
X132889991Y-80062695D03*
X130349998Y-78792698D03*
X130349998Y-81332699D03*
X130349998Y-83872700D03*
X130349998Y-86412701D03*
D17*
X124000000Y-88952702D03*
X124000000Y-77522702D03*
%TD*%
D19*
%TO.C,J17*%
X121514994Y-60954995D03*
X196364994Y-60954995D03*
D20*
X133019948Y-58809999D03*
X135179952Y-58809999D03*
X133019948Y-63100000D03*
X135179952Y-63100000D03*
X137339955Y-58809999D03*
X139499959Y-58809999D03*
X137339955Y-63100000D03*
X139499959Y-63100000D03*
X141659963Y-58809999D03*
X143819970Y-58809999D03*
X141659963Y-63100000D03*
X143819970Y-63100000D03*
X145979974Y-58809999D03*
X148139978Y-58809999D03*
X145979974Y-63100000D03*
X148139978Y-63100000D03*
X150299981Y-58809999D03*
X152459985Y-58809999D03*
X150299981Y-63100000D03*
X152459985Y-63100000D03*
X154619989Y-58809999D03*
X156779992Y-58809999D03*
X154619989Y-63100000D03*
X156779992Y-63100000D03*
X158939996Y-58809999D03*
X161100000Y-58809999D03*
X158939996Y-63100000D03*
X161100000Y-63100000D03*
X163260019Y-58809999D03*
X165420015Y-58809999D03*
X163260019Y-63100000D03*
X165420015Y-63100000D03*
X167580026Y-58809999D03*
X169740018Y-58809999D03*
X167580026Y-63100000D03*
X169740018Y-63100000D03*
X171900022Y-58809999D03*
X174060025Y-58809999D03*
X171900022Y-63100000D03*
X174060025Y-63100000D03*
X176220029Y-58809999D03*
X178380033Y-58809999D03*
X176220029Y-63100000D03*
X178380033Y-63100000D03*
X180540029Y-58809999D03*
X182700032Y-58809999D03*
X180540029Y-63100000D03*
X182700032Y-63100000D03*
X184860036Y-58809999D03*
X184860036Y-63100000D03*
%TD*%
D17*
%TO.C,J16*%
X124000000Y-131452702D03*
X124000000Y-142882702D03*
D18*
X130349998Y-140342701D03*
X130349998Y-137802700D03*
X130349998Y-135262699D03*
X130349998Y-132722698D03*
X132889991Y-133992695D03*
X132889991Y-136532696D03*
X132889991Y-139072697D03*
X132889991Y-141612702D03*
%TD*%
M02*
