%FSLAX45Y45*%
G04 Gerber Fmt 4.5, Leading zero omitted, Abs format (unit mm)*
G04 Created by KiCad (PCBNEW (5.1.10-1-10_14)) date 2022-02-09 21:11:45*
%MOMM*%
%LPD*%
G01*
G04 APERTURE LIST*
%TA.AperFunction,Profile*%
%ADD10C,0.150000*%
%TD*%
%TA.AperFunction,Profile*%
%ADD11C,0.500000*%
%TD*%
%ADD12C,0.200000*%
%ADD13C,0.300000*%
G04 APERTURE END LIST*
D10*
X17550000Y-6650000D02*
G75*
G02*
X17550000Y-7150000I0J-250000D01*
G01*
X14550000Y-7150000D02*
G75*
G02*
X14550000Y-6650000I0J250000D01*
G01*
X14550000Y-7150000D02*
X17550000Y-7150000D01*
X14550000Y-6650000D02*
X17550000Y-6650000D01*
D11*
X21000000Y-5000000D02*
G75*
G02*
X22000000Y-6000000I0J-1000000D01*
G01*
X22000000Y-16000000D02*
G75*
G02*
X21000000Y-17000000I-1000000J0D01*
G01*
X11000000Y-17000000D02*
G75*
G02*
X10000000Y-16000000I0J1000000D01*
G01*
X10000000Y-6000000D02*
G75*
G02*
X11000000Y-5000000I1000000J0D01*
G01*
X11000000Y-5000000D02*
X21000000Y-5000000D01*
X10000000Y-6000000D02*
X10000000Y-16000000D01*
X21000000Y-17000000D02*
X11000000Y-17000000D01*
X22000000Y-6000000D02*
X22000000Y-16000000D01*
D12*
X16280000Y-8930000D02*
X16320000Y-8970000D01*
X16320000Y-8930000D02*
X16280000Y-8970000D01*
X16310000Y-9810000D02*
X16350000Y-9850000D01*
X16350000Y-9810000D02*
X16310000Y-9850000D01*
X16310000Y-11600000D02*
X16350000Y-11640000D01*
X16350000Y-11600000D02*
X16310000Y-11640000D01*
X16880000Y-11030000D02*
X16920000Y-11070000D01*
X16920000Y-11030000D02*
X16880000Y-11070000D01*
X17900000Y-8220000D02*
X17940000Y-8260000D01*
X17940000Y-8220000D02*
X17900000Y-8260000D01*
X17919999Y-8050000D02*
X17959999Y-8090000D01*
X17959999Y-8050000D02*
X17919999Y-8090000D01*
X18230000Y-7730000D02*
X18270000Y-7770000D01*
X18270000Y-7730000D02*
X18230000Y-7770000D01*
X18284999Y-7835887D02*
X18324999Y-7875887D01*
X18324999Y-7835887D02*
X18284999Y-7875887D01*
X18357499Y-7950711D02*
X18397499Y-7990711D01*
X18397499Y-7950711D02*
X18357499Y-7990711D01*
X18430000Y-8080000D02*
X18470000Y-8120000D01*
X18470000Y-8080000D02*
X18430000Y-8120000D01*
X13341995Y-5881000D02*
G75*
G03*
X13341995Y-5881000I-40000J0D01*
G01*
X13341995Y-6310000D02*
G75*
G03*
X13341995Y-6310000I-40000J0D01*
G01*
X13557995Y-5881000D02*
G75*
G03*
X13557995Y-5881000I-40000J0D01*
G01*
X13557995Y-6310000D02*
G75*
G03*
X13557995Y-6310000I-40000J0D01*
G01*
X13773995Y-5881000D02*
G75*
G03*
X13773995Y-5881000I-40000J0D01*
G01*
X13773995Y-6310000D02*
G75*
G03*
X13773995Y-6310000I-40000J0D01*
G01*
X13989996Y-5881000D02*
G75*
G03*
X13989996Y-5881000I-40000J0D01*
G01*
X13989996Y-6310000D02*
G75*
G03*
X13989996Y-6310000I-40000J0D01*
G01*
X14205996Y-5881000D02*
G75*
G03*
X14205996Y-5881000I-40000J0D01*
G01*
X14205996Y-6310000D02*
G75*
G03*
X14205996Y-6310000I-40000J0D01*
G01*
X14421997Y-5881000D02*
G75*
G03*
X14421997Y-5881000I-40000J0D01*
G01*
X14421997Y-6310000D02*
G75*
G03*
X14421997Y-6310000I-40000J0D01*
G01*
X14637997Y-5881000D02*
G75*
G03*
X14637997Y-5881000I-40000J0D01*
G01*
X14637997Y-6310000D02*
G75*
G03*
X14637997Y-6310000I-40000J0D01*
G01*
X14853998Y-5881000D02*
G75*
G03*
X14853998Y-5881000I-40000J0D01*
G01*
X14853998Y-6310000D02*
G75*
G03*
X14853998Y-6310000I-40000J0D01*
G01*
X15069998Y-5881000D02*
G75*
G03*
X15069998Y-5881000I-40000J0D01*
G01*
X15069998Y-6310000D02*
G75*
G03*
X15069998Y-6310000I-40000J0D01*
G01*
X15285998Y-5881000D02*
G75*
G03*
X15285998Y-5881000I-40000J0D01*
G01*
X15285998Y-6310000D02*
G75*
G03*
X15285998Y-6310000I-40000J0D01*
G01*
X15501999Y-5881000D02*
G75*
G03*
X15501999Y-5881000I-40000J0D01*
G01*
X15501999Y-6310000D02*
G75*
G03*
X15501999Y-6310000I-40000J0D01*
G01*
X15717999Y-5881000D02*
G75*
G03*
X15717999Y-5881000I-40000J0D01*
G01*
X15717999Y-6310000D02*
G75*
G03*
X15717999Y-6310000I-40000J0D01*
G01*
X15934000Y-5881000D02*
G75*
G03*
X15934000Y-5881000I-40000J0D01*
G01*
X15934000Y-6310000D02*
G75*
G03*
X15934000Y-6310000I-40000J0D01*
G01*
X16150000Y-5881000D02*
G75*
G03*
X16150000Y-5881000I-40000J0D01*
G01*
X16150000Y-6310000D02*
G75*
G03*
X16150000Y-6310000I-40000J0D01*
G01*
X16366002Y-5881000D02*
G75*
G03*
X16366002Y-5881000I-40000J0D01*
G01*
X16366002Y-6310000D02*
G75*
G03*
X16366002Y-6310000I-40000J0D01*
G01*
X16582001Y-5881000D02*
G75*
G03*
X16582001Y-5881000I-40000J0D01*
G01*
X16582001Y-6310000D02*
G75*
G03*
X16582001Y-6310000I-40000J0D01*
G01*
X16798003Y-5881000D02*
G75*
G03*
X16798003Y-5881000I-40000J0D01*
G01*
X16798003Y-6310000D02*
G75*
G03*
X16798003Y-6310000I-40000J0D01*
G01*
X17014002Y-5881000D02*
G75*
G03*
X17014002Y-5881000I-40000J0D01*
G01*
X17014002Y-6310000D02*
G75*
G03*
X17014002Y-6310000I-40000J0D01*
G01*
X17230002Y-5881000D02*
G75*
G03*
X17230002Y-5881000I-40000J0D01*
G01*
X17230002Y-6310000D02*
G75*
G03*
X17230002Y-6310000I-40000J0D01*
G01*
X17446003Y-5881000D02*
G75*
G03*
X17446003Y-5881000I-40000J0D01*
G01*
X17446003Y-6310000D02*
G75*
G03*
X17446003Y-6310000I-40000J0D01*
G01*
X17662003Y-5881000D02*
G75*
G03*
X17662003Y-5881000I-40000J0D01*
G01*
X17662003Y-6310000D02*
G75*
G03*
X17662003Y-6310000I-40000J0D01*
G01*
X17878003Y-5881000D02*
G75*
G03*
X17878003Y-5881000I-40000J0D01*
G01*
X17878003Y-6310000D02*
G75*
G03*
X17878003Y-6310000I-40000J0D01*
G01*
X18094003Y-5881000D02*
G75*
G03*
X18094003Y-5881000I-40000J0D01*
G01*
X18094003Y-6310000D02*
G75*
G03*
X18094003Y-6310000I-40000J0D01*
G01*
X18310003Y-5881000D02*
G75*
G03*
X18310003Y-5881000I-40000J0D01*
G01*
X18310003Y-6310000D02*
G75*
G03*
X18310003Y-6310000I-40000J0D01*
G01*
X18526004Y-5881000D02*
G75*
G03*
X18526004Y-5881000I-40000J0D01*
G01*
X18526004Y-6310000D02*
G75*
G03*
X18526004Y-6310000I-40000J0D01*
G01*
X13035000Y-7834270D02*
X13035000Y-7924270D01*
X12990000Y-7879270D02*
X13080000Y-7879270D01*
X13035000Y-8088270D02*
X13035000Y-8178270D01*
X12990000Y-8133270D02*
X13080000Y-8133270D01*
X13035000Y-8342270D02*
X13035000Y-8432270D01*
X12990000Y-8387270D02*
X13080000Y-8387270D01*
X13035000Y-8596270D02*
X13035000Y-8686270D01*
X12990000Y-8641270D02*
X13080000Y-8641270D01*
X13035000Y-9627270D02*
X13035000Y-9717270D01*
X12990000Y-9672270D02*
X13080000Y-9672270D01*
X13035000Y-9881270D02*
X13035000Y-9971270D01*
X12990000Y-9926270D02*
X13080000Y-9926270D01*
X13035000Y-10135270D02*
X13035000Y-10225270D01*
X12990000Y-10180270D02*
X13080000Y-10180270D01*
X13035000Y-10389270D02*
X13035000Y-10479270D01*
X12990000Y-10434270D02*
X13080000Y-10434270D01*
X13035000Y-11427270D02*
X13035000Y-11517270D01*
X12990000Y-11472270D02*
X13080000Y-11472270D01*
X13035000Y-11681270D02*
X13035000Y-11771270D01*
X12990000Y-11726270D02*
X13080000Y-11726270D01*
X13035000Y-11935270D02*
X13035000Y-12025270D01*
X12990000Y-11980270D02*
X13080000Y-11980270D01*
X13035000Y-12189270D02*
X13035000Y-12279270D01*
X12990000Y-12234270D02*
X13080000Y-12234270D01*
X13035000Y-13227270D02*
X13035000Y-13317270D01*
X12990000Y-13272270D02*
X13080000Y-13272270D01*
X13035000Y-13481270D02*
X13035000Y-13571270D01*
X12990000Y-13526270D02*
X13080000Y-13526270D01*
X13035000Y-13735270D02*
X13035000Y-13825270D01*
X12990000Y-13780270D02*
X13080000Y-13780270D01*
X13035000Y-13989270D02*
X13035000Y-14079270D01*
X12990000Y-14034270D02*
X13080000Y-14034270D01*
X13288999Y-7961269D02*
X13288999Y-8051269D01*
X13243999Y-8006269D02*
X13333999Y-8006269D01*
X13288999Y-8215270D02*
X13288999Y-8305270D01*
X13243999Y-8260270D02*
X13333999Y-8260270D01*
X13288999Y-8469270D02*
X13288999Y-8559270D01*
X13243999Y-8514270D02*
X13333999Y-8514270D01*
X13288999Y-8723270D02*
X13288999Y-8813270D01*
X13243999Y-8768270D02*
X13333999Y-8768270D01*
X13288999Y-9754270D02*
X13288999Y-9844270D01*
X13243999Y-9799270D02*
X13333999Y-9799270D01*
X13288999Y-10008270D02*
X13288999Y-10098270D01*
X13243999Y-10053270D02*
X13333999Y-10053270D01*
X13288999Y-10262270D02*
X13288999Y-10352270D01*
X13243999Y-10307270D02*
X13333999Y-10307270D01*
X13288999Y-10516270D02*
X13288999Y-10606270D01*
X13243999Y-10561270D02*
X13333999Y-10561270D01*
X13288999Y-11554269D02*
X13288999Y-11644269D01*
X13243999Y-11599269D02*
X13333999Y-11599269D01*
X13288999Y-11808270D02*
X13288999Y-11898270D01*
X13243999Y-11853270D02*
X13333999Y-11853270D01*
X13288999Y-12062270D02*
X13288999Y-12152270D01*
X13243999Y-12107270D02*
X13333999Y-12107270D01*
X13288999Y-12316270D02*
X13288999Y-12406270D01*
X13243999Y-12361270D02*
X13333999Y-12361270D01*
X13288999Y-13354269D02*
X13288999Y-13444269D01*
X13243999Y-13399269D02*
X13333999Y-13399269D01*
X13288999Y-13608270D02*
X13288999Y-13698270D01*
X13243999Y-13653270D02*
X13333999Y-13653270D01*
X13288999Y-13862270D02*
X13288999Y-13952270D01*
X13243999Y-13907270D02*
X13333999Y-13907270D01*
X13288999Y-14116270D02*
X13288999Y-14206270D01*
X13243999Y-14161270D02*
X13333999Y-14161270D01*
X14861001Y-7839000D02*
X14861001Y-7929000D01*
X14816001Y-7884000D02*
X14906001Y-7884000D01*
X14861001Y-8093000D02*
X14861001Y-8183000D01*
X14816001Y-8138000D02*
X14906001Y-8138000D01*
X14861001Y-8347001D02*
X14861001Y-8437001D01*
X14816001Y-8392001D02*
X14906001Y-8392001D01*
X14861001Y-8601001D02*
X14861001Y-8691001D01*
X14816001Y-8646001D02*
X14906001Y-8646001D01*
X14861001Y-9632000D02*
X14861001Y-9722000D01*
X14816001Y-9677000D02*
X14906001Y-9677000D01*
X14861001Y-9886001D02*
X14861001Y-9976001D01*
X14816001Y-9931001D02*
X14906001Y-9931001D01*
X14861001Y-10140001D02*
X14861001Y-10230001D01*
X14816001Y-10185001D02*
X14906001Y-10185001D01*
X14861001Y-10394001D02*
X14861001Y-10484001D01*
X14816001Y-10439001D02*
X14906001Y-10439001D01*
X14861001Y-11432000D02*
X14861001Y-11522000D01*
X14816001Y-11477000D02*
X14906001Y-11477000D01*
X14861001Y-11686000D02*
X14861001Y-11776000D01*
X14816001Y-11731000D02*
X14906001Y-11731000D01*
X14861001Y-11940001D02*
X14861001Y-12030001D01*
X14816001Y-11985001D02*
X14906001Y-11985001D01*
X14861001Y-12194001D02*
X14861001Y-12284001D01*
X14816001Y-12239001D02*
X14906001Y-12239001D01*
X14861001Y-13232000D02*
X14861001Y-13322000D01*
X14816001Y-13277000D02*
X14906001Y-13277000D01*
X14861001Y-13486000D02*
X14861001Y-13576000D01*
X14816001Y-13531000D02*
X14906001Y-13531000D01*
X14861001Y-13740001D02*
X14861001Y-13830001D01*
X14816001Y-13785001D02*
X14906001Y-13785001D01*
X14861001Y-13994001D02*
X14861001Y-14084001D01*
X14816001Y-14039001D02*
X14906001Y-14039001D01*
X15115000Y-7966000D02*
X15115000Y-8056000D01*
X15070000Y-8011000D02*
X15160000Y-8011000D01*
X15115000Y-8220000D02*
X15115000Y-8310000D01*
X15070000Y-8265000D02*
X15160000Y-8265000D01*
X15115000Y-8474000D02*
X15115000Y-8564000D01*
X15070000Y-8519000D02*
X15160000Y-8519000D01*
X15115000Y-8728000D02*
X15115000Y-8818000D01*
X15070000Y-8773000D02*
X15160000Y-8773000D01*
X15115000Y-9759000D02*
X15115000Y-9849000D01*
X15070000Y-9804000D02*
X15160000Y-9804000D01*
X15115000Y-10013000D02*
X15115000Y-10103000D01*
X15070000Y-10058000D02*
X15160000Y-10058000D01*
X15115000Y-10267000D02*
X15115000Y-10357000D01*
X15070000Y-10312000D02*
X15160000Y-10312000D01*
X15115000Y-10521000D02*
X15115000Y-10611000D01*
X15070000Y-10566000D02*
X15160000Y-10566000D01*
X15115000Y-11559000D02*
X15115000Y-11649000D01*
X15070000Y-11604000D02*
X15160000Y-11604000D01*
X15115000Y-11813000D02*
X15115000Y-11903000D01*
X15070000Y-11858000D02*
X15160000Y-11858000D01*
X15115000Y-12067000D02*
X15115000Y-12157000D01*
X15070000Y-12112000D02*
X15160000Y-12112000D01*
X15115000Y-12321000D02*
X15115000Y-12411000D01*
X15070000Y-12366000D02*
X15160000Y-12366000D01*
X15115000Y-13359000D02*
X15115000Y-13449000D01*
X15070000Y-13404000D02*
X15160000Y-13404000D01*
X15115000Y-13613000D02*
X15115000Y-13703000D01*
X15070000Y-13658000D02*
X15160000Y-13658000D01*
X15115000Y-13867000D02*
X15115000Y-13957000D01*
X15070000Y-13912000D02*
X15160000Y-13912000D01*
X15115000Y-14121000D02*
X15115000Y-14211000D01*
X15070000Y-14166000D02*
X15160000Y-14166000D01*
X16761001Y-7839000D02*
X16761001Y-7929000D01*
X16716001Y-7884000D02*
X16806001Y-7884000D01*
X16761001Y-8093000D02*
X16761001Y-8183000D01*
X16716001Y-8138000D02*
X16806001Y-8138000D01*
X16761001Y-8347001D02*
X16761001Y-8437001D01*
X16716001Y-8392001D02*
X16806001Y-8392001D01*
X16761001Y-8601001D02*
X16761001Y-8691001D01*
X16716001Y-8646001D02*
X16806001Y-8646001D01*
X16761001Y-9632000D02*
X16761001Y-9722000D01*
X16716001Y-9677000D02*
X16806001Y-9677000D01*
X16761001Y-9886001D02*
X16761001Y-9976001D01*
X16716001Y-9931001D02*
X16806001Y-9931001D01*
X16761001Y-10140001D02*
X16761001Y-10230001D01*
X16716001Y-10185001D02*
X16806001Y-10185001D01*
X16761001Y-10394001D02*
X16761001Y-10484001D01*
X16716001Y-10439001D02*
X16806001Y-10439001D01*
X16761001Y-11432000D02*
X16761001Y-11522000D01*
X16716001Y-11477000D02*
X16806001Y-11477000D01*
X16761001Y-11686000D02*
X16761001Y-11776000D01*
X16716001Y-11731000D02*
X16806001Y-11731000D01*
X16761001Y-11940001D02*
X16761001Y-12030001D01*
X16716001Y-11985001D02*
X16806001Y-11985001D01*
X16761001Y-12194001D02*
X16761001Y-12284001D01*
X16716001Y-12239001D02*
X16806001Y-12239001D01*
X16761001Y-13232000D02*
X16761001Y-13322000D01*
X16716001Y-13277000D02*
X16806001Y-13277000D01*
X16761001Y-13486000D02*
X16761001Y-13576000D01*
X16716001Y-13531000D02*
X16806001Y-13531000D01*
X16761001Y-13740001D02*
X16761001Y-13830001D01*
X16716001Y-13785001D02*
X16806001Y-13785001D01*
X16761001Y-13994001D02*
X16761001Y-14084001D01*
X16716001Y-14039001D02*
X16806001Y-14039001D01*
X17015000Y-7966000D02*
X17015000Y-8056000D01*
X16970000Y-8011000D02*
X17060000Y-8011000D01*
X17015000Y-8220000D02*
X17015000Y-8310000D01*
X16970000Y-8265000D02*
X17060000Y-8265000D01*
X17015000Y-8474000D02*
X17015000Y-8564000D01*
X16970000Y-8519000D02*
X17060000Y-8519000D01*
X17015000Y-8728000D02*
X17015000Y-8818000D01*
X16970000Y-8773000D02*
X17060000Y-8773000D01*
X17015000Y-9759000D02*
X17015000Y-9849000D01*
X16970000Y-9804000D02*
X17060000Y-9804000D01*
X17015000Y-10013000D02*
X17015000Y-10103000D01*
X16970000Y-10058000D02*
X17060000Y-10058000D01*
X17015000Y-10267000D02*
X17015000Y-10357000D01*
X16970000Y-10312000D02*
X17060000Y-10312000D01*
X17015000Y-10521000D02*
X17015000Y-10611000D01*
X16970000Y-10566000D02*
X17060000Y-10566000D01*
X17015000Y-11559000D02*
X17015000Y-11649000D01*
X16970000Y-11604000D02*
X17060000Y-11604000D01*
X17015000Y-11813000D02*
X17015000Y-11903000D01*
X16970000Y-11858000D02*
X17060000Y-11858000D01*
X17015000Y-12067000D02*
X17015000Y-12157000D01*
X16970000Y-12112000D02*
X17060000Y-12112000D01*
X17015000Y-12321000D02*
X17015000Y-12411000D01*
X16970000Y-12366000D02*
X17060000Y-12366000D01*
X17015000Y-13359000D02*
X17015000Y-13449000D01*
X16970000Y-13404000D02*
X17060000Y-13404000D01*
X17015000Y-13613000D02*
X17015000Y-13703000D01*
X16970000Y-13658000D02*
X17060000Y-13658000D01*
X17015000Y-13867000D02*
X17015000Y-13957000D01*
X16970000Y-13912000D02*
X17060000Y-13912000D01*
X17015000Y-14121000D02*
X17015000Y-14211000D01*
X16970000Y-14166000D02*
X17060000Y-14166000D01*
X18661001Y-7832000D02*
X18661001Y-7922000D01*
X18616001Y-7877000D02*
X18706001Y-7877000D01*
X18661001Y-8086000D02*
X18661001Y-8176000D01*
X18616001Y-8131000D02*
X18706001Y-8131000D01*
X18661001Y-8340001D02*
X18661001Y-8430001D01*
X18616001Y-8385001D02*
X18706001Y-8385001D01*
X18661001Y-8594001D02*
X18661001Y-8684001D01*
X18616001Y-8639001D02*
X18706001Y-8639001D01*
X18661001Y-9632000D02*
X18661001Y-9722000D01*
X18616001Y-9677000D02*
X18706001Y-9677000D01*
X18661001Y-9886001D02*
X18661001Y-9976001D01*
X18616001Y-9931001D02*
X18706001Y-9931001D01*
X18661001Y-10140001D02*
X18661001Y-10230001D01*
X18616001Y-10185001D02*
X18706001Y-10185001D01*
X18661001Y-10394001D02*
X18661001Y-10484001D01*
X18616001Y-10439001D02*
X18706001Y-10439001D01*
X18661001Y-11432000D02*
X18661001Y-11522000D01*
X18616001Y-11477000D02*
X18706001Y-11477000D01*
X18661001Y-11686000D02*
X18661001Y-11776000D01*
X18616001Y-11731000D02*
X18706001Y-11731000D01*
X18661001Y-11940001D02*
X18661001Y-12030001D01*
X18616001Y-11985001D02*
X18706001Y-11985001D01*
X18661001Y-12194001D02*
X18661001Y-12284001D01*
X18616001Y-12239001D02*
X18706001Y-12239001D01*
X18661001Y-13232000D02*
X18661001Y-13322000D01*
X18616001Y-13277000D02*
X18706001Y-13277000D01*
X18661001Y-13486000D02*
X18661001Y-13576000D01*
X18616001Y-13531000D02*
X18706001Y-13531000D01*
X18661001Y-13740001D02*
X18661001Y-13830001D01*
X18616001Y-13785001D02*
X18706001Y-13785001D01*
X18661001Y-13994001D02*
X18661001Y-14084001D01*
X18616001Y-14039001D02*
X18706001Y-14039001D01*
X18915000Y-7959000D02*
X18915000Y-8049000D01*
X18870000Y-8004000D02*
X18960000Y-8004000D01*
X18915000Y-8213000D02*
X18915000Y-8303000D01*
X18870000Y-8258000D02*
X18960000Y-8258000D01*
X18915000Y-8467000D02*
X18915000Y-8557000D01*
X18870000Y-8512000D02*
X18960000Y-8512000D01*
X18915000Y-8721000D02*
X18915000Y-8811000D01*
X18870000Y-8766000D02*
X18960000Y-8766000D01*
X18915000Y-9759000D02*
X18915000Y-9849000D01*
X18870000Y-9804000D02*
X18960000Y-9804000D01*
X18915000Y-10013000D02*
X18915000Y-10103000D01*
X18870000Y-10058000D02*
X18960000Y-10058000D01*
X18915000Y-10267000D02*
X18915000Y-10357000D01*
X18870000Y-10312000D02*
X18960000Y-10312000D01*
X18915000Y-10521000D02*
X18915000Y-10611000D01*
X18870000Y-10566000D02*
X18960000Y-10566000D01*
X18915000Y-11559000D02*
X18915000Y-11649000D01*
X18870000Y-11604000D02*
X18960000Y-11604000D01*
X18915000Y-11813000D02*
X18915000Y-11903000D01*
X18870000Y-11858000D02*
X18960000Y-11858000D01*
X18915000Y-12067000D02*
X18915000Y-12157000D01*
X18870000Y-12112000D02*
X18960000Y-12112000D01*
X18915000Y-12321000D02*
X18915000Y-12411000D01*
X18870000Y-12366000D02*
X18960000Y-12366000D01*
X18915000Y-13359000D02*
X18915000Y-13449000D01*
X18870000Y-13404000D02*
X18960000Y-13404000D01*
X18915000Y-13613000D02*
X18915000Y-13703000D01*
X18870000Y-13658000D02*
X18960000Y-13658000D01*
X18915000Y-13867000D02*
X18915000Y-13957000D01*
X18870000Y-13912000D02*
X18960000Y-13912000D01*
X18915000Y-14121000D02*
X18915000Y-14211000D01*
X18870000Y-14166000D02*
X18960000Y-14166000D01*
X12250495Y-6194495D02*
X12250495Y-5996504D01*
X12052503Y-5996504D01*
X12052503Y-6194495D01*
X12250495Y-6194495D01*
X19735495Y-6194495D02*
X19735495Y-5996504D01*
X19537504Y-5996504D01*
X19537504Y-6194495D01*
X19735495Y-6194495D01*
D13*
X10261428Y-17490714D02*
X10261428Y-17190714D01*
X10332857Y-17190714D01*
X10375714Y-17205000D01*
X10404286Y-17233572D01*
X10418571Y-17262143D01*
X10432857Y-17319286D01*
X10432857Y-17362143D01*
X10418571Y-17419286D01*
X10404286Y-17447857D01*
X10375714Y-17476429D01*
X10332857Y-17490714D01*
X10261428Y-17490714D01*
X10561428Y-17490714D02*
X10561428Y-17290714D01*
X10561428Y-17347857D02*
X10575714Y-17319286D01*
X10590000Y-17305000D01*
X10618571Y-17290714D01*
X10647143Y-17290714D01*
X10747143Y-17490714D02*
X10747143Y-17290714D01*
X10747143Y-17190714D02*
X10732857Y-17205000D01*
X10747143Y-17219286D01*
X10761428Y-17205000D01*
X10747143Y-17190714D01*
X10747143Y-17219286D01*
X10932857Y-17490714D02*
X10904286Y-17476429D01*
X10890000Y-17447857D01*
X10890000Y-17190714D01*
X11090000Y-17490714D02*
X11061428Y-17476429D01*
X11047143Y-17447857D01*
X11047143Y-17190714D01*
X11432857Y-17490714D02*
X11432857Y-17190714D01*
X11532857Y-17405000D01*
X11632857Y-17190714D01*
X11632857Y-17490714D01*
X11904286Y-17490714D02*
X11904286Y-17333572D01*
X11890000Y-17305000D01*
X11861428Y-17290714D01*
X11804286Y-17290714D01*
X11775714Y-17305000D01*
X11904286Y-17476429D02*
X11875714Y-17490714D01*
X11804286Y-17490714D01*
X11775714Y-17476429D01*
X11761428Y-17447857D01*
X11761428Y-17419286D01*
X11775714Y-17390714D01*
X11804286Y-17376429D01*
X11875714Y-17376429D01*
X11904286Y-17362143D01*
X12047143Y-17290714D02*
X12047143Y-17590714D01*
X12047143Y-17305000D02*
X12075714Y-17290714D01*
X12132857Y-17290714D01*
X12161428Y-17305000D01*
X12175714Y-17319286D01*
X12190000Y-17347857D01*
X12190000Y-17433572D01*
X12175714Y-17462143D01*
X12161428Y-17476429D01*
X12132857Y-17490714D01*
X12075714Y-17490714D01*
X12047143Y-17476429D01*
X12318571Y-17462143D02*
X12332857Y-17476429D01*
X12318571Y-17490714D01*
X12304286Y-17476429D01*
X12318571Y-17462143D01*
X12318571Y-17490714D01*
X12318571Y-17305000D02*
X12332857Y-17319286D01*
X12318571Y-17333572D01*
X12304286Y-17319286D01*
X12318571Y-17305000D01*
X12318571Y-17333572D01*
X9935000Y-17965000D02*
X9975000Y-18005000D01*
X9975000Y-17965000D02*
X9935000Y-18005000D01*
X10318571Y-17820714D02*
X10347143Y-17820714D01*
X10375714Y-17835000D01*
X10390000Y-17849286D01*
X10404286Y-17877857D01*
X10418571Y-17935000D01*
X10418571Y-18006429D01*
X10404286Y-18063572D01*
X10390000Y-18092143D01*
X10375714Y-18106429D01*
X10347143Y-18120714D01*
X10318571Y-18120714D01*
X10290000Y-18106429D01*
X10275714Y-18092143D01*
X10261428Y-18063572D01*
X10247143Y-18006429D01*
X10247143Y-17935000D01*
X10261428Y-17877857D01*
X10275714Y-17849286D01*
X10290000Y-17835000D01*
X10318571Y-17820714D01*
X10547143Y-18092143D02*
X10561428Y-18106429D01*
X10547143Y-18120714D01*
X10532857Y-18106429D01*
X10547143Y-18092143D01*
X10547143Y-18120714D01*
X10818571Y-17920714D02*
X10818571Y-18120714D01*
X10747143Y-17806429D02*
X10675714Y-18020714D01*
X10861428Y-18020714D01*
X11032857Y-17820714D02*
X11061428Y-17820714D01*
X11090000Y-17835000D01*
X11104286Y-17849286D01*
X11118571Y-17877857D01*
X11132857Y-17935000D01*
X11132857Y-18006429D01*
X11118571Y-18063572D01*
X11104286Y-18092143D01*
X11090000Y-18106429D01*
X11061428Y-18120714D01*
X11032857Y-18120714D01*
X11004286Y-18106429D01*
X10990000Y-18092143D01*
X10975714Y-18063572D01*
X10961428Y-18006429D01*
X10961428Y-17935000D01*
X10975714Y-17877857D01*
X10990000Y-17849286D01*
X11004286Y-17835000D01*
X11032857Y-17820714D01*
X11318571Y-17820714D02*
X11347143Y-17820714D01*
X11375714Y-17835000D01*
X11390000Y-17849286D01*
X11404286Y-17877857D01*
X11418571Y-17935000D01*
X11418571Y-18006429D01*
X11404286Y-18063572D01*
X11390000Y-18092143D01*
X11375714Y-18106429D01*
X11347143Y-18120714D01*
X11318571Y-18120714D01*
X11290000Y-18106429D01*
X11275714Y-18092143D01*
X11261428Y-18063572D01*
X11247143Y-18006429D01*
X11247143Y-17935000D01*
X11261428Y-17877857D01*
X11275714Y-17849286D01*
X11290000Y-17835000D01*
X11318571Y-17820714D01*
X11547143Y-18120714D02*
X11547143Y-17920714D01*
X11547143Y-17949286D02*
X11561428Y-17935000D01*
X11590000Y-17920714D01*
X11632857Y-17920714D01*
X11661428Y-17935000D01*
X11675714Y-17963572D01*
X11675714Y-18120714D01*
X11675714Y-17963572D02*
X11690000Y-17935000D01*
X11718571Y-17920714D01*
X11761428Y-17920714D01*
X11790000Y-17935000D01*
X11804286Y-17963572D01*
X11804286Y-18120714D01*
X11947143Y-18120714D02*
X11947143Y-17920714D01*
X11947143Y-17949286D02*
X11961428Y-17935000D01*
X11990000Y-17920714D01*
X12032857Y-17920714D01*
X12061428Y-17935000D01*
X12075714Y-17963572D01*
X12075714Y-18120714D01*
X12075714Y-17963572D02*
X12090000Y-17935000D01*
X12118571Y-17920714D01*
X12161428Y-17920714D01*
X12190000Y-17935000D01*
X12204286Y-17963572D01*
X12204286Y-18120714D01*
X12790000Y-17806429D02*
X12532857Y-18192143D01*
X13175714Y-17820714D02*
X13204286Y-17820714D01*
X13232857Y-17835000D01*
X13247143Y-17849286D01*
X13261428Y-17877857D01*
X13275714Y-17935000D01*
X13275714Y-18006429D01*
X13261428Y-18063572D01*
X13247143Y-18092143D01*
X13232857Y-18106429D01*
X13204286Y-18120714D01*
X13175714Y-18120714D01*
X13147143Y-18106429D01*
X13132857Y-18092143D01*
X13118571Y-18063572D01*
X13104286Y-18006429D01*
X13104286Y-17935000D01*
X13118571Y-17877857D01*
X13132857Y-17849286D01*
X13147143Y-17835000D01*
X13175714Y-17820714D01*
X13404286Y-18092143D02*
X13418571Y-18106429D01*
X13404286Y-18120714D01*
X13390000Y-18106429D01*
X13404286Y-18092143D01*
X13404286Y-18120714D01*
X13604286Y-17820714D02*
X13632857Y-17820714D01*
X13661428Y-17835000D01*
X13675714Y-17849286D01*
X13690000Y-17877857D01*
X13704286Y-17935000D01*
X13704286Y-18006429D01*
X13690000Y-18063572D01*
X13675714Y-18092143D01*
X13661428Y-18106429D01*
X13632857Y-18120714D01*
X13604286Y-18120714D01*
X13575714Y-18106429D01*
X13561428Y-18092143D01*
X13547143Y-18063572D01*
X13532857Y-18006429D01*
X13532857Y-17935000D01*
X13547143Y-17877857D01*
X13561428Y-17849286D01*
X13575714Y-17835000D01*
X13604286Y-17820714D01*
X13990000Y-18120714D02*
X13818571Y-18120714D01*
X13904286Y-18120714D02*
X13904286Y-17820714D01*
X13875714Y-17863572D01*
X13847143Y-17892143D01*
X13818571Y-17906429D01*
X14261428Y-17820714D02*
X14118571Y-17820714D01*
X14104286Y-17963572D01*
X14118571Y-17949286D01*
X14147143Y-17935000D01*
X14218571Y-17935000D01*
X14247143Y-17949286D01*
X14261428Y-17963572D01*
X14275714Y-17992143D01*
X14275714Y-18063572D01*
X14261428Y-18092143D01*
X14247143Y-18106429D01*
X14218571Y-18120714D01*
X14147143Y-18120714D01*
X14118571Y-18106429D01*
X14104286Y-18092143D01*
X14375714Y-17820714D02*
X14575714Y-17820714D01*
X14447143Y-18120714D01*
X14675714Y-17820714D02*
X14675714Y-17877857D01*
X14790000Y-17820714D02*
X14790000Y-17877857D01*
X15232857Y-18235000D02*
X15218571Y-18220714D01*
X15190000Y-18177857D01*
X15175714Y-18149286D01*
X15161428Y-18106429D01*
X15147143Y-18035000D01*
X15147143Y-17977857D01*
X15161428Y-17906429D01*
X15175714Y-17863572D01*
X15190000Y-17835000D01*
X15218571Y-17792143D01*
X15232857Y-17777857D01*
X15504286Y-18120714D02*
X15332857Y-18120714D01*
X15418571Y-18120714D02*
X15418571Y-17820714D01*
X15390000Y-17863572D01*
X15361428Y-17892143D01*
X15332857Y-17906429D01*
X15690000Y-17820714D02*
X15718571Y-17820714D01*
X15747143Y-17835000D01*
X15761428Y-17849286D01*
X15775714Y-17877857D01*
X15790000Y-17935000D01*
X15790000Y-18006429D01*
X15775714Y-18063572D01*
X15761428Y-18092143D01*
X15747143Y-18106429D01*
X15718571Y-18120714D01*
X15690000Y-18120714D01*
X15661428Y-18106429D01*
X15647143Y-18092143D01*
X15632857Y-18063572D01*
X15618571Y-18006429D01*
X15618571Y-17935000D01*
X15632857Y-17877857D01*
X15647143Y-17849286D01*
X15661428Y-17835000D01*
X15690000Y-17820714D01*
X16147143Y-18120714D02*
X16147143Y-17820714D01*
X16275714Y-18120714D02*
X16275714Y-17963572D01*
X16261428Y-17935000D01*
X16232857Y-17920714D01*
X16190000Y-17920714D01*
X16161428Y-17935000D01*
X16147143Y-17949286D01*
X16461428Y-18120714D02*
X16432857Y-18106429D01*
X16418571Y-18092143D01*
X16404286Y-18063572D01*
X16404286Y-17977857D01*
X16418571Y-17949286D01*
X16432857Y-17935000D01*
X16461428Y-17920714D01*
X16504286Y-17920714D01*
X16532857Y-17935000D01*
X16547143Y-17949286D01*
X16561428Y-17977857D01*
X16561428Y-18063572D01*
X16547143Y-18092143D01*
X16532857Y-18106429D01*
X16504286Y-18120714D01*
X16461428Y-18120714D01*
X16732857Y-18120714D02*
X16704286Y-18106429D01*
X16690000Y-18077857D01*
X16690000Y-17820714D01*
X16961428Y-18106429D02*
X16932857Y-18120714D01*
X16875714Y-18120714D01*
X16847143Y-18106429D01*
X16832857Y-18077857D01*
X16832857Y-17963572D01*
X16847143Y-17935000D01*
X16875714Y-17920714D01*
X16932857Y-17920714D01*
X16961428Y-17935000D01*
X16975714Y-17963572D01*
X16975714Y-17992143D01*
X16832857Y-18020714D01*
X17090000Y-18106429D02*
X17118571Y-18120714D01*
X17175714Y-18120714D01*
X17204286Y-18106429D01*
X17218571Y-18077857D01*
X17218571Y-18063572D01*
X17204286Y-18035000D01*
X17175714Y-18020714D01*
X17132857Y-18020714D01*
X17104286Y-18006429D01*
X17090000Y-17977857D01*
X17090000Y-17963572D01*
X17104286Y-17935000D01*
X17132857Y-17920714D01*
X17175714Y-17920714D01*
X17204286Y-17935000D01*
X17318571Y-18235000D02*
X17332857Y-18220714D01*
X17361428Y-18177857D01*
X17375714Y-18149286D01*
X17390000Y-18106429D01*
X17404286Y-18035000D01*
X17404286Y-17977857D01*
X17390000Y-17906429D01*
X17375714Y-17863572D01*
X17361428Y-17835000D01*
X17332857Y-17792143D01*
X17318571Y-17777857D01*
X9975000Y-18381000D02*
G75*
G03*
X9975000Y-18381000I-40000J0D01*
G01*
X10318571Y-18216714D02*
X10347143Y-18216714D01*
X10375714Y-18231000D01*
X10390000Y-18245286D01*
X10404286Y-18273857D01*
X10418571Y-18331000D01*
X10418571Y-18402429D01*
X10404286Y-18459572D01*
X10390000Y-18488143D01*
X10375714Y-18502429D01*
X10347143Y-18516714D01*
X10318571Y-18516714D01*
X10290000Y-18502429D01*
X10275714Y-18488143D01*
X10261428Y-18459572D01*
X10247143Y-18402429D01*
X10247143Y-18331000D01*
X10261428Y-18273857D01*
X10275714Y-18245286D01*
X10290000Y-18231000D01*
X10318571Y-18216714D01*
X10547143Y-18488143D02*
X10561428Y-18502429D01*
X10547143Y-18516714D01*
X10532857Y-18502429D01*
X10547143Y-18488143D01*
X10547143Y-18516714D01*
X10732857Y-18345286D02*
X10704286Y-18331000D01*
X10690000Y-18316714D01*
X10675714Y-18288143D01*
X10675714Y-18273857D01*
X10690000Y-18245286D01*
X10704286Y-18231000D01*
X10732857Y-18216714D01*
X10790000Y-18216714D01*
X10818571Y-18231000D01*
X10832857Y-18245286D01*
X10847143Y-18273857D01*
X10847143Y-18288143D01*
X10832857Y-18316714D01*
X10818571Y-18331000D01*
X10790000Y-18345286D01*
X10732857Y-18345286D01*
X10704286Y-18359572D01*
X10690000Y-18373857D01*
X10675714Y-18402429D01*
X10675714Y-18459572D01*
X10690000Y-18488143D01*
X10704286Y-18502429D01*
X10732857Y-18516714D01*
X10790000Y-18516714D01*
X10818571Y-18502429D01*
X10832857Y-18488143D01*
X10847143Y-18459572D01*
X10847143Y-18402429D01*
X10832857Y-18373857D01*
X10818571Y-18359572D01*
X10790000Y-18345286D01*
X11032857Y-18216714D02*
X11061428Y-18216714D01*
X11090000Y-18231000D01*
X11104286Y-18245286D01*
X11118571Y-18273857D01*
X11132857Y-18331000D01*
X11132857Y-18402429D01*
X11118571Y-18459572D01*
X11104286Y-18488143D01*
X11090000Y-18502429D01*
X11061428Y-18516714D01*
X11032857Y-18516714D01*
X11004286Y-18502429D01*
X10990000Y-18488143D01*
X10975714Y-18459572D01*
X10961428Y-18402429D01*
X10961428Y-18331000D01*
X10975714Y-18273857D01*
X10990000Y-18245286D01*
X11004286Y-18231000D01*
X11032857Y-18216714D01*
X11318571Y-18216714D02*
X11347143Y-18216714D01*
X11375714Y-18231000D01*
X11390000Y-18245286D01*
X11404286Y-18273857D01*
X11418571Y-18331000D01*
X11418571Y-18402429D01*
X11404286Y-18459572D01*
X11390000Y-18488143D01*
X11375714Y-18502429D01*
X11347143Y-18516714D01*
X11318571Y-18516714D01*
X11290000Y-18502429D01*
X11275714Y-18488143D01*
X11261428Y-18459572D01*
X11247143Y-18402429D01*
X11247143Y-18331000D01*
X11261428Y-18273857D01*
X11275714Y-18245286D01*
X11290000Y-18231000D01*
X11318571Y-18216714D01*
X11547143Y-18516714D02*
X11547143Y-18316714D01*
X11547143Y-18345286D02*
X11561428Y-18331000D01*
X11590000Y-18316714D01*
X11632857Y-18316714D01*
X11661428Y-18331000D01*
X11675714Y-18359572D01*
X11675714Y-18516714D01*
X11675714Y-18359572D02*
X11690000Y-18331000D01*
X11718571Y-18316714D01*
X11761428Y-18316714D01*
X11790000Y-18331000D01*
X11804286Y-18359572D01*
X11804286Y-18516714D01*
X11947143Y-18516714D02*
X11947143Y-18316714D01*
X11947143Y-18345286D02*
X11961428Y-18331000D01*
X11990000Y-18316714D01*
X12032857Y-18316714D01*
X12061428Y-18331000D01*
X12075714Y-18359572D01*
X12075714Y-18516714D01*
X12075714Y-18359572D02*
X12090000Y-18331000D01*
X12118571Y-18316714D01*
X12161428Y-18316714D01*
X12190000Y-18331000D01*
X12204286Y-18359572D01*
X12204286Y-18516714D01*
X12790000Y-18202429D02*
X12532857Y-18588143D01*
X13175714Y-18216714D02*
X13204286Y-18216714D01*
X13232857Y-18231000D01*
X13247143Y-18245286D01*
X13261428Y-18273857D01*
X13275714Y-18331000D01*
X13275714Y-18402429D01*
X13261428Y-18459572D01*
X13247143Y-18488143D01*
X13232857Y-18502429D01*
X13204286Y-18516714D01*
X13175714Y-18516714D01*
X13147143Y-18502429D01*
X13132857Y-18488143D01*
X13118571Y-18459572D01*
X13104286Y-18402429D01*
X13104286Y-18331000D01*
X13118571Y-18273857D01*
X13132857Y-18245286D01*
X13147143Y-18231000D01*
X13175714Y-18216714D01*
X13404286Y-18488143D02*
X13418571Y-18502429D01*
X13404286Y-18516714D01*
X13390000Y-18502429D01*
X13404286Y-18488143D01*
X13404286Y-18516714D01*
X13604286Y-18216714D02*
X13632857Y-18216714D01*
X13661428Y-18231000D01*
X13675714Y-18245286D01*
X13690000Y-18273857D01*
X13704286Y-18331000D01*
X13704286Y-18402429D01*
X13690000Y-18459572D01*
X13675714Y-18488143D01*
X13661428Y-18502429D01*
X13632857Y-18516714D01*
X13604286Y-18516714D01*
X13575714Y-18502429D01*
X13561428Y-18488143D01*
X13547143Y-18459572D01*
X13532857Y-18402429D01*
X13532857Y-18331000D01*
X13547143Y-18273857D01*
X13561428Y-18245286D01*
X13575714Y-18231000D01*
X13604286Y-18216714D01*
X13804286Y-18216714D02*
X13990000Y-18216714D01*
X13890000Y-18331000D01*
X13932857Y-18331000D01*
X13961428Y-18345286D01*
X13975714Y-18359572D01*
X13990000Y-18388143D01*
X13990000Y-18459572D01*
X13975714Y-18488143D01*
X13961428Y-18502429D01*
X13932857Y-18516714D01*
X13847143Y-18516714D01*
X13818571Y-18502429D01*
X13804286Y-18488143D01*
X14275714Y-18516714D02*
X14104286Y-18516714D01*
X14190000Y-18516714D02*
X14190000Y-18216714D01*
X14161428Y-18259572D01*
X14132857Y-18288143D01*
X14104286Y-18302429D01*
X14547143Y-18216714D02*
X14404286Y-18216714D01*
X14390000Y-18359572D01*
X14404286Y-18345286D01*
X14432857Y-18331000D01*
X14504286Y-18331000D01*
X14532857Y-18345286D01*
X14547143Y-18359572D01*
X14561428Y-18388143D01*
X14561428Y-18459572D01*
X14547143Y-18488143D01*
X14532857Y-18502429D01*
X14504286Y-18516714D01*
X14432857Y-18516714D01*
X14404286Y-18502429D01*
X14390000Y-18488143D01*
X14675714Y-18216714D02*
X14675714Y-18273857D01*
X14790000Y-18216714D02*
X14790000Y-18273857D01*
X15232857Y-18631000D02*
X15218571Y-18616714D01*
X15190000Y-18573857D01*
X15175714Y-18545286D01*
X15161428Y-18502429D01*
X15147143Y-18431000D01*
X15147143Y-18373857D01*
X15161428Y-18302429D01*
X15175714Y-18259572D01*
X15190000Y-18231000D01*
X15218571Y-18188143D01*
X15232857Y-18173857D01*
X15490000Y-18216714D02*
X15347143Y-18216714D01*
X15332857Y-18359572D01*
X15347143Y-18345286D01*
X15375714Y-18331000D01*
X15447143Y-18331000D01*
X15475714Y-18345286D01*
X15490000Y-18359572D01*
X15504286Y-18388143D01*
X15504286Y-18459572D01*
X15490000Y-18488143D01*
X15475714Y-18502429D01*
X15447143Y-18516714D01*
X15375714Y-18516714D01*
X15347143Y-18502429D01*
X15332857Y-18488143D01*
X15690000Y-18216714D02*
X15718571Y-18216714D01*
X15747143Y-18231000D01*
X15761428Y-18245286D01*
X15775714Y-18273857D01*
X15790000Y-18331000D01*
X15790000Y-18402429D01*
X15775714Y-18459572D01*
X15761428Y-18488143D01*
X15747143Y-18502429D01*
X15718571Y-18516714D01*
X15690000Y-18516714D01*
X15661428Y-18502429D01*
X15647143Y-18488143D01*
X15632857Y-18459572D01*
X15618571Y-18402429D01*
X15618571Y-18331000D01*
X15632857Y-18273857D01*
X15647143Y-18245286D01*
X15661428Y-18231000D01*
X15690000Y-18216714D01*
X16147143Y-18516714D02*
X16147143Y-18216714D01*
X16275714Y-18516714D02*
X16275714Y-18359572D01*
X16261428Y-18331000D01*
X16232857Y-18316714D01*
X16190000Y-18316714D01*
X16161428Y-18331000D01*
X16147143Y-18345286D01*
X16461428Y-18516714D02*
X16432857Y-18502429D01*
X16418571Y-18488143D01*
X16404286Y-18459572D01*
X16404286Y-18373857D01*
X16418571Y-18345286D01*
X16432857Y-18331000D01*
X16461428Y-18316714D01*
X16504286Y-18316714D01*
X16532857Y-18331000D01*
X16547143Y-18345286D01*
X16561428Y-18373857D01*
X16561428Y-18459572D01*
X16547143Y-18488143D01*
X16532857Y-18502429D01*
X16504286Y-18516714D01*
X16461428Y-18516714D01*
X16732857Y-18516714D02*
X16704286Y-18502429D01*
X16690000Y-18473857D01*
X16690000Y-18216714D01*
X16961428Y-18502429D02*
X16932857Y-18516714D01*
X16875714Y-18516714D01*
X16847143Y-18502429D01*
X16832857Y-18473857D01*
X16832857Y-18359572D01*
X16847143Y-18331000D01*
X16875714Y-18316714D01*
X16932857Y-18316714D01*
X16961428Y-18331000D01*
X16975714Y-18359572D01*
X16975714Y-18388143D01*
X16832857Y-18416714D01*
X17090000Y-18502429D02*
X17118571Y-18516714D01*
X17175714Y-18516714D01*
X17204286Y-18502429D01*
X17218571Y-18473857D01*
X17218571Y-18459572D01*
X17204286Y-18431000D01*
X17175714Y-18416714D01*
X17132857Y-18416714D01*
X17104286Y-18402429D01*
X17090000Y-18373857D01*
X17090000Y-18359572D01*
X17104286Y-18331000D01*
X17132857Y-18316714D01*
X17175714Y-18316714D01*
X17204286Y-18331000D01*
X17318571Y-18631000D02*
X17332857Y-18616714D01*
X17361428Y-18573857D01*
X17375714Y-18545286D01*
X17390000Y-18502429D01*
X17404286Y-18431000D01*
X17404286Y-18373857D01*
X17390000Y-18302429D01*
X17375714Y-18259572D01*
X17361428Y-18231000D01*
X17332857Y-18188143D01*
X17318571Y-18173857D01*
X9930000Y-18732000D02*
X9930000Y-18822000D01*
X9885000Y-18777000D02*
X9975000Y-18777000D01*
X10318571Y-18612714D02*
X10347143Y-18612714D01*
X10375714Y-18627000D01*
X10390000Y-18641286D01*
X10404286Y-18669857D01*
X10418571Y-18727000D01*
X10418571Y-18798429D01*
X10404286Y-18855572D01*
X10390000Y-18884143D01*
X10375714Y-18898429D01*
X10347143Y-18912714D01*
X10318571Y-18912714D01*
X10290000Y-18898429D01*
X10275714Y-18884143D01*
X10261428Y-18855572D01*
X10247143Y-18798429D01*
X10247143Y-18727000D01*
X10261428Y-18669857D01*
X10275714Y-18641286D01*
X10290000Y-18627000D01*
X10318571Y-18612714D01*
X10547143Y-18884143D02*
X10561428Y-18898429D01*
X10547143Y-18912714D01*
X10532857Y-18898429D01*
X10547143Y-18884143D01*
X10547143Y-18912714D01*
X10704286Y-18912714D02*
X10761428Y-18912714D01*
X10790000Y-18898429D01*
X10804286Y-18884143D01*
X10832857Y-18841286D01*
X10847143Y-18784143D01*
X10847143Y-18669857D01*
X10832857Y-18641286D01*
X10818571Y-18627000D01*
X10790000Y-18612714D01*
X10732857Y-18612714D01*
X10704286Y-18627000D01*
X10690000Y-18641286D01*
X10675714Y-18669857D01*
X10675714Y-18741286D01*
X10690000Y-18769857D01*
X10704286Y-18784143D01*
X10732857Y-18798429D01*
X10790000Y-18798429D01*
X10818571Y-18784143D01*
X10832857Y-18769857D01*
X10847143Y-18741286D01*
X11032857Y-18612714D02*
X11061428Y-18612714D01*
X11090000Y-18627000D01*
X11104286Y-18641286D01*
X11118571Y-18669857D01*
X11132857Y-18727000D01*
X11132857Y-18798429D01*
X11118571Y-18855572D01*
X11104286Y-18884143D01*
X11090000Y-18898429D01*
X11061428Y-18912714D01*
X11032857Y-18912714D01*
X11004286Y-18898429D01*
X10990000Y-18884143D01*
X10975714Y-18855572D01*
X10961428Y-18798429D01*
X10961428Y-18727000D01*
X10975714Y-18669857D01*
X10990000Y-18641286D01*
X11004286Y-18627000D01*
X11032857Y-18612714D01*
X11318571Y-18612714D02*
X11347143Y-18612714D01*
X11375714Y-18627000D01*
X11390000Y-18641286D01*
X11404286Y-18669857D01*
X11418571Y-18727000D01*
X11418571Y-18798429D01*
X11404286Y-18855572D01*
X11390000Y-18884143D01*
X11375714Y-18898429D01*
X11347143Y-18912714D01*
X11318571Y-18912714D01*
X11290000Y-18898429D01*
X11275714Y-18884143D01*
X11261428Y-18855572D01*
X11247143Y-18798429D01*
X11247143Y-18727000D01*
X11261428Y-18669857D01*
X11275714Y-18641286D01*
X11290000Y-18627000D01*
X11318571Y-18612714D01*
X11547143Y-18912714D02*
X11547143Y-18712714D01*
X11547143Y-18741286D02*
X11561428Y-18727000D01*
X11590000Y-18712714D01*
X11632857Y-18712714D01*
X11661428Y-18727000D01*
X11675714Y-18755572D01*
X11675714Y-18912714D01*
X11675714Y-18755572D02*
X11690000Y-18727000D01*
X11718571Y-18712714D01*
X11761428Y-18712714D01*
X11790000Y-18727000D01*
X11804286Y-18755572D01*
X11804286Y-18912714D01*
X11947143Y-18912714D02*
X11947143Y-18712714D01*
X11947143Y-18741286D02*
X11961428Y-18727000D01*
X11990000Y-18712714D01*
X12032857Y-18712714D01*
X12061428Y-18727000D01*
X12075714Y-18755572D01*
X12075714Y-18912714D01*
X12075714Y-18755572D02*
X12090000Y-18727000D01*
X12118571Y-18712714D01*
X12161428Y-18712714D01*
X12190000Y-18727000D01*
X12204286Y-18755572D01*
X12204286Y-18912714D01*
X12790000Y-18598429D02*
X12532857Y-18984143D01*
X13175714Y-18612714D02*
X13204286Y-18612714D01*
X13232857Y-18627000D01*
X13247143Y-18641286D01*
X13261428Y-18669857D01*
X13275714Y-18727000D01*
X13275714Y-18798429D01*
X13261428Y-18855572D01*
X13247143Y-18884143D01*
X13232857Y-18898429D01*
X13204286Y-18912714D01*
X13175714Y-18912714D01*
X13147143Y-18898429D01*
X13132857Y-18884143D01*
X13118571Y-18855572D01*
X13104286Y-18798429D01*
X13104286Y-18727000D01*
X13118571Y-18669857D01*
X13132857Y-18641286D01*
X13147143Y-18627000D01*
X13175714Y-18612714D01*
X13404286Y-18884143D02*
X13418571Y-18898429D01*
X13404286Y-18912714D01*
X13390000Y-18898429D01*
X13404286Y-18884143D01*
X13404286Y-18912714D01*
X13604286Y-18612714D02*
X13632857Y-18612714D01*
X13661428Y-18627000D01*
X13675714Y-18641286D01*
X13690000Y-18669857D01*
X13704286Y-18727000D01*
X13704286Y-18798429D01*
X13690000Y-18855572D01*
X13675714Y-18884143D01*
X13661428Y-18898429D01*
X13632857Y-18912714D01*
X13604286Y-18912714D01*
X13575714Y-18898429D01*
X13561428Y-18884143D01*
X13547143Y-18855572D01*
X13532857Y-18798429D01*
X13532857Y-18727000D01*
X13547143Y-18669857D01*
X13561428Y-18641286D01*
X13575714Y-18627000D01*
X13604286Y-18612714D01*
X13804286Y-18612714D02*
X13990000Y-18612714D01*
X13890000Y-18727000D01*
X13932857Y-18727000D01*
X13961428Y-18741286D01*
X13975714Y-18755572D01*
X13990000Y-18784143D01*
X13990000Y-18855572D01*
X13975714Y-18884143D01*
X13961428Y-18898429D01*
X13932857Y-18912714D01*
X13847143Y-18912714D01*
X13818571Y-18898429D01*
X13804286Y-18884143D01*
X14261428Y-18612714D02*
X14118571Y-18612714D01*
X14104286Y-18755572D01*
X14118571Y-18741286D01*
X14147143Y-18727000D01*
X14218571Y-18727000D01*
X14247143Y-18741286D01*
X14261428Y-18755572D01*
X14275714Y-18784143D01*
X14275714Y-18855572D01*
X14261428Y-18884143D01*
X14247143Y-18898429D01*
X14218571Y-18912714D01*
X14147143Y-18912714D01*
X14118571Y-18898429D01*
X14104286Y-18884143D01*
X14532857Y-18712714D02*
X14532857Y-18912714D01*
X14461428Y-18598429D02*
X14390000Y-18812714D01*
X14575714Y-18812714D01*
X14675714Y-18612714D02*
X14675714Y-18669857D01*
X14790000Y-18612714D02*
X14790000Y-18669857D01*
X15232857Y-19027000D02*
X15218571Y-19012714D01*
X15190000Y-18969857D01*
X15175714Y-18941286D01*
X15161428Y-18898429D01*
X15147143Y-18827000D01*
X15147143Y-18769857D01*
X15161428Y-18698429D01*
X15175714Y-18655572D01*
X15190000Y-18627000D01*
X15218571Y-18584143D01*
X15232857Y-18569857D01*
X15504286Y-18912714D02*
X15332857Y-18912714D01*
X15418571Y-18912714D02*
X15418571Y-18612714D01*
X15390000Y-18655572D01*
X15361428Y-18684143D01*
X15332857Y-18698429D01*
X15618571Y-18641286D02*
X15632857Y-18627000D01*
X15661428Y-18612714D01*
X15732857Y-18612714D01*
X15761428Y-18627000D01*
X15775714Y-18641286D01*
X15790000Y-18669857D01*
X15790000Y-18698429D01*
X15775714Y-18741286D01*
X15604286Y-18912714D01*
X15790000Y-18912714D01*
X15961428Y-18741286D02*
X15932857Y-18727000D01*
X15918571Y-18712714D01*
X15904286Y-18684143D01*
X15904286Y-18669857D01*
X15918571Y-18641286D01*
X15932857Y-18627000D01*
X15961428Y-18612714D01*
X16018571Y-18612714D01*
X16047143Y-18627000D01*
X16061428Y-18641286D01*
X16075714Y-18669857D01*
X16075714Y-18684143D01*
X16061428Y-18712714D01*
X16047143Y-18727000D01*
X16018571Y-18741286D01*
X15961428Y-18741286D01*
X15932857Y-18755572D01*
X15918571Y-18769857D01*
X15904286Y-18798429D01*
X15904286Y-18855572D01*
X15918571Y-18884143D01*
X15932857Y-18898429D01*
X15961428Y-18912714D01*
X16018571Y-18912714D01*
X16047143Y-18898429D01*
X16061428Y-18884143D01*
X16075714Y-18855572D01*
X16075714Y-18798429D01*
X16061428Y-18769857D01*
X16047143Y-18755572D01*
X16018571Y-18741286D01*
X16432857Y-18912714D02*
X16432857Y-18612714D01*
X16561428Y-18912714D02*
X16561428Y-18755572D01*
X16547143Y-18727000D01*
X16518571Y-18712714D01*
X16475714Y-18712714D01*
X16447143Y-18727000D01*
X16432857Y-18741286D01*
X16747143Y-18912714D02*
X16718571Y-18898429D01*
X16704286Y-18884143D01*
X16690000Y-18855572D01*
X16690000Y-18769857D01*
X16704286Y-18741286D01*
X16718571Y-18727000D01*
X16747143Y-18712714D01*
X16790000Y-18712714D01*
X16818571Y-18727000D01*
X16832857Y-18741286D01*
X16847143Y-18769857D01*
X16847143Y-18855572D01*
X16832857Y-18884143D01*
X16818571Y-18898429D01*
X16790000Y-18912714D01*
X16747143Y-18912714D01*
X17018571Y-18912714D02*
X16990000Y-18898429D01*
X16975714Y-18869857D01*
X16975714Y-18612714D01*
X17247143Y-18898429D02*
X17218571Y-18912714D01*
X17161428Y-18912714D01*
X17132857Y-18898429D01*
X17118571Y-18869857D01*
X17118571Y-18755572D01*
X17132857Y-18727000D01*
X17161428Y-18712714D01*
X17218571Y-18712714D01*
X17247143Y-18727000D01*
X17261428Y-18755572D01*
X17261428Y-18784143D01*
X17118571Y-18812714D01*
X17375714Y-18898429D02*
X17404286Y-18912714D01*
X17461428Y-18912714D01*
X17490000Y-18898429D01*
X17504286Y-18869857D01*
X17504286Y-18855572D01*
X17490000Y-18827000D01*
X17461428Y-18812714D01*
X17418571Y-18812714D01*
X17390000Y-18798429D01*
X17375714Y-18769857D01*
X17375714Y-18755572D01*
X17390000Y-18727000D01*
X17418571Y-18712714D01*
X17461428Y-18712714D01*
X17490000Y-18727000D01*
X17604286Y-19027000D02*
X17618571Y-19012714D01*
X17647143Y-18969857D01*
X17661428Y-18941286D01*
X17675714Y-18898429D01*
X17690000Y-18827000D01*
X17690000Y-18769857D01*
X17675714Y-18698429D01*
X17661428Y-18655572D01*
X17647143Y-18627000D01*
X17618571Y-18584143D01*
X17604286Y-18569857D01*
X9933996Y-19271996D02*
X9933996Y-19074004D01*
X9736004Y-19074004D01*
X9736004Y-19271996D01*
X9933996Y-19271996D01*
X10247143Y-19037286D02*
X10261428Y-19023000D01*
X10290000Y-19008714D01*
X10361428Y-19008714D01*
X10390000Y-19023000D01*
X10404286Y-19037286D01*
X10418571Y-19065857D01*
X10418571Y-19094429D01*
X10404286Y-19137286D01*
X10232857Y-19308714D01*
X10418571Y-19308714D01*
X10547143Y-19280143D02*
X10561428Y-19294429D01*
X10547143Y-19308714D01*
X10532857Y-19294429D01*
X10547143Y-19280143D01*
X10547143Y-19308714D01*
X10732857Y-19137286D02*
X10704286Y-19123000D01*
X10690000Y-19108714D01*
X10675714Y-19080143D01*
X10675714Y-19065857D01*
X10690000Y-19037286D01*
X10704286Y-19023000D01*
X10732857Y-19008714D01*
X10790000Y-19008714D01*
X10818571Y-19023000D01*
X10832857Y-19037286D01*
X10847143Y-19065857D01*
X10847143Y-19080143D01*
X10832857Y-19108714D01*
X10818571Y-19123000D01*
X10790000Y-19137286D01*
X10732857Y-19137286D01*
X10704286Y-19151572D01*
X10690000Y-19165857D01*
X10675714Y-19194429D01*
X10675714Y-19251572D01*
X10690000Y-19280143D01*
X10704286Y-19294429D01*
X10732857Y-19308714D01*
X10790000Y-19308714D01*
X10818571Y-19294429D01*
X10832857Y-19280143D01*
X10847143Y-19251572D01*
X10847143Y-19194429D01*
X10832857Y-19165857D01*
X10818571Y-19151572D01*
X10790000Y-19137286D01*
X11032857Y-19008714D02*
X11061428Y-19008714D01*
X11090000Y-19023000D01*
X11104286Y-19037286D01*
X11118571Y-19065857D01*
X11132857Y-19123000D01*
X11132857Y-19194429D01*
X11118571Y-19251572D01*
X11104286Y-19280143D01*
X11090000Y-19294429D01*
X11061428Y-19308714D01*
X11032857Y-19308714D01*
X11004286Y-19294429D01*
X10990000Y-19280143D01*
X10975714Y-19251572D01*
X10961428Y-19194429D01*
X10961428Y-19123000D01*
X10975714Y-19065857D01*
X10990000Y-19037286D01*
X11004286Y-19023000D01*
X11032857Y-19008714D01*
X11318571Y-19008714D02*
X11347143Y-19008714D01*
X11375714Y-19023000D01*
X11390000Y-19037286D01*
X11404286Y-19065857D01*
X11418571Y-19123000D01*
X11418571Y-19194429D01*
X11404286Y-19251572D01*
X11390000Y-19280143D01*
X11375714Y-19294429D01*
X11347143Y-19308714D01*
X11318571Y-19308714D01*
X11290000Y-19294429D01*
X11275714Y-19280143D01*
X11261428Y-19251572D01*
X11247143Y-19194429D01*
X11247143Y-19123000D01*
X11261428Y-19065857D01*
X11275714Y-19037286D01*
X11290000Y-19023000D01*
X11318571Y-19008714D01*
X11547143Y-19308714D02*
X11547143Y-19108714D01*
X11547143Y-19137286D02*
X11561428Y-19123000D01*
X11590000Y-19108714D01*
X11632857Y-19108714D01*
X11661428Y-19123000D01*
X11675714Y-19151572D01*
X11675714Y-19308714D01*
X11675714Y-19151572D02*
X11690000Y-19123000D01*
X11718571Y-19108714D01*
X11761428Y-19108714D01*
X11790000Y-19123000D01*
X11804286Y-19151572D01*
X11804286Y-19308714D01*
X11947143Y-19308714D02*
X11947143Y-19108714D01*
X11947143Y-19137286D02*
X11961428Y-19123000D01*
X11990000Y-19108714D01*
X12032857Y-19108714D01*
X12061428Y-19123000D01*
X12075714Y-19151572D01*
X12075714Y-19308714D01*
X12075714Y-19151572D02*
X12090000Y-19123000D01*
X12118571Y-19108714D01*
X12161428Y-19108714D01*
X12190000Y-19123000D01*
X12204286Y-19151572D01*
X12204286Y-19308714D01*
X12790000Y-18994429D02*
X12532857Y-19380143D01*
X13175714Y-19008714D02*
X13204286Y-19008714D01*
X13232857Y-19023000D01*
X13247143Y-19037286D01*
X13261428Y-19065857D01*
X13275714Y-19123000D01*
X13275714Y-19194429D01*
X13261428Y-19251572D01*
X13247143Y-19280143D01*
X13232857Y-19294429D01*
X13204286Y-19308714D01*
X13175714Y-19308714D01*
X13147143Y-19294429D01*
X13132857Y-19280143D01*
X13118571Y-19251572D01*
X13104286Y-19194429D01*
X13104286Y-19123000D01*
X13118571Y-19065857D01*
X13132857Y-19037286D01*
X13147143Y-19023000D01*
X13175714Y-19008714D01*
X13404286Y-19280143D02*
X13418571Y-19294429D01*
X13404286Y-19308714D01*
X13390000Y-19294429D01*
X13404286Y-19280143D01*
X13404286Y-19308714D01*
X13704286Y-19308714D02*
X13532857Y-19308714D01*
X13618571Y-19308714D02*
X13618571Y-19008714D01*
X13590000Y-19051572D01*
X13561428Y-19080143D01*
X13532857Y-19094429D01*
X13990000Y-19308714D02*
X13818571Y-19308714D01*
X13904286Y-19308714D02*
X13904286Y-19008714D01*
X13875714Y-19051572D01*
X13847143Y-19080143D01*
X13818571Y-19094429D01*
X14175714Y-19008714D02*
X14204286Y-19008714D01*
X14232857Y-19023000D01*
X14247143Y-19037286D01*
X14261428Y-19065857D01*
X14275714Y-19123000D01*
X14275714Y-19194429D01*
X14261428Y-19251572D01*
X14247143Y-19280143D01*
X14232857Y-19294429D01*
X14204286Y-19308714D01*
X14175714Y-19308714D01*
X14147143Y-19294429D01*
X14132857Y-19280143D01*
X14118571Y-19251572D01*
X14104286Y-19194429D01*
X14104286Y-19123000D01*
X14118571Y-19065857D01*
X14132857Y-19037286D01*
X14147143Y-19023000D01*
X14175714Y-19008714D01*
X14390000Y-19037286D02*
X14404286Y-19023000D01*
X14432857Y-19008714D01*
X14504286Y-19008714D01*
X14532857Y-19023000D01*
X14547143Y-19037286D01*
X14561428Y-19065857D01*
X14561428Y-19094429D01*
X14547143Y-19137286D01*
X14375714Y-19308714D01*
X14561428Y-19308714D01*
X14675714Y-19008714D02*
X14675714Y-19065857D01*
X14790000Y-19008714D02*
X14790000Y-19065857D01*
X15232857Y-19423000D02*
X15218571Y-19408714D01*
X15190000Y-19365857D01*
X15175714Y-19337286D01*
X15161428Y-19294429D01*
X15147143Y-19223000D01*
X15147143Y-19165857D01*
X15161428Y-19094429D01*
X15175714Y-19051572D01*
X15190000Y-19023000D01*
X15218571Y-18980143D01*
X15232857Y-18965857D01*
X15332857Y-19037286D02*
X15347143Y-19023000D01*
X15375714Y-19008714D01*
X15447143Y-19008714D01*
X15475714Y-19023000D01*
X15490000Y-19037286D01*
X15504286Y-19065857D01*
X15504286Y-19094429D01*
X15490000Y-19137286D01*
X15318571Y-19308714D01*
X15504286Y-19308714D01*
X15861428Y-19308714D02*
X15861428Y-19008714D01*
X15990000Y-19308714D02*
X15990000Y-19151572D01*
X15975714Y-19123000D01*
X15947143Y-19108714D01*
X15904286Y-19108714D01*
X15875714Y-19123000D01*
X15861428Y-19137286D01*
X16175714Y-19308714D02*
X16147143Y-19294429D01*
X16132857Y-19280143D01*
X16118571Y-19251572D01*
X16118571Y-19165857D01*
X16132857Y-19137286D01*
X16147143Y-19123000D01*
X16175714Y-19108714D01*
X16218571Y-19108714D01*
X16247143Y-19123000D01*
X16261428Y-19137286D01*
X16275714Y-19165857D01*
X16275714Y-19251572D01*
X16261428Y-19280143D01*
X16247143Y-19294429D01*
X16218571Y-19308714D01*
X16175714Y-19308714D01*
X16447143Y-19308714D02*
X16418571Y-19294429D01*
X16404286Y-19265857D01*
X16404286Y-19008714D01*
X16675714Y-19294429D02*
X16647143Y-19308714D01*
X16590000Y-19308714D01*
X16561428Y-19294429D01*
X16547143Y-19265857D01*
X16547143Y-19151572D01*
X16561428Y-19123000D01*
X16590000Y-19108714D01*
X16647143Y-19108714D01*
X16675714Y-19123000D01*
X16690000Y-19151572D01*
X16690000Y-19180143D01*
X16547143Y-19208714D01*
X16804286Y-19294429D02*
X16832857Y-19308714D01*
X16890000Y-19308714D01*
X16918571Y-19294429D01*
X16932857Y-19265857D01*
X16932857Y-19251572D01*
X16918571Y-19223000D01*
X16890000Y-19208714D01*
X16847143Y-19208714D01*
X16818571Y-19194429D01*
X16804286Y-19165857D01*
X16804286Y-19151572D01*
X16818571Y-19123000D01*
X16847143Y-19108714D01*
X16890000Y-19108714D01*
X16918571Y-19123000D01*
X17032857Y-19423000D02*
X17047143Y-19408714D01*
X17075714Y-19365857D01*
X17090000Y-19337286D01*
X17104286Y-19294429D01*
X17118571Y-19223000D01*
X17118571Y-19165857D01*
X17104286Y-19094429D01*
X17090000Y-19051572D01*
X17075714Y-19023000D01*
X17047143Y-18980143D01*
X17032857Y-18965857D01*
M02*
